<?xml version="1.0" encoding="UTF-8"?>
<svg width="2230pt" height="2091pt" version="1.1" viewBox="0 0 2230 2091" xmlns="http://www.w3.org/2000/svg">
 <path d="m2075.3 2001.4c-2-5.23 4.64-4.64 7.7-2.61 25.1 13.83 50.27 27.53 74.79 42.4 23.31 10.42 40.84 30.88 65.68 38.17 5.53 1.09 4.63 7.48 3.74 11.64h-3.45c-11-5.5-21.98-11.04-32.68-17.07-35.39-29.19-81.01-42.54-115.78-72.53zm-335.97-15.14c24.46 9.02 44.22 29.34 68.44 39.91 24.54 14.49 48.65 29.83 72.06 46.02 5.78 1.6 5.19 13.24-2.17 10.52-24.84-20.87-55.14-35.02-79.03-56.48-21.12-8.16-40.35-20.58-59.75-32.14-3.86-1.35-3.96-7.28 0.45-7.83zm-37.6-1.65c7.97-5.3 15.12 9.31 5.67 10.87-17.51 0.64-34.25 8.2-51.1 12.9-12.98 7.58-24.4-6.18-34.11-12.89 3.11-13.6 19.21 6.69 28.56 5.32 16.66-6.41 33.83-11.23 50.98-16.2zm-54.59-32.15c5.87-1.65 8 6.25 3.07 8.88-20.7 5.13-41.63 12.82-62.69 16.08-7.24-5.52-16.46-8.16-23.35-13.98 0.15-14.62 17.32 1.32 24.46 2.91 19.87-1.45 38.82-10.44 58.51-13.89zm265.51-5.19c15.64 0.73 31.18 3.47 46.95 3.75 9.57-0.52 10.85 19.65-0.73 15.8-14.88-0.72-29.63-2.99-44.34-5.1-7.08-1.09-9.96-13.04-1.88-14.45zm177.76-123.06c4.37-1.59 12.7 7.12 5.27 8.57-9.69 1.04-22.27 13.08-29.92 2.22 5.28-3.71 15.21-13.62 20.22-4.8 1.59-1.91 2.4-4.49 4.43-5.99zm-2.17-37.6c9.35 3.31-10.84 6.55-4.68 13.95 2.76 6.97-7.24 6.84-8.79 1.23-4.66-8.74 6.18-14.89 13.47-15.18zm-65.71-78.19c5.03-1.12 0.24 5.94-1.93 7.24-13.69 15.56-31.55 26.41-46.82 40.26-4.25 3.68-6.57-3.39-2.59-5.58 17.21-13.84 33.86-28.53 51.34-41.92zm-13.39-7.03c4.96 3.31-5.23 12.27-9.37 15.45-14.93 8.86-25.64 27.61-42.44 31.81 11.92-18.47 34.18-32.52 51.81-47.26zm-17.44-6.91c0.95 6-4.9 9.2-7.67 13.66 6.56-3.91 12.9-8.36 20.19-10.86-8.32 13.4-23.05 22.2-36.27 29.51-2.69-5.08 6.85-8.94 9.97-13.01-13.41-4.56 7.98-15.91 13.78-19.3zm-269.24-18.1c5.13-0.93 20.5 1.76 15.33 9.49-5.33 2.93-21.47-1.28-15.33-9.49zm103.19-55.02c30.46 2.27 61.12 6.3 91.01 12.9 15.18 2.52 16.74 21.79 17.96 34.26-3.12 25.55-3.49 51.34-4.94 76.98-1.58 7.67-10.33 12.79-17.84 10.66-30.61-6.73-60.08-19.12-91.81-19.65-9.38-3.46-3.5-16.96-5.16-24.23 4.71-29.14-5.87-59.82 5.99-88.26 0.99-1.61 3.04-2.21 4.79-2.66m8.69 10.84c-2.95 9.98-3.47 21.17-1.6 31.09 0.8-7.78 11.89-28.75 1.6-31.09m12.02-0.06c-6.58 14.81-6.07 33.34-1.25 48.09 5.72-4.4 1.08-15.76 5.83-21.5 3.72 5.43-1.14 13.53 2.83 18.44 5.85-11.18 5.64-24.45 9.02-36.46 2.21-4.24-1.86-9.75-6.21-7.29-4.06 7.18-0.67 16.84-4.82 23.72-7.63-3.87 5.92-24.55-5.4-25m24.18 2.95c-6.86 8.17-3.15 22.15-5.19 32.47 9.88-2.9 3.42-27.36 14.54-28.47-0.83 12.43-1.65 24.87-2.79 37.3 6.73-8.37 4.43-22.6 8.46-32.87 1.02-1.57 3.95-0.17 3.39 1.77-0.77 16.66-4.04 33.25-2.73 50 0.06 2.49 2.39 3.74 4.67 3.82 11.17-14.77 0.08-36.67 9.95-50.59 10.14 0 23.51 4.86 24.26 16.64 6.89-7.9-1.81-17.88-8.06-23.29-14.66-6.4-31.02-4.47-46.5-6.78m34.55 36.65c-2.81 9.03-3.86 19.02-2.62 28.45 4.2-8.7 5.67-19.42 2.62-28.45m-81.15 10.68c-0.37 6.17-0.2 12.51 0.96 18.65 5.6-0.08 13.33-9.73 5.52-12.39-3.26-0.68-4.09-6.61-6.48-6.26m44.59 6.24c-4.33 1.45-11.88 0.1-11.56 6.56-2.75 15.99 18.79-3.43 11.56-6.56m-27.11 8.68c-4.29 5.81-10.44 10.36-17.74 11.41-2.6 6.63-3.18 19.24 6.52 20.1 25.6 4.28 49.9 16.8 75.77 17.71-6.1-10.64-22.43-8.07-26.93-19.65 2.25-6.7 8.52-18.6-2-21.18-7.59-5.28-11.35 3.84-15.48 8.32-12.61 6.19-10.5-15.68-20.14-16.71m54.07 13.97c-6.73 5.86-9.77 18.99 3.01 19.26 8.52 8.27 10.6-16.43 2.91-10.04-5.55 1.96-0.66-10.54-5.92-9.22m19.71 21.69c-4.35 3.71-0.57 12.43-7.93 13.43 0.18 4.22 9.18 1.86 11.93 2.19 3.2-4.88 4.18-16.47-4-15.62zm-330.56-201.61c13.94 0.01 25.37 11.01 38.23 15.74 12 5.86 28.07 13.96 25.81 29.99-0.45 27.12-0.76 54.34 0.84 81.38 0.22 5.34-3.72 12.1-9.85 9.75-21.78-6.84-48.97-13.86-60.82-35.41-2.68-31.26-3.32-62.84-1.45-94.19 0.25-3.85 3.31-7.14 7.24-7.26m54.67 40.36c-3.06 5.34-3.65 11.87-4.08 17.92 7.85 1.2 4.37-13.6 4.08-17.92m-40.69 18.62c-3.24 3.72-8.74 3.29-12.41 5 0.78 14.03-3.11 31.17 6.2 43.23 13.68 8.89 29.2 14.77 44.8 19.42 7.14-17.22-8.42-29.22-15.5-40.65-10.58 2.76-18.08-11.22-14.33-19.9 3.65-6.81-4.47-8.01-8.76-7.1zm243.76-72.92c8.68-3.38 17.75 19.89 5.94 19.63-2.08-5.79-9.48-14.25-5.94-19.63zm-12.02-7.34c6.82 2.85 2.13 16.86 2.73 24-11.64 6.79-11.24-19.2-2.73-24zm-14.97-9.89c3.92-1.42 4 3.47 2.83 5.91-2.94 7.7-2.1 16.29-5.12 23.94-0.79 3.31-5.71 2.28-5.6-0.94-0.97-9.38-1.09-23.21 7.89-28.91zm104.03-13.94c2.24 3.89-3.58 20.49-11.11 20.51 0.37-7.81 6.03-14.91 11.11-20.51zm-134.96-7.05c3.09-1.47 5.57 2.27 3.52 4.79-6.04 11-7.56 23.44-10.61 35.38-3.6 2.96-7.1-3.56-5.4-6.52 1.06-11.76 3.96-25.04 12.49-33.65zm-29.86-2.97c9.06-1.44 0.31 10.59 0.02 14.51-3.81 4.19-0.63 20.77-9.24 17.56-1.35-10.95 2.02-23.85 9.22-32.07zm15.81-3.11c2.74-1.14 4.38 2.1 3.19 4.34-4.46 11.22-7.87 22.98-8.76 35.08-0.03 3.18-4.18 5.25-5.33 1.47-2.12-13.97 2.61-29.72 10.9-40.89zm-358.03-23.08c25.42 12.61 53.31 25.27 78.71 39.81 4.09 4.12 13.21 1.38 14.61 7.86 0.1 32.28-1.49 64.88 3.23 96.94-2.26 9.36-14.48 9.61-21.09 4.46-21.65-9.46-43.39-19.31-62.37-33.63-11.62-4.9-15.65-19.19-14.15-30.76 1.21-27.76-3.38-58.68 1.06-84.68m7.88 30.03c-3.2 17.79-0.32 35.98-0.6 53.96-0.54 7.07-2.23 16.1 4.29 21.06 20.76 15.69 45.54 24.56 68.46 36.51 7.26 2.41 6.26-8.79 5.17-12.76-14.84-4.1-5.34-26.86-11.14-35.46-5.33 4.33-12.45 7.93-17.91 1.82-2.48-13.47-3.54-27.51-2.69-41.26-9.7 1.86 2.04 27.05-9.51 25.62-2.65-11.71 1.17-23.69-0.99-35.5 0.18-3.1 4.06-9.53-1.97-8.05-3.02 5.79-1.77 12.78-3.48 18.95-6.09 1.07-3.94-7.89-5.88-11.16-3.63 1.93-1.72 7.57-3.14 11.14-8.91 0.92-1.33-15.83-11.24-14.52-5.24-1.34-2.26-12.56-9.37-10.35zm281.02-32.81c1.98-0.75 4.6 2.19 3.01 4.01-8.78 13.94-11.64 30.87-12.9 46.89-7.76 7.57-5.62-10.8-5.36-14.92 3.73-12.24 2.54-28.96 15.25-35.98zm-363.8-34.4c12.26 2.36 21.23 13.7 33.79 15.85 7.29 27.85-3.59 56.73 0.08 85.05 0.66 5.8 1.51 16.64-5.52 19.2-11.66-3.35-23-9.05-32.25-16.88-1.85-28.06 2.51-56.44-0.01-84.61-1.08-6.43-0.25-13.38 3.91-18.61m6.83 16.54c1.18 25.19-2.74 55.44 1.03 81.13 5.32 2.78 13.3 14.36 18.11 6.78-0.45-26.41 3.96-52.86 0.77-79.18-5.99-3.68-12.59-8.88-19.91-8.73zm-480.1-32.15c7.19-0.16 7.93 11.91 3.55 15.78-7.77 1.06-11.54-13.53-3.55-15.78zm921.54-2.81c7.27 4.97-12.94 11.94-16.74 17.55-5.56-8.85 10.01-14.95 16.74-17.55zm-583.17-9.08c20.35 4.08 50.44 13.56 47.37 39.78-1.3 12.08 3.93 26.23-1.69 37.31-13.62 4.63-24.99-9.06-36.78-13.83-4.81-6.07-18.63-2.6-18.31-11.96 14.28-13.05-3.51-39.8 9.41-51.3m4.52 10.87c-4.16 13.05 0.57 26.77-1.08 40.15 9.96 7.21 21.73 12.79 32.91 17.63 0.97-14.34 1.22-30.26-0.97-44.74-10.2-4.44-20.42-9.1-30.86-13.04zm-371.71-11.88c8.89 1.72 23.82 3.16 21.31 16.15-7.72 7.58-31.67-6.88-21.31-16.15zm746.09-5.04c14.71 10.19-4.66 35.48-4.62 52.51 3.54 11.14-15.56 14.96-14.48 3.48 0.83-19.24 7.59-40.23 19.1-55.99zm175.05-8.9c3.56-1.99 5.52 4.09 0.49 4.47-8.15 3.82-14.78 10.57-22.83 14.25-2.85-4.56-11.11-1.94-11.38-7.75 10.49-8.18 23.68-0.24 33.72-10.97zm-946.05-5.08c7.54-2.39 4.35 13.53 13.28 10.77 6.78 0.29 8.86 13 1.1 13.56-7.23-3.47-27.65-15.36-14.38-24.33zm-203.79-10.9c6.5-1.98 17.78 5.64 13.04 12.28-5.47 0.78-17.42-6.86-13.04-12.28zm46.07-2.69c2.66-1.23 5.67-1.08 5.39 1.98-6.45 6.33-16.29 4.69-24.49 5.77-2.9 0.94-10.99 1.12-8.07-4.05 8.99-1.67 18.16-2.1 27.17-3.7zm456.83-9.52c16.02 4.59 31.87 12.31 46.45 20.81 6.77 2.95 5.85 11.62 2.64 16.91-1.01 11.85 0.5 23.85 1.38 35.74-0.71 4.6-6.15 6.56-10.23 4.79-13.88-5.54-26.16-14.35-38.62-22.44-10.7-11.02-4.66-28.18-5.88-41.79 1.19-4.53-1.85-12.61 4.26-14.02m4.71 12.95c-1.06 11.88-3.16 24.88 1.47 36.13 9.79 6.77 20.34 12.63 30.76 18.41 4.14 1.78 4.21-4.36 4.27-6.87-0.91-11.17-0.24-22.58-2.77-33.52-10.66-5.65-21.58-12.81-33.73-14.15zm-506.73-19.66c9.44 1.59 24.14-3.73 30.63 1.5-11.1 10.14-32.95-0.73-46.11 9.63-5.57 3.1-16.48-3.59-12.4-9.26 9.37 2.2 18.63-0.37 27.88-1.87zm1135.8-9.09c2.1-0.63 2.13 2.76 1.25 3.9-17.03 11.55-39.65 12.85-54.68 27.55 0.57 7.97-9.24 11.75-7.72 1.75 14.05-19.81 39.81-24.69 61.15-33.2zm-247.51-4.08c8.88-0.48 20.41 4.51 21.04 14.61 3.23-3.06 5.11-11.64 10.78-9.31-1.5 17.01-5.78 34.2-7.31 51.4-6.29 7.83-15.72-1.9-23.23-2.96-10.67-0.69-12.69-13.46-13.87-21.71 5.13-9.95 1.11-26.61 12.59-32.03m2.79 9.92c-2.6 7.65-14.12 26.06 1.22 26.76 4.15-5.64 2.08-13.71 5.38-19.96 2.54-4.25-1.96-8.72-6.6-6.8m16.06 8.37c-6.45 8.9-3.05 21.13-6.55 31.26 11.99 2.3 4.73-23.23 6.55-31.26zm-935.91-20.03c8.13 2.69 30.59-7.99 31.45 4.34-12.41 3.51-26.2-0.59-37.9 5.5-4.36 1.85-13.87-1.99-10.58-7.87 5.66-0.75 11.35-1.32 17.03-1.97zm-12.12-14.09c5.55 1.34 28.63-5.94 24.16 5.4-13.79 1.82-27.85 1.28-41.54 4.06-3.83-0.4-10.84-4.32-7.04-8.79 8.02 2.96 16.23-0.5 24.42-0.67zm464.1-3.06c11.74 0.48 20.93 9.84 32.17 12.83 6.25 3.23 15.33 4.91 17.11 12.99-3.41 14.52-2.03 29.49-4.22 44.15-0.44 2.24-3.24 3.41-5.17 2.21-14.9-7.19-28.55-16.64-43.47-23.8-1.94-13.03-0.76-26.54-2.19-39.7-1.79-4.37 1.39-8.8 5.77-8.68m6.53 10.69c-6.25 8.95-1.03 22.07-2.88 32.56 9.69 6.41 21.74 9.76 31.62 16.35 5.05-9.85 3.82-22.4 5.02-33.39-9.07-8.61-22.54-10.63-33.76-15.52zm-478.46-24.56c3.06-1.04 6.74-1.43 7.46 2.28-10.04 10.21-27.94 1.34-37.54 11.94-4.07-0.67-10.96-1.54-9.95-7.28 11.55-8.4 26.98-2.78 40.03-6.94zm-25.31-15.16c2.59-1.01 7.61 0.55 5.13 3.85-11.63 8.45-28.21-1.19-39.59 5.77-3.44-0.48-9.58-3.59-7.21-7.63 13.88-0.87 27.79-1.17 41.67-1.99zm426.09-1.24c15.24 2.79 29.19 10.83 43.39 16.86 10.96 7.06 0.37 20.74 4.98 30.1 2.48 8.49 0.07 23.94-12.21 20.82-12.13-9-27.56-13.76-40.38-20.41 1.79-15.32-1.91-33.88 4.22-47.37m8.91 12.07c-5.6 7.68-3.08 20.31-3.01 29.85 8.8 6.69 19.63 11.43 30.37 13.99 3.24-10.66 3.64-23.51 0.2-33.86-8.76-4.11-18.13-8.21-27.56-9.98zm-503.15-33c16.28 7.5 34.6 4.97 52.37 3.81 3.74-0.11 2.6 5.25-0.65 5.34-14.28 2.84-29.02 2.92-43.51 4.06-6.38 0.2-14.84-7.76-8.21-13.21zm-9.66-11.77c10.13-0.74 20.55-1.32 30.44 1.5-4.01 11.82-23.69 2.32-33.33 4.28-7.63 0.29-2.42-7.1 2.89-5.78zm-9.79-14.37c7.31 0.1 15.07-1.3 22.16 1.03 0.14 7.07-10.61 3.83-14.83 6.97-7.35 3.8-23.36 8.4-26.43-2.04 5.71-4.24 14.57 0.93 19.1-5.96zm-22.44-12.53c11.68-0.13 25.01-2.45 35.78 3.42-2.84 7.68-13.71 2.77-19.75 3.62-11.17-2.93-23.37 2.78-34.1-1.08-2.53-9.25 13.1-4.37 18.07-5.96zm-30.98-19.08c8.44 0.16 16.89 2.36 25.34 0.87 5.5 1.27-0.05 9.24-4.24 7.83-9.16 3.02-18.08-2.61-27.3-0.42-4.33-3.67 2.18-8.38 6.2-8.28zm-21.96-11.2c9.52 0.62 19.38-0.53 28.73 1.57 4.88 12.96-38.87 6.53-28.73-1.57zm-32.96-20.84c16.1-0.1 31.33 5.41 47.14 7.69 3.48 0.14 5.71 3.35 3.7 6.51-15.47-0.55-33.41 2.48-45.83-8.36-5.11 0.15-14.44-4.5-5.01-5.84zm-17.81-15.05c12.55-0.73 25.38-0.44 37.75 2.08 1.33 2.38-0.14 6.12-3.07 6.28-13.19 0.12-26-4.28-39.21-3.14-1.68-3.47 1.69-4.71 4.53-5.22zm-12.45-19.1c10.44 2.02 21.14 4.32 31.88 2.98 5.89-3.84 5.95 3.52 2.47 4.8-11.78 3.54-25.09 2.58-36.32-2.49-3.07-1.29-0.63-5.19 1.97-5.29zm-6.14-11.74c8.87 1.88 19.05-0.95 27.15 3.38-6.46 11.74-24.43 2.14-35.23 3.57-6.67-2.9 4.28-7.13 8.08-6.95zm-25.47-12.11c10.65-0.71 21.09 2.88 31.74 3.06 1.83 2.9-0.14 6.37-3.4 6.84-11.94 1.64-23.16-6.01-35.09-3.64-1.12-4.18 3.76-5.23 6.75-6.26zm-27.89-27.05c6.67 0.14 32.76-2.13 23.36 9.91 3.54 4.83 29.76-2.8 23.12 8.06-14.22 3.93-30.94-5.16-45.13 0.33 1.97-3.35 9.55-5.94 14.58-7.8-2.7-6.27-32.49-3.84-15.93-10.5zm334.64-26.3c7.66 0.53 14.11 5.65 21.28 8.11 13.77 18.81 1.22 43.88 8.96 64.49-0.5 5.15 0.43 15.98-6.58 16.2-7.22-3.49-14.92-6.93-20.96-12.21-6.61-19.44-1.11-40.43-4.46-60.45 0.48-5.17-3.55-12.61 1.76-16.14m6.82 15.16c-5.63 9.77 2.38 21.97-0.2 32.87 0.81 7.14 0.53 25.34 11.28 24.39 5.17-17.66 1.33-36.7 0.09-54.71-3.59-1.16-7.37-2.92-11.17-2.55zm1068-23.24c1.03-7.7 9.69-1.82 11.58 2.25 11.1 15.89 26.58 28.77 45.82 33.1 46.44 21.57 90.69 48.35 130.93 80.1 22.76 15.12 54.04 11.72 73.65 32.37 27.12 39.25 66.55 67.79 108.68 89.25 31.12 17.7 67.62 20.7 100.63 33.43 32.61 8.24 63.7 21.92 97 27.45 2.5 0.24 3.42 2.7 4.47 4.65v6.23c-0.81 0.81-1.63 1.61-2.46 2.39-58.88-19.14-118.17-37.19-177.8-53.93-52.06-24.05-102.9-56.39-134.98-105-19.6-20.15-51.71-14.11-73.64-30.41-38.79-31.94-83.49-56.18-129.04-76.97-23.99-4.99-46.69-21.17-54.84-44.91zm-1183.7-144.76c6.75-1.43 13.7 1.42 19.26 5.02 5.14 11.02-10.55 13.96-12.08 23.35-0.23 3.32-4.06 5.8-6.6 2.91-3.97-8.02 3.08-15.37 3.86-23.26-3.16-1.19-9.16-5.25-4.44-8.02zm-446.28-201.35c9.34-1.31 2.94 12.86 3.93 18.29-2.09 6.68 4.8 18.52-3.16 21.73-5.44-6.4-10.19-19.01-3.53-26.47 3.35-3.97-2.39-10.48 2.76-13.55zm0.02-16.83c7.15-1.56 7.23 15.04-0.04 13.87-4.03-3.13-5.37-11.76 0.04-13.87zm1287.2-103.87c17 2.23 5.4 27.56 7.14 40.13 7.89 2.18 21.31 3.11 23.14 12.16-6.2 3.87-13.03 7.19-18.7 12.53 3.54 7.54 13.17 15.76 21.06 8.96 6.14-5.64 20.75 1.93 13.75 9.77-10.44 5.97-23.67 4.23-35.03 2.35-4.72-3.43-5.73 4.02-2.61 6.47 11.77 6.87 22.97 15.07 36.49 18.3 9.84 2.2 7.03 17.4 0.57 21.84-12.7-4.87-26.08 2.91-39.64 3.67-7.51 2.33-1.42 20.18 5.31 11.54 0.96-11.18 16.35-9.17 19.43-0.2 5.97-3.58 12.99-2.7 14.49 5.37 7.3 3.11 14.91 7.08 22 11.23 4.7 8.78-6.26 17.48-14.38 16.26-10.83-4.2-24.3-11.98-35.31-4.31-11.01 19.41 24.3 12.09 25.18 29.38 7.33-1.71 13.48 4.51 21.01 1.45 8.34 9.76 21.05 6.17 32.12 8.01 10.63 6.97-3.74 17.78-5.55 25.79-2.82 9.75-11.53 2.24-16.11-1.84-7.92 1.99-6.78 21.81-17.3 11.41-7.68 7.12-24.84 12.76-23.03 27.77 8.01 1.7 21.36-10.24 26.37 0.87 13.74 7.95 30.38 5.27 43.99-1.89 5.58-2.47 12.74 1.32 10.95 8.05-5.4 5.58-11.78 12.28-12.66 20.18 10.69 9.2 29.1 5.51 37.27 19.06 17.29 8.86 34.16 18.39 53.4 22.43 15.79 11.19 33.53 19.11 50.02 29.1 12.36 7.67 17.89 23.97 32.35 28.66 14.78 4.16 32.76 8.22 37.75 25.25 1.95 8.33 9.44 14.52 10.81 22.76-12.66-1.63-12.46-18.77-20.51-26.04-10.46-13.74-30.23-10.89-43.35-20.65-9.31-4.7-12.2-18.67-22.9-20.83 0.03 9.32 5.62 17.51 15.44 18.04 13.21 13.99-1.33 32.07-15.28 37.97 4.7 6.77 14.74 12.17 22.71 15.59-1.03-5.86-5.72-13.61 1.56-17.67 8.04-1.01 4.09 14.77 13.23 13.04 5.76 0.93 6.02 8.85 10.67 11.74 5.04 0.02 10.32-7.89 15.07-3.11 1.48 5.61-2.06 11.14-2.37 16.78 5.88 5.62 21.85 10.71 13.88 21.18-13.33 5.97-29.73 1.42-42.19-5.52-2.41-2.47-9.43-10.21-2.94-12.22 7.32 13.24 24.62 15.93 37.95 11.66-1.38-8.03-16.38 0.59-20.81-6.61-10.74-1.74-4.35-16.32-11.02-21.12-5.42 1.99-9.35 9.39-15.76 9.87-2.05-6.19-4.24-12.67-9.56-16.91-5.2 0.28-6.17 8.09-3.98 12.03-1.18 7.22-8.95 12.59-15.68 8.17-12.81-1.93-10.41-27.39 3.33-20.7 3.4-6.81-13.44-10.32-9.69-19.8 11.9-2.05 32.9-9.05 27.38-24.88-7.98-4.09-15.08-0.89-9.59 6.99 3.6 14.26-11.12 2.01-15.95 9.44-8.65 5.41-5.49 15.68-5.57 24.09-3.02 9.79-14.55 7.89-22.47 8.56-6.16 0.16-6.05-12.12-12.25-7.77-5.91 4.59-20.7 3.17-18.94-6.69 2.56-5 8.04-0.33 11.72 0.51 6.17-3.56 13.52-9.83 18.44-0.91 2.19-7.08-5.44-23.61 7.05-24.81 13.7 0.78 12.7-18.26 25.26-21.49 9.43-2.35 4.81-13.51 6.76-20.1-22.13-10.79-42.09-27.01-66.82-31.19-14.13-9.65-31.24-14.3-42.88-27.26-12.24-2.39-22.74-9.79-34.1-13.81-5.56-5.37 5.85-11.82 0.27-16.34-11.48 5.38-18.69 26.48 1.51 24.61 2.78 15.21-14.51 2.27-21.13 7.5-6.18 13.42-22.5 17.34-35.9 19.61-9.55-6.03-13.35 6.77-18.22 12.22 2.2 9.62 9.83-3.29 15.21-0.51 7.51 0.53 1.79 12.55 8.75 13.24-6.34-12.78 14.78-14.8 20.87-7.63 12.73 12.76 8.44-20.37 13.93-24.14 7.65 1.72 1.2 12.68 4.83 18.19 0.91 6.5 9.94 1.13 12.23 6.53 0.61 10.98-2.26 21.69-3.89 32.46-1.38 3.91 5.46 6.92 7.32 3.18 5.3-6.8-1.21-21.92 8.67-25.18 6.92 1.9 3.41 13.21 10.75 15.11 16.85 4.1-2.72 24.67 7.96 33.05 6.65 1.26 9.24 8.75 13.97 11.58 1.25-11.51 20.95-9.7 18.67 1.63-11.3-4.85-9.19 8-16 12.34-12.12 2.55-6.63-16.21-16.55-17.59-10.66 1.17-18.63 11.93-30.13 9.15-11.09-2.55-13.59-19.36-5.5-26.57-7.05-2.7-24.83-6.78-22.8 6.45-6.37 9.24-18.92-1.18-16.81-10.7-7.55-6.35-19.92-4.78-27.95-11.36-3.58-4.06-0.22-9.31 2.17-13-6.38-0.09-13.17 1.09-17.91-4.17-2.88 4.6-8.18 12.43-14.67 8.85-10.15-1.98-18.91 13.11-29.01 6.1-5.73-4.42-12.33-8.1-16.57-14.09-2.37 4.62 0.3 12.25-5.92 14.18-7.93 0.42-3.02-10.98-7.14-14.5-11.8-6.75 5.19-24.7-6.1-30.47-1.97-9.91 0.08-20.34-2.6-30.05-5.34 4.15-11.88 11.12-19.7 5.92-6.85 10.66-19.35 0.31-28.62 1.67-7.44 5.12-16.33 13.96-24.53 4.45-10.4 8.89-20.68-2.53-30.19-6.68-13.03 3.77-18.15 18.56-22.19 30.24-2.39 4.58-10.09 2.84-9.92-2.47-1.29-11.2-17.92-6.48-20.26-16.78-3.84-13.16-15.79-21.47-28.24-25.69-6.09-3.06-9.74 6.33-15.62 4.82-6.49-2.72-3.75-11.05-5.83-16.36-4.84-1.35-6.53 11.86-12.12 5.09-9.3-14.48 20.18-23.45 21.56-7.47 11.82-1.14 23.06-18.1 32.15-2.03 11.39-1.77 3.36-20.19 11.23-28.1-7.59-3.29-5.91 12.67-13.27 14.81-11.14 4.33-8.07-24.22 1.14-13.83 7.47-0.16 0.19-14.03-5.37-9.69-6.37 4.36-14.92 15.16-22.53 6.37-5.43-5.71-10.06 1.75-15.24 3.17-6.92 2.36-8.67-7.49-14.78-8.2-4.34-1.3-6.88 3.51-10.58 4.64-6.6-1.22-10.53-12.6-4.01-15.93 9.75-8.07 19.28 6.27 29.74 4.54 17.09-1.81 32.58-10.85 50.14-5.29 12.6 4.52 23.87-5.32 33.01-11.16-10.56-11.77-26.6 0.71-39.79-1.06-7.58-0.8-14.1 4.34-21.58 3.74-5.99-1.34-2.7-9.74-6.5-13.07-6.21 0.1-11.35-2.96-16.17-6.42-19.05 13.91-6.7-48.95 3.35-22.57 10.81-5.72 19.28 6.39 30.16 5.12 7.39 0.12 14.89 0.08 22.15 1.78 11.8 6.78 15.76-13.48 28.38-7.53 7.68 2.03 8.37-10.56 0.37-8.53-11.65 4.93-23.09-14.16-32.53-4.85-3.46 16.8-23.06-1.76-18.64-11.46 4.13-6.43 7.8 4.86 12.62 3.4 5.18-9.21-14.55-13.33-8.14-24.05 13.37-2.05 27.1-0.2 40.34-3.58 5.02-13.45 5.11-27.95 0.37-41.41-1.09-13.96 21.82-14.54 18.85-29.52 1.29-6.36-1.04-26.39 10.2-20.41 5.22 17.08-1.49 36.98 9.52 52.57 5.72 4.95-3.37 10.63-1.45 16.53 2.62 7.41-2.29 13.75-2.31 20.92 5.38 3.34 11.69 1.87 17.1-0.55 10.01-1.06 9.35 18.12-0.5 17.63-8.95 4.58 10.86 3.5 8.27 11.6 1.72 9.19-12.2 1.98-13.84 9.81-3.33 8.27-10.95 14.12-19.99 11.14-4.38 5.96 6.15 10.07 10.18 12.85 18.76 3.37 37.2-4.14 54.58 4.76 8.49-5.85 18.27 1 27.44-0.4 7.35-0.42 3.88-13.16 13.02-10.55 6.15 7.36 19.3 10.02 22.76-1.06-3.43 1.21-10.72 4.72-11.11-0.88 6.17-10.82-6.43-23.39-17.78-24.43-13.15-7.99-24.29 6.55-37.46 4.22-3.78-1.54-7.05-7.84-1.58-9.69 9.22-3.14 15.69-12.99 25.44-13.98 1.15 4.2-4.91 5.99-5.58 9.99 7.05-2.85 22.34 4.32 20.89-6.49 5.78-5.57 11.3 10.62 18.84 4.47 9.99-7.96 19.6-18.05 27.24-28.26-7.64-6.38-23.49 8.55-29.06-3.87 0.17-7.11-10.14 0.18-8.64-6.55 1.9-9 11.91-8.73 18.72-11.29 11.46-13.25 39.05-0.93 41.84-22.71-15.07-3.39-31.89-14.66-44.96-0.37-11.98-7.07 4.13-25.47 15.59-17.17 9.59-11.89 29.39 1.66 36.32-11.68-9.51-0.61-16.8-10.13-26.66-5.25-4.17 0.42-7.32-7-3.02-8.96 11.71-2.99 26.37-10.54 26.45-24.61-0.15-7.71 3.48-15.15 7.9-21.12m-40.34 110.09c-7.41 0.06-5.72 10.63 2.18 6.26 6.53-0.44 2.29-7-2.18-6.26m-129.75 61.07c-7.38-1.5-13.84 3.8-12.8 10.92 6.61 9.85 20.57-9.42 12.8-10.92m131.89 0.95c-5.76-0.68-9.48 5.68-9.89 10.47 9.99-2.19 10.8 8.7 13.95 14.89 9.37 5.53 18.68-8.54 15.31-16.35-7.39-1.35-12.32-8.79-19.37-9.01m-121.65 46.69c-5.11 5.75 9.01 4.66 12.26 5.79 1.96-7.19-7.82-6.83-12.26-5.79m30.11 1.21c-7.37 3.78-10.25 17.38-20.65 12.88-7.42-3.03-20.12-8.43-25.13 0.01 0.8 13.69 16.74 6.95 22.89 15.07 5.44 7.51 17.01 8.62 19.36 18.58 0.98 6.14 11.5-1.03 11.46 6.19-5.86 11.66 12.35 16.33 21.13 15.82 5.93 13.06 19.81 17.34 32.25 10.09-3.69-6.26-18.35 1.95-19.3-7.72-0.66-8.42-15.63-2.77-14.52-12.06 1.89-6 0.18-23.23 10.78-16.41 6.88 12.4 12.66-8.89 21.63-3.5 6.22 6.54 13.23 12.43 21.3 16.77 7.39-10.27 6.45-25.44 14.99-33.97-4.56-12.06-16.03 2.09-23.11 3.98-13.09-3.89-29.54-6.13-36.67-19.47-12.26-1.91-24.14-5.72-36.41-6.26m113.81 2.16c-4.81 4.26-13.91 2.4-16.61 8.56 4.31 6.74 9.68 13.98 16.12 18.99 10.43-1.54 10.22-28.77 0.49-27.55m65.61 4.76c-3.73 2.94 0.52 12.01 5.14 9.14 4.8-3.21-2.42-9.25-5.14-9.14m-21.67 4.98c-11.93 9.63 11.74 17.3 16.33 10.18-3.89-4.36-10.11-10.02-16.33-10.18m-208.87 11.27c-3.99 4.44-13.23 7.35-12.26 14.1 8.97 7.96 14.79-15.7 20.53-3.61 2.01 7.11 9.44 2.01 13.29-0.2-0.37-8.27-13.19-0.12-16.23-6.79-1.25-1.71-2.72-5.36-5.33-3.5m196.2-0.29c4.03 6.5 4.67 20.57 13.78 20.64 4.79-10.03-8.17-14.69-13.78-20.64m-219.34 11.91c-3.88 2.72-4.57 8.15-4.35 12.51 7 2.18 14.98-13.47 4.35-12.51m16.84 20.12c-3.78 2.44 2.66 4.56 4.05 6.63 4.31 9.5 3.92 20.28 6.82 30.21 14.44-0.73 14.64-22.12 11.91-31.9-7.05-3.12-15.2-3.98-22.78-4.94m37 5.05c-4.57 6.14 2.43 16.04 9.9 16.55 8.75 1.83 11.16 12.68 19.53 14.44-4.51-3.84-6.75-9.15-6.41-15.37-5.91-1.22-10.36-5.42-16.1-7.04-3.01-2.67-1.03-10.82-6.92-8.58m128.19 6.15c-3.59 5.5-13.93-0.41-13.44 7.55 3.23 2.81 19.65-2.07 13.44-7.55m45.73 11.89c-5.56 4.25-10.26 10.06-16.01 14.22-0.13 8.34 9.5 13.64 16.16 17.12 11.01 0.98 12.16-15.95 22.29-16.65 4.41 3.1 14.29 8.31 17.3 0.83-0.86-11.21-15.32-13.55-23.8-9.63-6.42 2.83-10.48-5.26-15.94-5.89m-51.72 4.25c-5.86-0.72-15.76 3.45-6.18 8.3 6.32 8.67 17.17-10.16 6.18-8.3m-28.21 1.84c-7.46-1.21-17.38 3.31-11.36 11.6 5.02-3.7 9.61-7.53 16.42-7.39 6.3-2.5-1.87-5.29-5.06-4.21m7.86 14.73c-2.09 9.34-16.75 5.41-16 15.45 7.46 9.56 26.53 7.51 32.88-1.55-8.11-1.77-13.23-6.26-16.88-13.9m93.15 4c-3.17 2.97-6.41 6.96-6.34 11.51 5.95 1.69 12.85-9.24 6.34-11.51m-50.1 11.09c3.81 17.19-25 6.66-17.21 19.84 10.84 0.7 22.43 8.22 32.82-0.48 2.25-11.68-5-18.91-15.61-19.36m-54.14 12.27c-6.03 2.8 5.96 16.05 10.32 6.92 5.68-6.27-6.02-6.25-10.32-6.92m24.1 4.41c-6.7 4.55-1.12 14.84 2.86 18.1 3.96-3.53 0.36-14.94-2.86-18.1m110.19 18.32c-2.27 4.13-5.3 8.03-6.5 12.67 4.8-3.57 9.62-2.11 14.84-1.07 4.13-6.82-1.33-12.26-8.34-11.6zm-640.91-376.08c4.45-0.26 13.28 0.03 11.39 6.48-3.1 8.67-20.25 0.61-11.39-6.48zm-560.61-3.78c10.84-3.26 3 9.28 4.81 13.97-0.76 6.74-3.78 18.84-12.77 16.22-5.81-9.28-6.18-27.86 7.96-30.19zm20.81-6.82c13.44-1.96-0.31 14.91 2.26 21.55 7.04 7.04-9.63 12.93-12.02 5.07-4.66-9.06-3.74-26.68 9.76-26.62zm562.74-25.36c5.11 0.36 9.94 7.32 9.41 12.41-4.04 3.24-8.6-0.76-12.01-2.98-6.96 1.02-9.91 13.36-17.11 11.7-1.37-7.77 8.05-20.98 16.43-14.37 1.16-2.23 1.8-4.71 3.28-6.76zm-494.02-5.83c19.15 5.4 5.08 36.36-11.91 34.99-13.5 4.22-8.75-15.07-6.77-22.94 12.87-4.72-0.48 16.97 10.01 15.12-0.65-9.02-4.04-24.81 8.67-27.17zm29.91-3.09c10.31 0.02 10.57 15.31 2.53 19.43 4.78 9.99-7.02 11.32-14.8 11.96 1.18-10.52-3.77-30.86 12.27-31.39zm28.48-5.87c17.5-5.76 12.11 29.23-4 22.13-1.67-6.58-6.76-21.08 4-22.13zm26.41-10.23c7.29 2.58 8.65 14.97 2.94 20.02-1.63 4.52-3.72 15.65-10.45 10.12-3.14-9.9-1.6-23.77 7.51-30.14zm20.53-1.78c21.36-7.17 18.29 25.74 0.61 25.59-10.08-6.41-12.04-18.46-0.61-25.59zm32.73-8.13c7.57-0.95 8.66 9.16 6.39 14.3-1.27 4.76 4.94 16.32-5.23 14.31-6.41-6.99-11.42-22.76-1.16-28.61zm55.22-6.84c13.57-4.43 9.55 16.19 0.54 17.48-8.51-1.25-9.85-16.75-0.54-17.48zm25-4.31c9.63-1.48 9.23 15.79 2.33 18.89-8.94-0.73-9.44-15.1-2.33-18.89zm16.86-4.86c6.58-1.46 6.99 7.2 8.73 11.62 4.52 8.39-12.09 13.13-14.55 5.1-1.62-5.58 0.15-14.25 5.82-16.72zm21.13-0.89c10.8-3.48 10.9 18.46 1.63 18.44-5.63-3.36-11.06-15.75-1.63-18.44zm22.98-6.13c9.59-0.6 9.75 21.21-2.57 17.71-8.82-1.63-3.71-15.27 2.57-17.71zm18.92-1.9c17.36-5.05 16.86 24.13 2.18 22.19-5.61-4.49-11.44-18.97-2.18-22.19zm32.79-5.1c10.8-0.03 7.13 13.56 5.1 20.01-3.3 6.54-9.83-2.81-12.32-6.33 2.13-4.58 1.82-11.58 7.22-13.68zm20.58-1.17c10.36-3.06 10 11.85 7.76 17.54-10.12 9.21-19.86-13.42-7.76-17.54zm25.58-3.91c12.22-0.53 7.01 23.79-4.65 18.92-4.97-5.9 0.95-13.7 4.65-18.92zm63.25-5c9.87-4.37 15.38 11.91 6.48 15.36-9.14 4.62-14.65-11.78-6.48-15.36zm25.83-0.82c7.96-4.1 15.34 11.88 6.87 14.37-8.91 4.51-12.56-10.33-6.87-14.37zm68.74-1.09c6.43-0.52 7.94 11.6 3.39 14.63-7.74 0.98-12.06-12.37-3.39-14.63zm-42.6 0.2c11-5.57 14.71 18.35 2.38 15.63-9.01 1.03-13.32-15.88-2.38-15.63zm18.92-1.23c8.92-3 14.96 7.89 10.22 14.71-8.52 6.62-16.24-9.59-10.22-14.71zm64.84-1.89c7.47-1.64 8.27 10.66 4.88 15.18-7.95 3.5-14.58-13.78-4.88-15.18zm-23.92-0.06c7.07-1.47 13.27 8.93 9.32 14.61-8.28 6.42-17.76-10.24-9.32-14.61zm71.91-3.94c11.56-2.17 9.35 18.77-1.16 17.69-8.46-2.97-8.99-17.38 1.16-17.69zm-21.05 0.01c8.36-0.08 2.82 13.68 0.65 17.86-15.07 3.34-14.56-17.54-0.65-17.86zm46.17-1.98c10.53-3.76 9.54 20.37-0.46 14.93-2.97-3.94-6.11-13.39 0.46-14.93zm30.11-2.15c10.48-4.15 8.34 10.8 4.06 15.08-7.31 0.85-8.65-11.85-4.06-15.08zm53.83-9.96c7.36-1.38 9.71 10.56 5.77 15.18-8.61 4.39-15.21-12.98-5.77-15.18zm99.01-1.12c8.63-2.63 10.85 12.49 3.38 14.72-6.28-1.14-9.99-11.4-3.38-14.72zm-47.1-0.01c7.9-2.28 10.11 7.93 8.04 13.33-7.9 4.76-14.55-8.92-8.04-13.33zm25.26-0.75c8.88-3.57 11.88 11.3 5.94 15.48-7.89 1.87-15.48-13.08-5.94-15.48zm121.77-1.1c7.73-1.78 8.27 9.9 5.21 14.6-8.52 3.86-14-12.61-5.21-14.6zm-75.82-0.04c9.27-3.4 11.2 12.55 6.1 16.67-7.37 0.75-12.82-12.55-6.1-16.67zm-96.09 0.09c9.91-3.09 11.44 17 2.58 17.72-6-2.68-12.31-15.01-2.58-17.72zm122.01-1.12c8.35-3.15 11.35 15.22 2.83 14.83-3.94-3.14-9.74-11.55-2.83-14.83zm73.83-2.89c7.9-1.64 11.66 18.82 1.42 15.24-5.15-2.44-9.62-14.33-1.42-15.24zm-52.08 2.85c4.69-0.1 8.42-2.97 12.63-4.24 11.56 9.67 1.58 28.31 9.43 39.09 9.81-5.42 20.35-10.86 32.2-9.75 2.32 0.11 5.09 3.14 2.69 4.96-7.02 1.04-8.59 9.34-15.92 10.25 3.05 6.56-7.62 16.17 2.95 18.38 6.76 0.13 15.21 11.04 7.63 15.19-9.55-2.97-21.02-5.3-29.63-1.38 7.12 26.36 50.08 2.35 58.97 29.25 4.66 9.62-9.22 11.7-13.98 5.89-9.51-8.53-21.42-1.79-32.23-0.93-6.92-0.64-2.04 10.27-0.9 13 9.15-3.33 22.22-4.56 27.68 5.51 1.05 8.56-9.95 6.97-15.13 4.95-8-3.11-18.51 0.3-22.33 8.11-5.7 10.13 5.91 20.46 1.06 31.04-7.37 2.58-18.32-5.09-14.51-13.35 1.21-3.93-0.62-13.32-6.21-10.52-3.53 8.89-2.28 23.36-12.67 27.45-12.64-2.04 9.99-19.72-4.75-16.38-11.71-1.47 3.05-18.1-7.41-21.68-16.9 6.33-34.77 4.14-52.06 5.43-3.94-0.36-9.82-7.76-11.85-1.68-4.31 9.07-16.3 0.86-23.46 4.85-8.41 3.93-15.86-3.12-23.51-5.58-5.2 0.06-3.65 8.7-9.08 8.61-3.8-0.35-6.33-4.23-9.86-5.5-4.89 1.46-8.71 10.35-14.61 6.64-4.26-5.98-11.15-11.14-18.81-10.5-3.92 6.3-10.64 18.45-19.32 11.35-13.76 0.85-27.53 5.89-41.64 3.71-4.93 10.62-17.96 7.04-27.2 6.82-6.13 3.11-14.66 10.41-20.92 3.4-7.49-10.35-12.85 10.24-21.72 5.75-9.71-6.8-11.86 19.49-0.06 12.99 7.92 7.29-10.76 14.31-14.61 5.4-9.97-3.82-7 15.16 1.75 10.23 8.46-6 9.1 17.14 12.88 4.91 4.76-1.59 12.15 6.15 15.08-2.03 6.22-6.49 11.95 6.04 19.49 5.99 9.99 7.31-12.72 9.26-3.56 11.93 10.08-7.12 18.39 13.47 4.07 13.16-9.2 8.24-19.25-3.95-28.89-0.14 12.34 11.03 29.43 10.52 43.41 18.22 18.04-0.51 31.15 15.04 49.03 14.54 20.04 7.11 41.68 9.76 61.11 19 3.79 0.95 6.08 10.32-0.75 6.98-30.97-13.48-66-12.48-94.97-30.32-32.15-5.62-60.61-22.83-91.64-32.21-20.7-6.88-45.48-2.17-63.34-16.88-18.16-3.82-37.44-9.3-55.55-5.15-1.18-3.74-1.63-8.55-6.64-8.99-14.29-1.68-27.78-7.05-41.66-10.63-8.63-2.96-8.67-14.78-17.76-16.64 4.58-6.83-9.21-13.74-9.3-4.83-4.25 7.79-17.11-1.11-14.89-8.64-0.14-8.8 13.63-1.56 13.84-11.38 0.46-7.43 11.62-7.69 9.09 1.27-1.65 7.29 9.62 11.04 12.42 4.25 6.22 0.51 16.28 11.27 20.76 1.85 0.99-5.53 9.54-5.5 9.56 0.18 10.17 15.84 20.66-32.38 26.79-7.92 6.79 9.12 21.57 8.14 32.41 12.55 10.96 5.46 3.38-17.45 13.91-11.91 8.2 9.39 13.85-10.32 7.24-15.69 8.6-12.14 18.89 9.87 25.62 1 18.1 0.01 10.84 19.58 4.53 28.43 5.45 5.37 23.04 15.32 25 2.38 1.34-4.77 8.59-4.89 7.99-11.02-0.06-11.13 12.9-1.38 16.12-9.16 0.82-5.9 2.97-12.17 9.67-13.11 7.9-3.41 6.54 8.2 8.32 12.96 10.88-1.82 22.45 0.34 31.74-7.13 14.56-6.28 3.92 15.56 17.07 13.73 13.76 6.07 14.57-10.66 25.48-13.09 5.74 0.62 5.52-9.12 0.78-9.39-6.44 9.93-17.67 14.72-26.26 22.48-8.57-7.33 0.35-13.59 8.3-15.18 1.73-9.74 5.79-27.38 19.41-24.49 4.5-1.2 7.27-12.38 13.12-7.58 4.09 8.77-4.35 18.78-0.62 27.69 8.68-0.56 11.64-14.24 21.32-12.75 12.04 7.27 25.32 14.56 38.75 18.59 11.23-10.43 32.26-11.18 43.43-0.08 13.78 0.16 23.07-14.78 38.05-6.89 15.14-7.93 33.91-13.73 48.28-0.83 7.48-3.65 31.4-3.3 22.18-16.16-6.5-12.66-17.98 6.5-27.3-0.69-12.89-6.34-26.17 0.57-39.33 0.46-5.12-2.94-8.82-14.25-0.44-15.56 16.06-1.69 34.36 4.28 48.93-5.87 5.39-4.79 19.67-6.24 16.01-15.9-9.16 1.32-21.54 9.69-28.25-0.67-3.04-7.51 1.38-22.34 11.77-18.88 9.13-4.59-3.62-18.94 9.53-18.4 6.31-4.05 18.51-3.44 17.26-13.85 3.25-6.71-8.21-13.78-1.21-19.27m-382.1 137.04c-0.44 4.48-4.84 14.62 3.21 12.77 6.64-2.3 2.94-13.76-3.21-12.77m56.31 16.12c-2.84 1.78-7.87 5.95-5.16 9.51 5.01 5.43 10.24-10.83 5.16-9.51m-15.38 16.09c-5.67 1.18-16.72 4.37-9.15 10.71 5.42 14.16 19.41-8.14 9.15-10.71m-108.32 8.15c-7.82 3.93-16.26 8.34-24.47 9.57 1.05 5.63 10 1.51 12.89-1.18 6.42 2.7 15.33 8.69 21.29 1.29 6.02-5.94-4.53-11.93-9.71-9.68m36.82 9.9c-9.5-0.96-3.21 9.79 1.7 11.58 4.98-0.61 8.87-4.53 13.14-6.84-4.44-2.77-9.18-6.68-14.84-4.74m78.9 28.22c-2.85 0.8-8.49 0.45-8.64 4.17 5.4 4.05 13.08 1.92 19.28 1.48-0.86-4.64-6.41-6.86-10.64-5.65zm452.94-222.53c7.31-1.73 6.77 9.26 3.92 13.39-7 3.12-10.05-10.91-3.92-13.39zm21.94-0.87c6.25-1.75 9.73 11.37 2.68 11.83-6.13-0.4-10.36-10.11-2.68-11.83zm48.08-1.1c6.1-2.38 9.59 8.38 3.35 9.84-5.93 0.99-9.16-7.15-3.35-9.84zm24.01-1.01c8.56-3.13 7.46 9.02 1.58 9.77-5-0.18-5.77-7.8-1.58-9.77zm-47.32-0.88c6.31 0.44 6.14 16.95-1.44 14-6.66-1.98-5.05-13.09 1.44-14zm-226.07-30.99c41.29 3.4 82.55-7.81 123.8-2.54 6.57 2.82 12.08 7.53 17.95 11.53 0.69-13.13 17.08-1.3 21.61 3.34 8.06-2.32 18.49-3.14 25.5-5.68-9.88-4.4-24.88 1.44-35.32-3.87 3.78-8.4 17.24-3.38 24.63-5.79 56.12-1.43 112.49-0.84 168.6 0.67 8.87 3.72-2.98 9.3-7.89 8 5.32 1.79 11.96 8.69 3.13 10.42-58.81 3.87-117.85-3.24-176.68 1.58 0.69 15.75 1.86 31.71-1.42 47.25 54.7-2.51 109.79-1.1 164.45-6.74 4.35-0.06 16.97-1.68 15.61 6.21-58.51 8-118.27 2.95-177.09 9.21-3.65-0.27-8.24 0.27-10.89-2.87 3.58-9.97-3.22-20.25 0.45-30.42-3.1-9.07 5.17-27.8-9.37-28.75 9.17 16.25 1.37 35.23 3.39 52.82 0.72 6.99-8.75 8.55-9.98 1.57-1.74-17.32 1.17-36.19-4.94-52.65-29.62 5.42-62.07 5.3-92.82 7.15-57.06 10.11-115.46-2.81-171.08 13.98-1.59 19.89 3.54 40.72 1.53 61.11 19.07 5.3 29.5-14.88 47.87-11.65 21.12 0.94 44.55-5.33 64.3 4.71 3.61 8.25-7.01 8.43-11.86 8.78-10.71 2.28-23.54-1.37-32.31 6.71-44.46-2.63-89.08 9.83-133.67 10.32-40.19 5.67-81.05 9.09-121.52 8.01-16.46 11.62-38.56 3.06-57.07 8.19-6.55 3.52-14.5 5.83-21.55 2.1-9.44-7.27-22.11-1.08-32.88-4.03 0.07-21.95-0.94-43.93-1.12-65.86 0.42-7.09-9.38-7.45-7.86-14.05-0.32-7.29-13.94-9.19-17.32-6.35 21.17 21.89 9.06 58.61 18.28 84.93-4.02 6.9-13.47 2.98-19.55 5.99-7.94 12.52-25.5 4.65-37.47 8.78-14.77 6.52-31.15 1.2-46.56 3.41-13.8 2.19-27.74 3.64-41.68 4.2-8.46 12.78-24.97 8.92-37.19 7.88-18.16 10.98-40.07 2.17-59.31 6.49-3.8-13.25-12.17 6.14-20.36 7.81-12.64-0.32-22.35 14.43-35.5 6.27-8.16 9.93-25.05 8.53-36.58 14.81-7.15 0.15-7.48 12.59-15.53 7.88-12.83-3.28-24.47 5.43-35.53 10.31-21.32-1.5-41.25 9.48-61.2 16.31-3.25-1.05-6.03-4.91-9.65-2.58 0.46 2.71 4.38 6.01 0.67 7.91-11.66 7.25-28.38 13.65-34.85 24.53 60.93 26.43 122.87 51.25 181.4 82.78 53.76 21.73 106.16 46.5 160.07 67.91 26.92 11.14 51.75 28.92 81.33 32.54 4.84-0.12 1.59 5.82 2.27 8.98 4.45-0.15 9.02-0.84 13.39 0.32 32.52 10.57 64.89 21.62 98.05 30.04 57.28 22.9 117.11 37.91 173.94 62.15 38.95 12.49 75.48 30.51 113.15 46.15 11.54 0.8 22.22-4.61 32.26-9.64 36.24-8.39 73.95-8.82 110.98-6.99 70.08 17.87 139.21 39.66 209.21 57.88 65.07 18.61 128.75 41.39 192.86 62.18 23.48 4.24 44.79 19.28 58.86 38.12 8.74 18.4 23.51 33.6 27.77 54.07 1.11 10.52 13.46 10.94 21.18 13.92 32.28 8.7 61.36 25.77 93.11 35.9 21.32 9.85 45.43 11.43 66.82 21.17 14.7 9.4 32.37 11.37 48.35 17.67 18.57 9.13 37.56 17.39 56.68 25.31 68.1 37.96 140.35 79.11 179.98 149.08 5.45 24.94 30.36 43.03 24.18 70.65 3.86 24.69-6.24 52.85 8.55 74.75 4.33 47.57-5.74 96.06-0.62 143.3 4.97 55.54 3.45 112.11 6.02 168.03 1.18 23.53-13.39 46.31-35.23 54.93 3.3 25.66-25.35 42.62-47.51 40.14-1.92-4.41 3.91-8.31 1.41-13.43 13.68-27.06 35.92-49.22 49.27-76.5-21.23 21.91-34.24 52.23-53.91 76.16-4.92 2.79-5.85-4.33-3.09-7.11 17.74-28.42 39.33-55.43 53.09-85.73-10.64-1.03-11.74 9.4-17.43 15.36-17.5 27.67-34.8 55.45-53.89 82.15-3.95 3.8-7.25-3.39-4.38-6.42 13.3-20.28 27.97-39.81 40.39-60.63-0.99-3.74-6.23-0.88-7.12 1.74-14.38 19.98-32.43 38.32-42.58 60.64-3.12 2.31-8.8-0.43-6.4-4.51 13.55-26.56 38.77-46.77 51.06-73.5-18.73 3.91-25.19 28.37-37.58 40.93-9.41 13.82-26.03 25.22-28.62 42.38 10.18-3.09 18.18 8.37 28.12 4.22 5.38-0.89 21.98-6.4 18.92 3.76-18.3 4.55-37.31 7.71-56.13 5.33-4.71-1.06-5.35-5.76-4.89-9.78-42.35-2.46-84.93-6.8-126.08-17.4-10.94-3.19-6.03 14.85-15.49 16.19-6.4-1.53-13.4-5.45-19.76-2.8-2.22 5.42-0.76 16.02-10.19 13.98-16.87-3.95-32.95-11.17-48.94-17.89-10.86-3.9-2.4-17.52-5.68-25.25 1.72-12.64-11.52-15.84-21.02-17.67-11.38 9.93-10.04 26.67-16.3 39.07-8.18-0.27-18.88 4.24-25.32-2.04-0.06-16.31 6.17-32.23 10.18-47.91-20.29-10.53-44.79-12.62-63.8-26.43-11.1-6.97-26.64-6.87-34.69-18.36-1.35-2.36-6.79-3.98-7.08-0.15-2.85 14.76-8.58 29.84-20.3 39.86 5.96 7.73 20.15 10.67 21.56 20.42-13.21 0.37-20.44-16.06-34.38-13.2-17.71 4.21-35.4 9.71-52.13 16.51-10.86-5.63-25.91-13.04-31.73-22.67 11.86-5.98 20.33 13.07 32.87 8.16 11.64-2.22 25.79-2.14 34.97-10.45-8.56-7.76-16.99-16.72-27.63-21.52-16.52 3.16-32.94 7.02-49.24 11.24-15.72 2.92-36.48-7.35-40.77-21.51-11.85 3.78-24.15-5.17-31.34-13.7 0.89-12.19 16.91-0.67 22.2 4.23 12.82-2.95 25.57-6.8 38.9-7.17 2.43-0.47 13.97-0.45 9.4-5.21-9.55-7.13-19.11-15.45-30.96-18.27-20.98 1.21-40.33 13.72-61.61 12.46-6.93-4.87-16.18-8.47-19.82-16.67 0.94-5.72 7.36 0.22 10.48 1.22 15.87 12.01 36.22-1.36 52.99-4.35-4.01-6.79-16.75-8.33-23.19-14.45-21.01-2.54-42.16 11.28-63.16 5.49-5.41-2.32-15.03-7.56-11.47-14.7 16.64 13.33 37.11 3.15 54.67-0.39-2.2-6.18-15.63-6.44-20.62-11.91-18.37-4.71-36.77 3.47-54.75 6.54-7.73 4.18-16.34-2.89-19.19-9.24 4.23-7.86 14.37 4.33 20.88 0.04 8.7-4.49 24.72-1.61 29.94-9.93-23.97-25.48-62.17 5.64-90.02-11.15-6.36-9.89 12.64-9.68 17.39-4.19 11.1-3.28 23.21-2.12 33.97-6.88-4.57-7.9-14.64-11.15-22.23-15.52-17.03 6.42-35.7 5.77-53.24 10.2-6.69 0.16-22.48-8.98-11.76-13.68 16.07 0.44 34.16 0.65 48.89-3.93-8.73-8.52-20.88-16.69-32.59-21.7-11.62 9.28-27.98 3.11-40.99 9.23-8.2 3.17-26.26 1.83-24.86-10.09 17 4.49 33.48-1.66 50.38-3.41-2.08-4.71-8.79-5.24-12.61-8.25-22.28-17.18-53.49 7.89-76.38-9.25-0.2-10.04 11.95-3.1 17.53-2.12 7.66-2.5 19.95 0.59 25.68-5.23-19.67-20.61-50.79 8.9-71.96-8.43-4.63-2.98 0.16-8.91 4.22-7.17 12.33 7.71 27.87 2.69 40.9-0.6-15.41-21.01-41.15-13.36-62.4-9.16-4.74 4.09-15.58-0.15-14.47-6.42 13.4-3.11 27.52-4.13 41.13-6.79 1.63-4.64-4.29-7.5-7.93-8.52-17.38 0.85-34.08 8.98-51.67 7.28-4.65 0.03-10.84-2.88-10.68-8.24 7.05-5.72 14.74 3.97 21.99 0.04 8-3.06 17.17-2.53 24.76-6.44-0.98-7.23-11.64-11.19-18.28-10-13.56 2.41-29.5 0.91-40.13 11.18-6.03 0.04-20.36-8.58-13.37-13.79 14.67 5.82 27.77-3.7 42.17-5.69 1.06-5.78-7.63-9.29-11.45-12.43-18.31-2.16-37.75 1.99-54.03 9.81-6.29-0.45-20.86-7.32-11.29-13.38 15.43 5.93 31.15-3.12 45.67-7.34-5.87-11.47-18.06-9.95-25.78-1.58-13.25 0.81-26.41 9.23-39.65 4.78-4.25-3.57-16.75-7.72-11.08-14.71 8.11-2.27 13.26 5.76 20.37 7.28 10.45-3.38 25.37-3.92 32.77-11.69-18.09-19.3-45.85-6.96-67.73-2.46-4.97-0.93-9.79-14.49-1.41-13.32 12.36 3.31 24.86-1.01 36.9-3.73 1.09-5.25-6.89-7.15-10.25-9.41-14.33 1.05-28.71 3.11-42.68 6.54-5.38 1.1-16.72-2.52-11.56-9.57 12.42 1.08 24.11-2.66 36.36-4.29 0.39-5.06-6.9-7.14-10.9-8.35-14.72 1.88-29.38 5.38-44.15 6.81-5.86 0.01-17.48-9.23-9.47-13.25 11.43 5.43 26.33 0.61 35.9-2.98-15.73-21.07-47.01 10.09-65.33-7.97-3.27-2.79-0.52-8.92 3.77-6.87 9.64 8.08 22.32 3.6 33.19 1.31 6.94-3.18-4.05-6.29-6.44-8.74-21.71-16.49-56.59 16.73-74.9-7.11 3.9-8.81 14.86 2.92 20.97 3.1 10.02-3.38 23.1-3.5 31.69-7.8-13.84-20.58-40.55-14.46-60.89-9.05-7.45 4.01-18.9 0.6-20.79-8.14 1.59-8.27 11.91-0.99 15.33 1.98 10.49-2.93 21.16-5.17 31.72-7.8-14.1-21.73-40.17-10.33-60.36-6.08-6.34 1.83-28-11.01-13.32-13.42 13.66 12.15 29.32-0.64 44.5-1.57-4.58-8.05-13.46-13.14-21.32-17.61-16.45 2.38-31.5 11.13-48.22 12.34-3.86-5.15-18.04-6.72-12.99-14.55 16.03 4.02 33.58 6.95 48.43-3.57-2.87-9.07-13.74-14.44-21.71-18.67-7.28 15.62-29.42 5.18-41.59 13.92-7.01 4.91-20.94-8.68-12.81-12.91 14.25 10.3 29.93-2.48 45.54-1.09-0.42-5.9-6.63-11.03-12.28-12.39-13.16 6.56-28.65 1.73-42.16 7.66-8.3 4.94-17.72-3.25-19.61-10.88 5.44-6.55 11.22 7.82 17.78 4.77 15.01-6.26 31.45-5.19 47.33-6.74 30.31 13.06 54.78 36.34 82.78 53.49 73.74 57.96 160.71 95.96 235.05 152.99 65.92 37.85 125.05 87.8 195.68 117.25 42.47 23.27 82.83 50.55 125.59 73.41 18.51 13.24 40.91 19.81 58.75 34.27 20.13 9.15 41.73 16.02 59.71 29.29-29.83-26.7-67.39-48.05-104.61-62.44-26.05-7.19-12.37-43.67-31.96-56.95-11.09 7.46-13.5-13.55-21.7-17.37-131.31-79.4-261.03-161.73-394.01-238.24-15.7 1.87-31.81 8.69-47.6 3.15-59.11-38-116.94-79.77-180.44-109.58-17.03 11.92-38.99 10.16-57.31 18.75-8.64 2.15-23.55-7.68-15.97-15.99 19.03 6.67 40.15 1.29 59.75-3.2 9.79-12.28 4.76-29.96-4.43-43.14-8.84 5.96 6.65 18.33 3.46 25.23-6.57 3.53-6.61-8.5-11.29-10.14-4.11 0.21-2.04 11.43-7.38 6.42-8.24-2.61-18.71-4.64-19.05-16.22-2.09-10.95-1.78 4.64-7.62 2.72-12.92 1.08-16.6-16.64-29.33-16.2-5.34-6.8-5.98-16.31-10.33-23.75-3.11 1.43-5.79 5.89-9.64 4.6-11.82-7.75-9.79-24.82-18.64-33.93-9.01 8.32 6.77 18.67 5.55 27.77-8.44 1.58-6.26-16.34-16.72-13.4-5.5-5.52-10.07-10.06-18.14-5.6-18.48-14.84-36.64-28.69-49.07-49.24-22.71-2.41-41.41-20.88-58.8-34.99-9.37-5.9 6.19-12.39-1.31-19.7-5.1-62.62-7.2-125.84-11.06-188.78 0.81-5.07-5.19-4.4-8.38-2.56 3.08 19.56-1.87 39.2-0.15 58.77 6.69 26.73 0.6 54.5 4.7 81.56 0.85 19.46 4.27 38.97 1.8 58.46-0.31 4.75-6.83 5.12-9.87 2.8-8.57-7.35-15.27-17.19-25.12-22.86-9.98 1.17-11.53-13.96-22.3-10.89-9.17-14.19-21.88-24.01-38.97-25.96-7.24-15.42-26.45-16.1-35.56-30.92-16.46 7.57-23.02-22.58-37.84-15.66-11.27-6.39-24.34-2.93-36.55-2.4-1.13-3.48 2.97-3.86 5.09-5.34-3.38-7.34-15.53 1.03-16.84-4.2 11.89-10.59 30.06-3.04 42.27 1.31-9.7-22.45-39.39-4.71-55.43-15 4.92-6.55 24.15 2.21 28.57-4.5-1.99-18.07-15.59 7.48-23.23-3.05-2.68-8.83 11.05-7.62 15.09-11.42-0.35-8.56-10.88-0.31-14.05-6.49-4.54-5.25-19.33 4.54-16.98-6.95 1.72-9.43-6.2-11.18-12.99-9.03 1.29-16.52-18.19-7.14-22.32-20.03-5.97 2.2-17.7-5.21-10.33-10.48 10.28-4.73-16.02-12.1-8.22-3.53 3.96 10-9.06-1.45-10.61-4.71-7.78-5.56 0.98-8.05 5.36-10.33 0.6-9.14-9-15.31-16.4-18.93-10.42 9.31-26.57 1.87-25.64-11.81 9.6-4.58-0.93-16.18-8.99-12.91-5.16 2.83-14.28-5.14-6.19-7.51 9.34-1.06 0.38-15.4-5.4-13.56-3.44 8.36-13.12 3.44-19.42 1.85-3.91-10.05 9.43-6.52 13.52-10.13-7.42-7.73-11.35-17.43-13.14-27.87-8.6 2.08-8.72-6.25-4.28-11.66-10.49-39.81-22.35-78.75-34.89-117.37-3.62-45.39 3.1-91.76-4.91-136.73v-14.53c1.95-10.37 14.78-12.11 16.24-22.4 34.01-15.6 70.05-26.57 103.52-43.58 13.6-0.54 17.06-16.28 29.79-18.23 23.66-8.7 49.44-6.87 73.64-13.36 49.34-8.88 99.16-15.23 148.76-22.21 7.85-1.74 18.86 3 24.17-5.13 13.93-3.78 28.69-5.14 43.11-6.63 61.4-2.14 121.88-18.63 183.25-16.97 28.33-4.12 57.01-2.55 85.6-7.15 47.02-7.81 94.88-0.91 142.07-6.01 36.37-1.54 72.73-5.53 109.11-5.63 10.8-11.36 28.87-8.82 43.05-10.05 39.44-4.48 79.3-3.28 118.75-7.11m83.56 5.18c-22.37 4.79-46.24-1.81-67.95 5.62 4.7 5.03 14.39 0.4 20.7 1.36 21.12-3.26 42.78-2.04 63.69-6.62-3.78-3.03-11.59 0.32-16.44-0.36m-108.08 5.22c-31.2 0.83-62.36 5.53-93.7 7.26-11.81 3.31-24.47-3.77-35.64 2.28-0.51 2.65 2.99 3.72 4.91 4.71 12.88-5.39 26 6.25 39.38-0.35 37.4-10.9 75.81-3.34 113.67-11.28-9-4.68-19-2.45-28.62-2.62m-205.82 16.92c-34.82 2.3-69.49 8.87-104.49 6.38-29.8 3.88-61.67-3.68-90.32 6.15 1.71 11.07 15.18 3.03 22.21 3.92 20.72 4.12 40.51-9.27 61.07-4.48 50.22-0.27 100.18-4.72 150.05-10.52-11.44-5.06-26.05-0.14-38.52-1.45m54.88 11.02c-38.84 1.47-77.7 2.68-116.11 8.96-39.11 2.73-78.47 0.81-117.12 7.83-3.56 1.58-10.92 1-10.18 6.51 2.36 19.51-0.96 39.59 3.92 58.85 6.2 5.41 15.36 0.79 21.45-2.61 21.35-3.18 43.04-2.81 64.38-6.05 5.41-2.11 7.28 2.59 9.52 5.92 28.1-0.37 55.96-4.21 83.85-7.38 3.78-0.23 4.23-4.99 6.56-7.23 19.54-1.92 39.09-4.39 58.38-8.17 5.66-3.36 6.43 6.06 11.21 4.6 4.84-6.24 14.08-11.58 9.81-20.86-5.81-12.92 2-26.17-0.68-39.36-8.12-1.89-16.74-1.44-24.99-1.01m-321.74 3.89c-22.09 5.19-45.46 4.89-68.15 6.12-32.5 5.34-65.15 8.98-97.88 12.31-7.58 0.58-24.31-3.88-27.54 3.82 10.62-0.56 14.42 8.89 19.04 16.18 69.46-11.64 142.32-13.96 210.32-27.69-5-13.84-23.88-10.94-35.79-10.74m356.34 8.61c-0.99 6.29-1.92 16.52 2.9 20.93-0.48-6.03 2.96-17.89-2.9-20.93m-332.45 11.47c-64.95 11.81-131.86 15.41-196.6 25.79 1.82 21.14 5.05 42.1 2.9 63.48 23.46-1.71 46.28-10.14 69.83-6.11 25.89-8.4 53.45-9.13 80.44-11.19 21.38-9.07 47.72-2.22 69.11-12.28 2.52-19.03 1.99-39.44-3.8-57.99-7.51 1.22-14.54-2.46-21.88-1.7m-265.61 9.92c-75.59 6.16-150.21 22.4-225.01 33.34-8.89 4.73 5.01 4.44 7.96 3.24 32.4-4.43 64.68 8.98 96.4 0.38 51.45-10.03 103.24-18.2 154.99-26.01-3.88-10.18-23.2-12.13-34.34-10.95m50.03 4.37c12.21 21.9 5.37 49.87 9.81 72.05 6.48-15.8 1.51-37.31-1.27-54.56-3.05-5.63-0.97-16.34-8.54-17.49m-16.54 15.65c-32.47 0.45-63.18 12.46-95.52 13.46-25.48 7.41-52.9 9.26-78.01 16.18-0.7 26.93-3.45 56.96 6.36 82.45-6.73 12.03 10.49 11.07 13.55 3.24 3.29-12.35 18.37-13.39 28.49-17.44 29.13-2.92 57.89-21.83 86.52-16.14 13.1-14.08 35.78-11.45 50.82-21.61 1.53-18.72 2.35-38.58 0.49-57.77-0.6-5.94-9.03-1.53-12.7-2.37m-222.15 24.01c-16.31 3.6-34.12-2.53-49.68 5.4-33.96 2.73-60.07 29.76-93.32 35.32-3.83 2.47-11.69 3.35-12.25 7.56 23.95-2.16 48.3-3.34 72.19-0.19 10.54 1.06 20.35 11.21 30.84 4.66 29.79-9.61 57.03-24.96 85.62-37.42 6.14-0.46 4.73-9.2 0.12-10.96-10.58-4.39-22.39-3.51-33.52-4.37m36.02 22.83c-27.57 13.77-56.09 26.32-84.47 37.72 5.24 9.9 13.24 15.51 23.52 10.01 12.1 10.35 0.24 27.78 10.29 39.07 2.96 4.02 7.11 10.46 13.13 6.82 14.6-4.39 28.99-9.84 42.91-16.03 6.09-9.2-3.8-20.84 0.54-30.6 4.64-8.55-6.14-17.56 0.19-25.9-1.38-5.78 2.33-21.93-6.11-21.09m-154.9 30.23c-6.93 2.69-27.32-3.14-21.21 9.85 14.88 26.03 28.32 53.18 45.94 77.35 16.4 3.59 33.34-2.92 49.99-3.17 6.21-1.91-0.85-8.41-2.63-11.32-20-21.92-35.26-47.43-53.5-70.71-6.02-1.57-12.33-3.07-18.59-2m31.79 2.53c-3.23 1.32 3.18 5.43 3.47 7.14 15.64 22.49 30.45 45.67 48.83 66.01 3.84 12.36 20.06 7.34 27.83 7.17-10.82-21.26-25.53-41.18-38.79-61.17-14.39-5.45-25.16-18.95-41.34-19.15m-76.65 1.36c-6.79 1.24-13.86 3.32-18.9 8.28-2.04 10.55 6.54 17.83 9.2 27.21 10.24 22.47 13.78 48.17 29.08 68.02 11.1-9.72 25.87-12.56 38.44-18.47-8.27-23.78-24.7-44.23-36.45-66.58-8.26-6.54-6.05-25.57-21.37-18.46m-16.63 48.57c1.88 14.89-2.93 30.26-0.41 44.77 13.9 8.87 7.37 27.62 7.29 40.84 3.45 8.88-12.07 7.8-7.44 16.82 5.1 35.96 19.99 69.56 28.4 104.63 1.89 5.96 3.68-4.75 3.55-5.86 1.62-42.37-1.04-84.68-1.96-126.89 4.97-13.93-9.18-24.15-11.92-36.9-6.42-11.89-8.74-27.98-17.51-37.41m140.32 38.64c-10.4 2.68-25.67 0.9-33.38 7.07 27.66 14.96 55.65 29.59 85.05 41.2 62.24 34.02 128.67 62.52 191.21 96.77 40.38 14.27 76.15 39.18 116.96 52.12 24.66-4.48 52.63-8.52 74.78-16.71-86.25-45.73-180.64-76.2-267.54-121.84-41.52-18.44-84.9-34.42-125.77-55-13.23-4.71-27.5-4.26-41.31-3.61m-71.87 7.78c-23.53 2.89-40.96 34.66-26.19 54.31 114.84 70.99 231.57 138.96 347.18 208.79 8.15 5.15 7.84-11.28 10.68-15.35 8.51-29.38 41.01-35.41 65.13-47 2.22-1.77-1.24-3.24-2.75-3.8-39.33-21.67-79.18-41.87-118.66-63.32-67.95-36.36-139.07-65.62-206.43-102.59-24.17-7.5-44.18-26.99-68.96-31.04m-25.29 65.77c-2.13 2.03 0.13 6.83 0.59 9.63 83.72 59.59 171.01 114.58 260.31 165.98 35.68 24.13 71.21 48.12 108.81 69.23 7.56-24.14-0.32-50.72 9-75.03-14.25 6.73-18.02 26.97-17.62 41.16-3.25 4.81-7.72-0.92-9.71-3.87-52.99-25.82-100.98-61.76-152.48-90.45-67.29-36.91-131.13-81.7-198.9-116.65m-4.02 19.12c0.95 8.48-2 17.09 0.48 25.42 6 4.17 11.69 8.96 18.23 12.29 4.02-4.23 2.09-10.88 3.71-16 1.82-2.13 6.79-4.85 3.02-7.63-7.95-5.16-15.38-14.08-25.44-14.08m35.96 22.63c0.96 4.52 2.69 9.84-0.07 14.02-6.51 7.96 2.42 20.73 11.45 20.85 5.59-5.23 0.58-15.92 6.93-20.75 6.13-1.27 7.09 7.39 9.38 11.09 6.21 9.82-8.6 25.59 8.19 27.9 3.46-8.15 2.98-18.06 6.6-25.81-13.39-9.76-27.02-20.94-42.48-27.3m-35.94 22.31c-0.87 23.78-1.58 47.94 1.87 71.54 8.19 18.6 27.12 29.46 42.63 41.42 43.64 39.62 96.04 67.64 142.58 103.3 13.06 7.42 3.89 25.36 8.95 35.96 4.59 0.66 6.57 3.7 5.04 8.08 9.76 7.32 17.3 18.94 28.67 23.45 7.18-5.82-4-23.45 6.34-28.1 12.49 2.87 20.55 14.86 30.71 22.02 21.13 21.48 50.23 34.53 69.23 57.82 4.21 15.43 12.58 31.96 28.77 36.87-0.5-57.85-3.34-115.8-5.06-173.7 7.07-9.29-13.62-34.6-15.05-16.95 4.52 39.29 0.71 78.82-2.82 118.02 0.07 10.26 1.83 23.36-2.13 32.09-6.1-9.82-3.7-25.56-5.52-37.93-1.15-15.61 7.3-33.17-2.84-46.75-80.99-65.04-164.83-126.42-247.03-189.98-30.03-15.93-55.09-41.92-84.34-57.12m90.04 15.04c-0.27 6.03 4.38 12.04 0.89 17.89-6.27 11.93 6.74 26.22 18.46 25.23 1.8-9.29-3.47-21.96 6.46-27.71-6.57-6.43-16.56-13.66-25.81-15.41m260.79 3.59c11.29 10.77 28.36 13.34 41.74 21.26-11.71-10.06-27.48-15.22-41.74-21.26m-225.31 17.93c-3.12 11.77 2.41 23.84 0.37 35.71 15.2 10.79 29.16 24.93 46.64 31.46 5.79-11.12-1.55-24.82 2.1-36.73-15.9-10.67-31.84-21.9-49.11-30.44m292.13 15.14c8.1 6.21 18.19 10.84 27.88 14-4.41-9.04-19.91-7.98-27.88-14m110.72 4.54c-8.23 1.37-16.73 1.29-24.79 3.61 8.97 1.61 20.22-1.12 29.7-2.74 5.09-1.69-4.86-2.12-4.91-0.87m42.73 2.04c-18.09 3.91-39.13 4.22-55.05 11.26 52.96 24.87 110.79 39.58 164.79 63.09 29.55 8.51 55.92 24.56 85.22 33.76 47.93 24.13 99.52 39.55 147.63 63.11 13.41-11.36 24.16-26.42 41.17-32.82-25.24-14.56-53.69-23.99-80.74-35.37-98.47-40.81-201.62-71.85-303.03-103.03m-86.93 16.87c-29.09 8.13-62.19 8.95-86.71 28.21-17.5 19.43-9.38 48.31-14.29 71.83 3.91 66.31 7.34 132.97 11.39 199.17 15.51 13.68 31.96 26.32 50.49 36.26 5.75-0.24 2.15-11.06 8.93-11.78 9.95-5.51 20.87 0.88 29.11 6.54 23.98 22.82 53.9 37.74 82.84 53.16 32.94 21.35 66.71 41.37 100.53 61.43 6 2.06-2.13 16.09 5.26 12.53 9.58-4.71 13.17 18.64 0.65 13.77-0.32-4.7-4.06-15.98-5.6-6.37 3.1 18.45 28.31 21.12 41.86 30.91 40.11 18.76 75.16 47.67 114.32 68.72 35.48 14.73 64.49 40.86 98.26 58.73 117.05 68.85 229.69 145.82 348.62 211.45 9.02-6.31 5.58-22.96 14.56-30.47 6.96-6.77-6.64-9.88-10.49-13.67-16.52-13.89-36.04-23.47-55.5-32.48-28.28-13.4-53.58-32.66-83.47-42.5-43.5-28.92-91.24-50.85-134.19-80.86-39.87-22.66-81.27-42.71-119.01-69.01-49.76-25.97-98.22-54.33-148.08-79.92-8.25-4.76-2 8.7-8.92 8.81-3.17-0.81-5.17-4.23-7.93-5.88-10.69 9.47-15.57-13.33-24.13-14.09-8.05 3.53-11.35-7-8.17-12.79-2.31-2.9-4.08-8.67 1.29-9.2 44.78 18.15 86.52 43.54 128.45 67.6 63.07 32.9 122.6 71.9 185.42 105.53 43.73 30.11 92.54 52.15 137.03 81.03 29.29 9.24 54.82 26.4 82.1 39.86 15.26 10.36 33.54 15.21 47.74 27.25 9.94 12.32 27.69 8.91 39.32 18.72 17.28 13.74 39.69 18.31 56.66 32.36 30.9 12.19 58.15 32.53 90.11 41.84 6.56 2.17 16.93 10.43 22.06 4.05-28.83-22.64-66.04-31.73-98.2-48.92-31.4-12.9-62.31-28.16-91.52-44.74 4.04-10.35 18.91 5.82 27.11 4.04-10.29-7.27-22.44-11.26-33.45-17.35-3.41-2.27-11.57-3.18-9.59-9.02 19.68 0.52 36.34 13.16 52.51 23.06 23.84 8.09 44.6 22.93 68.06 31.9 27.78 11.7 55.01 24.28 82.53 36.59 2.96 0.67 1.49-4.08-0.56-4.46-45.44-29.09-96.04-48.12-144.35-71.71-23.17-13.22-49.64-20.98-69.53-39.56-2.26-1.88-3.04-7.09 1.02-7.06 34.82 17.72 67.7 40.81 104.9 54.22 31.71 11.9 62.27 32.18 93.93 40.3-31.76-15.17-62.19-33.53-94.68-47.57-34.96-24.05-76.88-35.32-112.01-59-10.88-6.27-23.84-9.24-32.93-18.29-0.92-6.28 8.26-3.1 11.67-1.52 77.01 41.57 155.5 80.16 234.43 117.88 6.62 5.13 12.63-4.48 4.63-6.95-70.03-36.7-140.52-72.03-212.04-105.88-29.86-12.34-60.23-24.14-87.88-41.06-3.18-1.92-10.94-9.23-3.32-8.87 30.73 13.13 60.48 28.57 91.8 40.35 23.28 10.44 45.22 24.3 69.37 32.59-19.3-15.51-45.4-24.47-66.47-37.57-83.78-38.52-166.96-80.61-249.49-122.44-38.7-26.45-83.72-41.28-122.63-67.36-34.1-14.67-65.26-35.62-98.2-52.81-59.93-32.95-122.96-60.06-180.1-97.9-54.8-29.75-109.09-61.95-166.9-84.81-1.13 13.59-0.3 29.37-0.5 43.85-2.82 4.48-10.21 9.81-14.63 4.03-6.55-9.29-21.93-11.56-25.62-21.78 8.54-5.84 18.41 9.36 27.51 10.53 3.44-20.03-0.31-41.21-4.48-60.81 1.67-37.89-7.29-75.35-7.4-113.17-6.85-7.73-16.73-12.19-26.08-16.26-1.29-10.33 11.37-6.37 16.14-2.61 5.04 5.98 14.32 6.84 18.46 13.47-3.35 35.46 6.72 71.1 7.33 106.78-1.84 16.59 18.69 16.85 28.49 24.5 30.23 13.72 57.32 33.98 89.3 43.64 39.65 25.03 82.95 43.1 123.6 66.42 43.21 17.82 81.36 46.16 124.76 63.31-12.74-12.04-36.98-20.41-30.92-42.9 4.08-22.55-9.19-51.22 3.59-69.87-31.23-18.42-64.2-33.51-96.63-49.46-12.31-3.46 9.65 8.37-0.47 13.55-2.49 23.64 3.74 48.99 4.69 72.68-13.77 6.28-26.76-9.73-40.24-11.97 0.57-22.5-1.44-46.23-1.99-69.1-0.26-6.69 0.09-19.96 10.13-18.81-26.37-16.6-55.2-29.74-82.7-44.71-26.05-6.99-47.04-25.3-72.81-33.12-19.13-7.42-36.11-19.57-56.18-24.69-7.05-10.43-1.01-25.33-3.93-36.8-10.25-7.25-23.7-9.34-33.25-17.41-2.83-5.87 12.38-2.68 2.97-7.55-6.94-1.76-1.76-9.5 2.77-5.97 14.35 6.41 37.84 9.64 39.81 27.2 21.04 13.14 44.63 22.42 68.29 29.69 43.64 23.95 91.23 40.21 134.99 64.14 9.72 0.86 17.78 11.66 27.66 7.04 7.45 15.01 27.45 15.58 39.57 25.73 46.74 18.74 88.67 47.85 136.88 63 47.29 20.1 93.38 43.61 142.05 59.99 96.41 38.7 186.59 90.44 280.65 134.33 16.91 7.4 30.34 21.93 49.2 24.77 50.01 20.29 96.57 49.88 149.01 63.99 6-2.49 6.92-15.83-0.79-18.26-38.8-15.86-75.22-36.42-113.44-53.49-120.32-61.02-245.4-112.56-367.56-169.42-52.37-13.66-97.69-45.63-148.94-61.99-19.92-5.93-35.78-20.03-55.43-26.64-65.92-32.69-136.1-55.96-199.65-93.38-14.52-5.97-29.17-11.72-43.23-18.78-12.02-4.75-25.5-8.93-32.42-20.76-0.04-9.38-0.1-19.21 5.39-27.3-8.46-10.39-4.24 18.9-15.23 13.5-4.71-5.7-0.35-14.81 5.33-18.37-2.93-2.34-8.9-6.7-3.57-9.94 9.13-0.19 18.49 2.71 26.11 7.69 0.06 11.84-16.37 24.69-5.17 35.9 45.73 24.15 92.92 45.82 139.59 68.29 64.91 26.8 129.75 54.21 191.18 87.95 54.24 15.56 100.98 48.86 154.87 64.97 89.97 38.74 179.24 78.89 268.14 119.88 66.74 28.01 128.59 66.54 195.94 93.09 10.46 4.71 6.3-13.01 9.75-17.97 6.28-44.58 40.59-78.12 78.48-98.73-26.2-11.95-54.82-19.23-80.08-33.53-27.4-11.94-55.79-21.41-82.76-34.16-41.09 12.77-76.5 41.42-107.7 70.57-22.73 10.32-53.58-24.76-34.9-43.96-6.02-3.38-10.28-10.1-7.79-17.84 0.34-34.14 15.48-68.45 40.98-91.1 23.81-15.85 48.26-35.41 78.15-35.9 18.07-2.86-3.71-10.3-10.38-12-22.32 15.98-53.45 22.18-74.33 42.5-20.3 3.36-38.32-11.62-57.89-15.43-5.88-9.83 8.26-17.85 13-24.42-12.02 2.75-18.24 18.19-32.07 15.58-9.51-3.53-19.02-7.4-27.83-12.4-6.86-2.45-19.23-0.46-17.19-11.4-10.64 3.1-21.03-0.11-31.77-2.59 9.36 0.79 8.07 15.87 16.52 11.23 16.55 2.54 31.87 10.71 48.11 14.95 11.87 6.26 0.28 16.84-2.39 24.74 7.1-2.46 9.24-11.72 15.46-15.1 15.47 0.3 29.43 8.67 43.9 13.65 5.33 3.13 16.99 5.05 13.93 13.6-19.31 25.3-29.4 56.5-34.02 87.71 3.61 10.81 4.68 22.71 1.53 33.76-4.47 5.55-13.2 3.33-18.51-0.04-12.9-9-29.35-9.58-41.89-19.2-24.65-4.57-43.94-21.33-68.31-26.35-34.88-15.86-68.38-34.46-104.25-47.95-40.56-9.63-74.56-35.44-114.38-47.32-16.5-15.53-10.46-40.83-3.68-59.63-15.58 4.36-28.88 22.36-23.01 38.93 3.86 6.53-7.48 13.19-9.86 5.85-7.35-25.52 14.02-50.04 38.01-54.81 1.91-9.52 19.93-23.88 5.2-29.32-40.9-18.18-81.92-36.55-121.25-57.73-33.61-10.7-63.4-30.17-97.5-39.44-44.58-16.27-89.41-31.32-134.37-46.74-18.92-5.82-34.98-20.36-54.67-23.42m-292.08 3.76c-3.19 11.97 3.21 24.64 0.89 36.91-2.56 6.32 11.9 17.83 11.78 6.55 3.48-9.69-7.34-29.21 6.1-32.58-5.77-4.26-11.54-10-18.77-10.88m355.22 14.39c6.61 3.62 19.42 11.39 29.73 10.88-8.03-7.01-19.36-9.74-29.73-10.88m-329.43 1.62c5.66 16.98-8.59 51.39 17.66 53.49 1.61-12.57-1.01-26.12 5.06-37.77-6.21-6-13.47-14.89-22.72-15.72m35.22 23.07c1.23 16.06-0.77 33.49 4.39 49.81 15.35 11.52 30.19 24.89 46.25 34.78 4.06-12.08-1.52-28.67 1.58-41.98 5.55-7.93 17.52 1.79 16.97 9.67 1.7 16.72 1.86 33.64 4.32 50.25 2.86 2.49 9.54 9.62 11.17 2.86 1.13-18.65 0.87-37.9-2.08-56.39-28.15-14.94-52.77-38.58-82.6-49m814.29 62.32c-10.52 1.24-21.89-1.48-31.65 3.51 0.34 2.17 3.54 2.65 5.3 3.66 50.36 18.75 102.06 34.23 152.9 52.05 66.67 24.17 135.14 43.56 200.18 71.99 23.35-1.16 46.46-5.85 69.83-7.55 1.53-0.84 9.01-0.16 7.62-3.98-14.63-7.09-33.49-7.8-44.8-20.45-23.07-8.41-48.58-13.12-70.45-24.39-2.64-12.21-17.09 0.31-24.84-5.11-19.84-9.11-43.2-8.72-61.89-20.15-3.59-13.42-20.07-2.84-29.45-6.51-15.26-6.02-36.29-4.59-46.1-19.15-17.57 3.11-35.24-3.02-51.35-9.7-26.33-1.43-47.78-21.86-75.3-14.22m-626.26 4.43c-2.78 6.99 0.21 15.49 0.78 22.72 18.11 6.85 38.15 9.02 53.91 21.21 53.68 21.7 103 53.03 153.94 80.05 83.66 48.44 176.34 78.31 261.64 123.33 100.1 43.01 197.86 92.65 295.89 141.17 57.7 23.82 111 56.89 169.79 78.17 59.7 32.75 121.09 62.35 184.44 87.57 69.13 32.59 140.4 62.19 214.99 80.14 42.03 3.15 83.25 14.52 125.64 13.34 36.46-3.52 72.93-5.45 108.6-13.61 23.71-10.71 51.96-12.83 72.17-30.45 1.26-13.48 2.76-27.75-0.31-41.25-14.26 5.56-29.85 13.04-43.07 22.43-61.04 17.96-125.29 12.52-187.73 8.36-56.29 1.66-109.25-23.58-163.09-34.14-23.84-11.14-49.95-14.85-73.74-26.31-34.32-10-64.7-30.49-98.77-40.23-41.45-20.61-86.33-33.24-126.54-56.47-38.7-19.33-81.17-29.94-117.87-53.09-47.5-24.5-93.96-51.22-142.58-73.42-55.63-24.35-109.74-53.03-167.82-71.21-25.26-14.85-54.06-22.15-79.6-36.39-24.26-13-51.58-18.9-75.56-32.4-67.36-33.92-135.39-67.27-203.91-99.12-54.23-22.65-105.55-51.91-161.2-70.4m543.06 18.3c-9.41 3.42-22.14 7.27-25.26 17.31 7.38 3.6 24.22 12.2 24.85-0.39 4.88 2.24 9.99 1.75 12.92-3.73 1.37-5.36-7.78-2.85-7.74-7.95 0.85-3.41-1.48-6.79-4.77-5.24m-31.93 5.03c-6.6 3.72-14.33 7.24-17.55 14.57 5.28 3.77 15.64 6.72 12.54-4.08-0.49-4.52 13.49-11.49 5.01-10.49m70.04 6.12c-17.85 2.47-31.07 19.19-43.76 25.94 0.62 4.01 1.38 9.55 6.3 6.56 10.92-5.16 19.43 6.9 29.89 4.45-6.57-3.49-15.89-2.72-18.65-11.12-0.05-13.66 23.33-16.37 26.22-25.83m15.89 4.05c-4.89-1.2-10.82 6.49-4.52 8.3 5.55-5.84 13.04 2.57 18.06-4.14-0.58-5.16-9.85-3.28-13.54-4.16m65.86-0.66c0.1 2.72 0.37 5.12 0.92 7.9 17.75-2.39 34.28 7.68 51.07 11.74 3.38 10.83 16.39 4.86 24.96 8.54-13.17-12.21-34.45-10.71-49.42-19.97-8.76-3.84-17.81-7.88-27.53-8.21m-79.89 8.52c-5.69 3.53-17.2 5.52-16.15 14.11 11.24 5.18 23.39 10.2 35.99 9.13 0.64-3.56-0.94-8.17-0.76-12.21-4.53-1.12-6.86 5.32-11.22 5.45-6.22-2.82-5.63-12.9-7.86-16.48m-82.13 9.73c-7.44 11.79-24.37 23.66-16.69 39.09 4.62 2.22-0.08-13.5 7.56-8.37 8.08 3.97 5.48-16.79 15.53-9.77-3.64 7.34-4.08 16.84-5.84 25.46-9.01 0.84-5.91 11.3-11.94 14.46-10.85-1.57-8.49-16.79-11.71-23.04-3.55 10.2-11.25 20.69-8.11 31.71 8.33 4.99 19.26 13.81 28.74 12.25 5.26-21.64 8.55-45.67 23.59-63.56 10.42-11.81-13.11-14.79-21.13-18.23m145.05 9.25c-7.13 4-20.23 6.87-21.02 16.1 9.97 3.86 25.98 15.17 34.21 3.76 4.57-9.11-8.7-3.82-8.84-11.11-1.52-2.47-0.06-9.48-4.35-8.75m-178.9 5.9c-17.65 21.87-30.28 53.58-18.49 80.87 36.33 17.44 72.37 36.68 110.85 49.04 41.39 19.26 84.07 35.65 126.53 52.5 31.81 12.8 62.59 28.53 94.77 39.97 3.67-7.59 2.15-19.48 0.79-28.4-16.25-9.42-33.26-17.85-51.07-23.88-3.21-1.87-2.24-7.69-4.82-8.96 0.37 4.6-1.76 10.97-7.53 9.41-13.35-12.52-32.04-17.22-48.79-23.55-1.49-2.68-0.94-6.41-3.4-8.46-5.24 10.69-15.36 0.5-22.51-1.58-10-6.2-25.55-6.5-30.98-18.07-14.8 7.15-27.34-10.79-41.84-12.09-8.23 0.7-9.88-10.18-17.69-5.19-13.93-11.85-49.39-10.96-40.53-37.1 1.37-20.07 8-38.77 16.37-56.81-7.82 7.48-12.47 17.87-14.7 28.35-3.94 12.77-10 28-3.33 40.79 0 3.41-5.38 5.16-7.61 2.52-15.27-9.66-38.28-9.8-48.13-26.04 2.93-17.24 9.14-37.62 12.11-53.32m298.36 3.21c3.99 0.47 15.83 11.08 21.04 6.67-5.89-3.05-13.78-7.29-21.04-6.67m-177.59 0.77c-1.66 6.85 14.29 8.68 20.63 9.91-0.77-8.78-14.19-5.76-20.63-9.91m-36.5 1.15c-0.46 10.67-11.87 17.35-11.56 28.16 6.43 8.22 6.25-10.27 13.97-4.95 4.76 2.69 4.12 14.01 11.14 11.74 5.17-8.75 9.86-17.97 15.79-26.35-7.8-5.95-19.45-8.67-29.34-8.6m163 0.07c-13.58 6.18-29.57 13.15-37.61 26.36 12.63 7.41 33.77 17.82 44.75 2.7 2.03-10.28-19.02-0.75-12.25-13.54 0.91-4.27 17.93-18.13 5.11-15.52m-35.15 6.93c-12.65 2.89-18.95 21.29-33.53 16.78 1.39 9.12 15.32 9.84 20.43 10.46-12.24-10.77 17.8-22.33 13.1-27.24m-77.12 9.76c-8.13 13.45-22.79 31.39-8.17 45.91 6.17-2.32 1.03-17.65 11.12-14.71 3.61 2.95 8.29 5.66 10.54 9.65-1.93 5.94-8.25-0.98-11.3 0.71-1.27 5.6-0.5 20.56-9.55 17.24-5.94-7.62-7.22 7.51-15.19 4.74-9.73 17.23 11.76 22.32 23.69 25.46 11.74-25.22 11.37-56.28 33.51-76.29-8.3-8.81-22.87-10.52-34.65-12.71m181.28 0.4c-8.8 4.42-27.03 3.55-19.07 18.74 6.36 1.53 4.56-16.03 13.43-11.43 6.04 4.57 16-8.2 5.64-7.31m-24.89 10.67c-7.54 4.86-19.96 8.87-21.59 18.26 9.84 7.26 23.75 6.9 34.81 12.21 5.93-2.09 17.01-12.83 7.22-17.83-7.88-7.09-6.35 10.33-13.86 9.04-6.47-5.18-0.3-17.82-6.58-21.68m-205.5 7.07c-3.64 5.95-12.94 7.67-11.92 15.97-0.41 5.8-7.68 2.77-11.33 1.74-2.83 6.37-2.07 13.94-3.87 20.75 6.29 6.2 15.5 8.6 23.79 11.08 2.24-15.21 19.9-38.25 3.33-49.54m104.96 5.93c-6.28 11.19-14.91 24.74-17.96 38.38 4.52 2.2 5.46 10.42 11.2 9.2 8.41-7.89-0.42-25.51 7.46-30.87 3.66 6.18 2.96 19.81 13.77 20.77 6.25-7.18 9.94-16.87 15.27-24.71-6.75-7.65-19.94-9.6-29.74-12.77m189.19 1.23c-17.42 2.46-34.46 10.1-47.44 21.99-4.45 9.83 9.62 9.83 15.51 13.19 12.4 4.3-0.25-18.76 11.28-16.19 6.58-6.93 14.14-13.09 22.98-16.92 0.7-2.17-0.32-2.85-2.33-2.07m196.86 12.98c-6.72 1.18-14.36-1.04-20.36 2.74 1.08 4.78 8.93 3.93 12.34 6.56 3.54 18.56 19.29 33.35 19.52 52.99 0.01 4.21-4.54 5.73-8 4.67-21.9 1.69-43.39 6.31-65.35 8.01-7.3-0.41-16.51 7.09-22.85 0.79 0.15-18.83-7.23-36.53-13.99-53.74-2.83-3.86 7.84-7.93 2.22-9.42-6.36 1.38-12.82 2.8-18.98 4.89 16.46 12.46 13.17 36.32 22.06 53.28 4.43 9.27-8.74 12.19-14.78 14.9-28.95 14.57-59.6 25.6-90.7 34.33-4.64 2.96-11.84 3.58-13.26-3.08-0.37-18.55 5.46-36.68 10.97-54.23-17.77 19.06-29.03 47.9-24.54 74.35 38.49-8.27 74.6-27.21 111.6-41.29 42.99-9.44 85.86-22.57 130.19-22.48 6.27-22.6-11.86-43.34-13.88-64.79 5.84-4.55 9.56-10.11-2.21-8.48m-330.9 9.84c-2.26 10.89-12.46 18.49-15.85 29.29-1.08 10.88 15.58 18.79 7.28 26.21-7.65-3.33-8.1 8.7-16.41 4.74-7.82 17.64 15.89 25.94 28.21 26.09 5.67-25.92 15.66-50.93 31.35-72.59-9.04-8.35-22.68-11.77-34.58-13.74m192.99 9.09c-6.67 2.02-15.05 5.92-18.94 10.57 8.83-1.64 17.01-7.46 26.47-8.06-0.18-3.22-5.12-2.63-7.53-2.51m-699.03 4.88c-2.82 18.04 0.92 36.36 0.74 54.54-2.37 11.46 12.56 15.25 20.16 15.56 3.06-18.2-2.13-37.83-2.06-56.55 2-10.61-11.12-13.51-18.84-13.55m453.89 0.83c-3.12 12.81-13.97 16.78-23.18 22.62-7.91-5.45-9.16 9.81-6.7 14.86 7.58 3.82 16.19 8.82 24.76 7.84 6.04-12.74 7.74-27.42 14.35-40.01 2.08-5.19-6.04-4.25-9.23-5.31m454.55 4.61c-7.9 5.21-16.78 5.02-24.79 8.95 10.05 9.55-9.32 7.35-15.27 8.94 0.18 5.43-9.65 12.41-0.91 15.7 19.05 1.11 38.5-1.54 57.74-1.33-0.65-11.85-9.14-24.83-16.77-32.26m-335.35 6.44c-5.07 11.79-32.77 23.87-18.88 38.45 6.58 1.41 9.55-8.82 16.59-6.56 3.71 5.09 10.48 10.47 11.52 16.67-5.33 7.18-8.56-6.43-13.61-6.68-5.95 3.22-10.14 8.86-14 14.12-8.8 3.72-5.02-12.96-10.78-13.04-3.02 9.19-9.12 19.78-4.74 29.17 11.3 5.02 23.54 14.52 35.62 15.1 7.11-26.06 18.65-51.26 30.77-75.18-9.49-4.35-21.52-9.53-32.49-12.05m257.82 3.13c-3.8 14.46-14.67-1.63-22.98 3.85-6.33 9.54 16.03 1.33 11.8 11.03-17.63 3.73-44.22 17.91-56.06-3.55-12.39-4.32-4.85 13.13-1.04 16.75 25.4 1.11 50.49-5.75 75.8-6.64 2.99-6.19-2.55-17.87-7.52-21.44m-181.82 25.14c-9.64 11.97-15.47 28.4-14.25 44.01-0.04 1.96 2.33 1.48 3.6 1.39 33.37-6.31 65.49-18.93 95.32-34.58 2.68-8.23-8.8-5.97-13.46-4.62-26.41-4.58-46.93 23.16-72.34 14.63-2.31-6.22 1.87-16.65 1.13-20.83m180.91 18.08c-35.48 5.31-71.12 11.92-105.8 22.02-34.74 17.08-72.54 28.19-107.58 43.34 11.06 2.93 6.66 21.08 18.79 22.29 4.96 3.27-7.18 6.09-2.44 8.69 8.55-0.56-4.86 13.06 5.13 7.85 25.85-20.26 49.46-44.69 81.17-56.02 40.87-23.07 85.68-37.58 131.53-46.72-5.98-2.74-14.07-1.25-20.8-1.45m-1078.2 0.6c7.12 14.38 27.58 19.53 40.41 28.03-10.26-11.45-24.83-23.91-40.41-28.03m380.79 3.16c-0.51 22.64-6.69 45.8-0.45 68.12 5.74 8.78 17.22 16.84 27.65 17.19 4.6-23.42 3.23-48.49-0.59-72.01-6.94-6.83-17.29-10.99-26.61-13.3m32.87 1.97c3.75 10.59 3.16 28.93 4.62 42.04-0.8 17.5 4.84 36.39-3.62 52.81-1.57 2.28-10.32 4.11-4.45 6.54 78.51 40.56 156.03 82.27 233.66 124.31 48.18 21.62 96.09 43.87 141.96 70.01 68.22 33.14 134.77 69.64 201.43 105.62 21.64 7.21 46.8 13.44 61.77 31.26 36.81 17.99 73.88 35.99 113.39 47.49 25.11 10.27 49.54 22.16 74.68 32.38 42.07 14.86 81.36 38.87 126.81 42.15 47.78 17.59 98.4 24.99 149.1 26.95 19.13-11.53 34.17-31.36 53.42-41.33-7.06 16.98-28.67 24.83-39.52 39.96-0.18 3.03 4.89 2.65 7.09 2.19 15.92-7.38 23.51-26.33 40.49-31.73 3.47-32.1 6.74-64.91 1.68-97.4-24.31 0.78-49.3 9.88-73.43 4.53-9.3-1.16-9.6-10.65-13.99-16.34-58.35-5.85-116.62-14.23-173.63-27.49 13.43 32.83 2.55 72.51 5.11 107.99-12.09 17.72-31.22-4.39-45.38-8.18-13.4-9.67-36.94-5.23-42.64-23.62-0.77-17.52-2.58-35.07-2.1-52.62-2.19-16.28-5.31-35.48 6.97-48.37 4.93-2.45 10.53-0.01 15.6 0.83-7.19-5.31-16.8-8.27-25.2-11.93-33.03-9.37-61.88-28.88-93.67-41.31-54.39-22.32-106.88-48.85-158.93-76.08-31.54-12.94-64.19-23.55-93.25-41.76-63.63-35.05-132.37-59.93-195.08-96.89-62.7-31.58-126.74-60.27-192.11-85.87-25.92-13.87-51.66-31.1-80.78-36.14m704.62 2.45c-24.65 0.27-48.31 7.37-71.75 14.21-2.29 0.75-5.71 1.78-4.77 4.91 17.66 7.76 36.02 13.81 53.7 21.54 39.21 11.31 74.87 32.04 113.57 44.55 27.35-1.58 51.18-18.29 77.74-23.77 18.64-2.84 37.01-7.32 55.94-7.94-2.07-6.02-11.19-5.59-16.38-7.67-27.19-9.52-54.14-19.81-80.38-31.72-16.96-3.54-31.8-15.98-49.82-14.06-25.93 0.6-51.88-1.43-77.85-0.05m-1053.2 5.57c-0.14 5.8 4.73 10.48 7.89 14.99 3.77-6.64 2.15-17.87-7.89-14.99m14.67 8.91c3.7 7.77 8.43 15.45 13.96 22.03-3.53-7.87-3.48-19.96-13.96-22.03m944.47 8.33c-3.19 2.73-13.87 3.49-10.36 8.47 8.2 3.86 16.98 6.65 25.02 11.01 46.84 16.33 90.81 41.28 138.34 54.49 3.55-1.26 17.89-2.34 11.29-8.16-52.48-27.2-109.08-46.37-164.29-65.81m-780.36 1.57c12.72 10.88 29.35 19.86 45.5 26.4 29.6 14.16 57.92 31.18 88.18 43.84-43.05-24.25-86.85-51.62-133.68-70.24m-153.2 26.12c-2.02 5.8 2.28 16.35 8.86 16.88-1.4-5.97-3.35-13.83-8.86-16.88m45.05 0.12c4.83 12.05 13.01 23.37 19.01 34.79-6.52-10.79-5.47-30.32-19.01-34.79m1199.2 12.28c-5.65 1.37-13.39-0.02-17.44 4.51 16.4 19.47 41.01 4.84 61.36 3.11 0.69-0.65 9.45-0.03 6.28-3.31-15.32-7.97-33.63-4.06-50.2-4.31m-37.58 6.97c-1.37 0.14-3.12 0.26-2.38 2.12 34.25 21.95 72.32 37.58 104.77 62.42 3.21 1.28 12.03 9.35 13.47 5.61-34.83-25.62-72.11-47.97-109.4-69.92-2.06-0.94-4.21-1.02-6.46-0.23m-1128.5 0.5c4.05 7.45 5.8 17.22 11.93 23.06-4.61-7.18-2.6-20.73-11.93-23.06m-32.29 2.12c3.49 6.8 4.64 18.6 12.12 21.72-2.7-7.54-6.48-16.11-12.12-21.72m1250.7 5.51c-11.98 1.16-23.79 3.49-35.41 6.5-2.58 0.2-3.77 5.3 0.84 4.83 10.1 5.51 19.96 11.51 30.03 17.08 29.67-1.86 61.07-2.19 90.52-5.8-27.21-12.25-55.17-27.19-85.98-22.61m-1198.4 4.66c-2.56 3.2 1.23 8.45 2.7 11.96 7.45 12.7 7.73 30.88 17.32 41.64 1.41-12.61-7.07-26.43-12.67-38.43-3.35-4.12-0.04-15.43-7.35-15.17m1092.1 1.2c-18.25 5.67-36.99 9.52-55.49 14.32-25.21 2.27-45.08 18.48-65.76 31.24-1.59 1.64-0.32 2.54 1.44 1.44 13.03-6.84 25.77-14.77 39.88-19.28 2.91-1.44 5.43 3.02 2.43 4.45-15.1 7.82-29.98 16.12-44.89 24.27-8.08-1.82-16.32-9.09-24.94-7.86-15.9 14.67-30.07 33.1-35.21 54.5 7.36-6.18 16.65-0.74 24.28 2.66-5.12 15.34-17.35 28.94-15.09 46.37 0.11 3.49-1.44 14.89-6.39 11.9-2.02-14.55 1.23-29.1 6.32-42.65-10.24 7.07-7.09 24.75-10.19 35.76-12.34 2.81 0.93-19.24-7.29-19.52-1.54 10.36-6.16 21.46-4.3 31.65 13.07 5.08 25.9 13.31 39.76 15.07 2.32-31.86 9.31-65.88 32.6-89.42 21.88-27.31 57.42-35.09 86.89-51.15 23.28-10.46 45.31-23.45 68.91-33.18-3.02-5.42-10.01-9.48-16.14-7.18-24.56 7.95-49.8 14.47-72.95 26.19-6.07 11.54-21.98 12.4-30.95 21.12 13.33-3.33 25.59-9.89 38.41-14.68 3.55-1.74 2.86 3.54 0.47 4.46-14.98 9.89-32.68 14.36-48.63 22.38-3.49 1.93-5.64-2.44-5.11-5.39-2.77-0.42-8.2 0.77-7.06-3.52 13.69-10.87 35.33-12.95 45.3-27.96 20.31-8.37 40.72-16.29 61.52-23.34 2.51-0.23 7.36-4.38 2.18-2.65m-900.97 11.42c141.71 83.77 289.97 159.43 438.78 231.14 29.54 16.73 60.94 30.01 91.69 43.97-46.52-30.51-100.44-53.06-149.66-80.98-14.52-9.91-30.97-16.67-47.37-22.6-15.68-9.07-31.01-19.31-48.54-24.47-55.83-22.44-104.54-58.87-159.28-83.77-40.85-23-82.47-45.1-125.62-63.29m947.05 4.54c-20.9 6.61-39.7 17.93-60.05 25.76-3.66 4.58-8.19 8.6-12.02 12.95 8.72-1.22 16.03-7.58 24.52-8.85 3.69 3.74-3.94 7.11-6.81 8.69-19.43 7.98-37.58 18.33-54.92 30.06-8.72 2.24 1.3-8.52 3.15-10.86-6.42 1.37-10.69 6.81-16.15 9.82-6.03-0.03 1.12-10.17-4.6-8.59-22.8 9.87-42.14 28.27-51.46 51.55 2.36-2.4 12.64-8.52 10.48-0.7-13.53 13.93-13.14 34.68-19.27 51.76-6.64 3.07-4.06 12.69 2.07 14.91 12.95 5.88 24.89 15.62 39.37 16.94 7.05-7.07-5.06-10.25-5.93-17.59-8.63 2.81-11.68-8.62-8.7-15.06 1.95-14.52 10.18-27.06 14.16-40.78-14.51 12.06-16.72 34.65-20 52.58-1.88 5.06-5.92-0.79-6.45-3.69-2.72 0.13-6.31 1.67-7.54-1.82-2.9-19.97 6.12-38.63 16.65-54.8 2.08-2.82 9.51-1.91 6.43 2.38-9.3 13.75-20.3 33.57-15.56 48.91 5.46-16.35 6.88-36.17 20.16-48.4 5.35 1.55 12.48 1.95 17.08 5.5-10.39 13.78-20.51 33.48-15.99 49.98 3.19-13.63 8.53-26.79 15.04-39.13 1.87-3.67 5.97-2.7 8.96-1.24 17.5-32.7 47.94-55.89 78.96-74.84 26.99-9.81 49.82-27.96 77.15-36.91-6.7-8.94-18.91-13.89-28.73-18.53m-1143.2 1.82c3.6 10.12 5.22 23.34 13.21 30.48 0.07-9.36-7.04-23.72-13.21-30.48m1283.2 9.25c-23.06 1.21-46.62 1.05-69.26 4.54 7.87 10.31 23.06 16.72 33.26 26 30.97-6.65 62.6 1.79 93.91 1.56 10.49-0.94 20.53 2.49 30.69 4.51-23.86-22.46-57.19-31.29-88.6-36.61m-1232.1 1.68c2.71 14.34 13.27 26.14 15.73 40.82 3.46 11.04 9.04-6.15 3.67-9.63-8.54-8.72-6.4-28.18-19.4-31.19m1134.1 13.21c-31.97 9.55-61.32 26.05-90.38 41.88-1.99 7.71 14.55 5.09 4.67 11.45-7.31 1.02-17.09 21.05-22.04 8.52-4.46 0.76-8.36 3.9-12.54 0.14-20.85 12.51-37.71 33.82-44.31 57.31 3.2-2.19 12.48-11.09 10.69-0.3-6.82 16.19-15.89 32.8-15.46 50.72-17.26 2.65 11.31 10.34 16.85 10.76-1.55-8.95 0.47-18.36-0.56-27.02-4 5.68-4 13.18-7.74 19.02-5.04 1.86-5.52-5.79-3.41-8.57 4.49-13.31 6.86-27.71 14.58-39.61 3.89-3.89 7.23 0.2 7.99 4.18 3.01-3.48 12.23-6.63 8.61 2.26-11.57 14.9-12.74 33.9-15.16 51.79 12.68 3.77 25.31 13.61 38.61 11.1 4.91-15.64 4.32-32.9 6.27-49.19-7.24 11.38-8.65 26.06-14.31 38.4-4.91 0.21-3.48-7.11-2.23-9.73 2.88-12.09 2.52-36.98 18.67-36.34 6.44-15.25 10.25-32.38 22.57-44.39 27.4-35.83 73.4-48.19 109.22-71.82-7.75-8.25-19.32-17.42-30.59-20.56m83.05 22.08c-1.96 0.97-7.84-0.12-7.26 3.25 9.28 6.67 17.8 14.48 27.86 20.07 30.46 6.3 61.75-2.01 92.53 2.54 15.72 2.14 28.82 12.53 44.09 15.89-3.76-8.43-12.18-17.91-22.28-16.69-20.61-7.95-39.43-23.9-62.78-21.98-24.12 0.29-48.02-4.26-72.16-3.08m-41.38 4.86c-25.12 13.73-51.17 25.45-75.95 39.75-10.68 11.4-22.15 24.24-36.38 30.55-14.16 17.21-23.18 39.44-23.71 61.88 3.49-0.76 10.78-19.58 14.44-7.08 13.06 9.56-2.38 25.82-6.04 38.24-8.8 1.36 0.77-14.61-2.21-17.57-5.83 3.17-5.25 11.87-9.18 16.95-2.46 2.82-5 8.15-0.06 10.03 31.22 13.92 65.74 17.56 97.81 29.3 17.45 2.94 34.85 11.15 52.68 9.09-1.65-26.09 5.72-51.96 23.48-71.55 12.91-28.41 28.55-56.47 49.03-79.8-14.45-11.96-29.95-23.91-46.2-34.01-13.17 2.14-21.3 14.65-31.02 22.67-15.62 20.96-32.11 41.17-48.6 61.39-14.05 23.18-18.92 50.44-21.83 77.02-6.95 6.84-7.55-5.96-14.17-6.41-3.75-11.19-0.23-26.77 10.57-33.46 5.03-13.07 6.98-27.57 15.45-39.11 24.85-31.31 48-64.74 79.8-89.32-5.89-8.73-18.03-15.46-27.91-18.56m-1146.7 2.95c-3.46 7.58 2.38 20.52 10.13 24.37 15.45 3.01 27.46 13.57 40.88 21.01 34.14 22.11 68.51 44.2 102.5 66.46 6.04 4.97 16.34 14.93 23.57 7.27-2.75-9.17 1.16-22.11-11.66-25.18-57.23-27.28-107.89-68.79-165.42-93.93m1261 24.24c-12.02 1.9-27.09-0.91-37.37 3.55 5.86 8.77 18.79 13.38 27.44 19.94 51.24 6.48 102.13 20.52 144.52 51.01-3.22-14.09-12.51-25.63-21.02-36.89-32.49-24.46-71.88-43.06-113.57-37.61m-24.51 24.7c7.88 7.36 18.13 13.49 20.74 25.11 26.17 21.7 44.91 50.4 68.65 74.51 12.65 18.65 31.08 33.12 40.04 54.33 4.76-0.51 2.15-6.56 1.45-9.74-7.46-20.87-23.83-36.68-38.28-52.83-16.4-23.27-37.42-42.9-57.41-62.84-0.56-3.64 7.53-5.82 1.39-8.18-14.4-3.47-23.45-14.58-36.58-20.36m1.66 16.02c-8.09 4.54-1.34 14.88-5.52 21.66-6.86 14.82-11.9 30.63-21.42 44.05-5.36 0.5-1.27-7.67 0.5-9.75 6.5-13.08 12.34-26.64 16.85-40.55 2.46-8.48-5.08-2.44-5.81 0.52-18.74 21.3-24.85 50.28-42.98 71.99-13.23 16.5-14.97 39.33-8.79 58.57 22.82 2.44 46.28-0.95 69.22 2.91 4.37-0.28 11.44 2.77 13.64-2.64 5.54-20.8 4.59-42.77 1.75-63.91-6.41 4.18-0.07 23.71-10.5 22.48 0.71-17.13 8.68-34.09 4.77-51.61 0.37-1.6-1.93-13.34-4.12-6.82-3.57 18.6-11.33 36.18-13.64 55.03-0.58 3.48-4.79 5.55-6.3 1.43 1.99-22.3 16.37-43.11 13.24-65.81-9.36 21.93-17.69 44.45-27.57 66.13-5.88 3.9-3.48-7.44-1.64-10.69 14.94-28.52 21.98-60.11 32.79-90.18-0.44-1.81-2.58-3.71-4.47-2.81m79.09 7.33c5.98 4.26 17.8 8.78 27.31 10.61-5.98-7.41-18.54-9-27.31-10.61m-387.19 12.51c-5.8 10.31-12.78 24.57-9.49 36.28 2.55-11.9 7.45-25.14 9.49-36.28m425.86 11.76c4.85 8.29 13.87 13.01 21.05 19.01 5.77 17.08 26.19 23.1 36.04 37.95 3.56 4.01 2.95-4.63 2.23-5.93-7.06-16.73-15.87-34.6-32.28-43.87 0.11 1.83 0.52 3.69 0.17 5.54-10.61 1.06-16.96-10.96-27.21-12.7m-44.09 11.1c20.74 31.43 52.79 55.24 67.09 91.03 9.47-6.92 33.98-8.56 28.14-24.22-10.37-18.6-28.03-33.17-47.05-41.76 3.56 9.43-4.81 4.25-9.24 2.99 1.45 3.44 3.27 13.41-2.59 8.59-8.71-15-21.05-28.35-36.35-36.63m-1124 1.2c-3.21 5.81-3.11 19.81 7.34 15.32 19.71 0.7 1-13.37-7.34-15.32m1082.2 0c0.4 33.82 2.88 69.9-2.29 104.39 0.79 1.09 1.8 2.5 3.36 2.52 28.54-0.73 57.5-0.94 85.2-8.72-1.51-23.83-26.98-37.67-38.71-57.11-11.74-10.07 5.84 15.03-5.5 13.61-4.66-10.37-8.8-22.74-18.42-29.55 2.42 9.74 12.89 24.65 3.22 31.8-3.46-9.75-1.58-21.78-10.71-29.48-0.69 8.82-2 17.88 0.25 26.61 1.13 4.5-4.28 11.54-7.61 5.4 3.61-19.43-0.41-43.69-8.79-59.47m-618.14 108.75c18.08 13.91 39.76 23.46 60.4 33.58 21.48 14.87 45.91 24.68 70.32 33.63 9.62 5.38 18.51 12.69 29.91 14 14.25 5.69 7.9 26.6 23.93 28.32 21.01 6.7 42.93 9.19 63.02 18.91 50.01 14.7 94.09 44.28 145.54 53.43 4.17 2.06 6.56-0.97 5.62-4.35-16.07-6.55-33.36-10.9-48.03-20.33-56.64-22.88-114.07-43.99-169.58-69.32-34.4-12.04-64.33-33.02-97.5-47.52-29.85-9.35-53.62-31.56-83.63-40.35m773.03 23.46c-24.73 11.75-51.57 17.75-76.75 28.24-35.99 9.47-73.39 10.23-110.08 15.75-2.15 6.62 8.45 7.7 12.76 7.76 29.93-2.54 60.09-4.93 89.24-12.78 29.08-3.91 58.48-11.52 83.48-27.38 3.71-1.33 7.25-11.97 1.35-11.59m-444.44 1.91c-10.87 27.53 2.04 60.58 0.7 89.95 21.02 5.47 39.17 16.71 58.93 25.51 11.05 5.43 8.68-13.18 10.19-19.66-2.85-21.02 1.34-42.09 0.46-63.15-8.09-17.17-30.47-14.8-44.56-23.43-9.92-0.72-14.71-12.58-25.72-9.22m402.87 35.27c-5.56 1.7-11.93 3.26-16.4 6.72 8.03-3.56 17.76-1.9 18.25 8.4-0.65 30.8-7.29 61.35-5.44 92.39-3.48 13.32-17.93 13.33-28.86 13.79-7.6-4.53-13.64 8.64-22.27 1.57-11.82-13.83-1-35.57-6.62-51.74-6.54 16.87-3.73 35.92-3.97 53.6 6.39 7.57-1.18 17.07-9.33 18.1 9.83 7.45 20.06-7.02 30.91-7.43 14.14-6.15 32.69-3.01 44.32-14.3 5.53-39.69 8.03-80.26 5.16-120.18-1-2.14-2.91-2.45-5.75-0.92m-638.27 0.31c13.14 11.83 34.02 17.52 50.47 25.36-13.37-13.28-32.88-19.2-50.47-25.36m601.38 8.66c-7.21 0.38-13.8 3.67-20.98 4.07-10.99 0.67-2.05 15.55-3.74 21.66 1.97-7.17 2.67-20.82 14-19.21 4.64 0.56 25.35-9.55 10.72-6.52m-683.41 20.38c6.8 6.23 17.1 10.88 26.59 13.3-7.91-5.56-17.21-10.56-26.59-13.3m743.77 9.32c-2.4 22.07-7.13 44.03-6.59 66.35 4.48 7.42-7.55 4.36-5.22 10.31 10.08-0.46 21.99-7.04 18.82-18.88-2.21-5.02 5.09-24.39-5.07-19.82-2.93-11.65 2.9-28.24-1.94-37.96m-757.81 9.14c-3.1 2.34 0.01 6.5 2.7 7.82 24.18 13.69 45.33 32.19 70.15 44.79 57.5 29.77 113.1 63.09 171.2 91.8 33.13 12.2 61.48 33.34 93.78 47.25 24.93 6.47 30.44 34.1 38.54 54.39 7.54 7.1 17.64 10.45 27.67 12.26 0.26-8.75-0.43-38.85 18.55-29.45 12.01 4.02 25.47 3.06 36.64 9.72 1.87 10.94-5.13 21.57-3.9 32.48 8.01 1.3 19.09 4.05 17.37 14.65-4.68 12.21 8.3 15.75 17.3 13.41 1.35-6.17 2.07-17.53 11.55-15.28 36.36 12.65 75.07 14.6 113.02 19.67 8.83-1.91 7.04-14.39 7.77-20.81-1.95-9.63 7.39-24.23-6.27-27.74-67.89-4.9-133.52-26.43-198.88-42.59-19.55-14.22-42.52-23.12-65.7-29.36-55.05-26.41-112.93-47.07-166.66-76.34-7.53-3.37-13.37-10.34-14.09-18.69-2.66-0.35-3.08 6.2-6.83 4.66-2.91-5.45 1.14-14.98-6.41-16.83-38.33-15.32-73.89-35.92-111.92-51.93-14.62-8.57-29.81-18.42-45.58-23.88m-20.12 3.73c7.63 15.12 15.62 30.68 25.03 44.78-8.53-14.48-9.56-36.15-25.03-44.78m196.95 1.27c-4.11 6.2 3.21 13.32 9.39 14.38 66 23.48 131.06 48.14 197.8 69.33 3.78 1.06 14.2 3.04 12.64-3.64-62.58-24.48-125-50.87-190.36-67.84-9.91-3.67-19.35-9.65-29.47-12.23m-203.1 6.82c-2.95 5.4 4.21 10.33 5.83 15.09 8.01 10.8 9.08 28.18 20.18 35.6-5.23-18.11-15.45-36.03-26.01-50.69m24.3 4.04c2.63 8.09 6.74 17.62 12.86 23.8-5.73-6.63-1.61-23.68-12.86-23.8m684.78-0.38c-1.21 7.42-3.64 18.84 1 24.46 0.58-7.44 3.25-18.77-1-24.46m-670.02 8.69c8.15 18.47 21.06 36.58 24.59 57.15-2.16 3.37-6.4-0.34-8.88-1.7-2.16 3.22 2.75 12.66-3.09 10.53-5.9-13.18-9.5-28.72-19.8-39.45 2.53 6.56 2.68 13.83-0.94 20.04-3.07 16.01 6.23 33.92 21.01 40.55 20.27 1.3 32.75-30.68 14.26-40.9-11.48-13.1-9.64-39.8-27.15-46.22m166.12-0.06c-5.1 13.7 13.61 18.37 23.9 18.29 70.04 28.29 141.84 56.07 213.61 78.68 61.24 7.25 121.48 23.24 182.67 31.28 3.65-2.71 7.53-5.61 9.75-9.65-6.13-4.74-14.58 3.86-18.8-4.48-60.54-8.59-121.16-18.09-179.19-37.7-2.21-1.37-1.28-4.83 1.48-4.47 16.51-1.21 32.03 8.88 48.47 7.67 6.28-3.21-5.01-6.38-7.36-5.83-15.41-0.32-29.6-10.12-45.04-7.53-2.54 3.24-0.32 10-5.93 10.27-57.57-11.56-109.99-39.55-166.34-55.36-19.99-4.14-38.54-14.22-57.22-21.17m593.01 4.51c-1.69 8.31-4.74 19.16-0.36 26.51 3.27-7.24 6.02-22 0.36-26.51m-58.1 9.99c-5.53 6.33 3.4 26.8-10.35 20.55-6.16 2.24-6.18-4.33-7.76-8.51-5.29 3.2-7.9 16.66 1.06 17.88 5.64-3.01 11.71-4.93 17.7-7.15 0.5-5.97 6.67-19.77-0.65-22.77m-678.94 1.41c2.7 7.22 5.02 22.18 14.58 22.46-0.49-8.94-4.65-21.23-14.58-22.46m145.14 2.02c-5.17 5.63 4.13 8.2 8.49 9.97 42.55 13.8 80.96 36.29 123.68 49.23 24.79 10.59 50.3 18.57 74.28 30.86 7.59 5.64 17.83-8.29 8.36-11.54-55-21.88-112.04-38.17-167.05-59.88-14.43-9.61-32.01-13.03-47.76-18.64m-126.16 9.81c-0.26 4.04 3.22 6.83 5.13 10.1 7.32-2.84 1.46-11.58-5.13-10.1m126.27 3.06c-2.36 1.99-3.42 6.88 0.33 8.13 33.58 15.87 69.23 27.32 102.03 44.9 20.63 8.75 40.08 19.97 61.69 26.31 21.05 3.7 37.89 19.05 59.17 21.8 44.77 11.71 87.5 30.45 133.69 36.12 18.1 8.64 38.43 8.58 57.88 11.51 12.54 2.42 24.12-5.95 30.73-15.22-2.96-5.22-13.12-0.13-14.46 5.32-6.63 0.58-3.21-12.74-12.87-8.87-54.47 2.04-106.48-13.87-158.98-24.78-15.84-8.07-38.29-4.3-49.4-19.73-10.74-3.91-21.03-8.84-31.4-13.58-61.29-19.47-119.06-48.89-178.41-71.91m480.02 14.79c-7.08 10.2-20.2 19.24-24.69 29.37 11.59-2.51 33.03-15.17 24.69-29.37m-571.36 1.06c14.32 23.85 1.65 51.78 6.64 77.19 16.08 9.26 30.54 22.26 46.21 31.72 6.88-13.52 3.47-34.16 0.93-49.85-6.49-1.65-8.83 7.11-15.18 6.88-11.48 0.97-17.93-10.99-18.77-20.84-1.68-15.53-12.98-27.83-14.53-43.27-1.27-1.59-3.44-1.84-5.3-1.83m90.4 2.14c-3.31 4.15 1.57 8.08 5.5 8.91 40.78 16.54 79.5 37.73 119.99 54.93 68.36 36.61 143.67 59.25 218.27 79.85 34.5 0.55 70.54 18.22 103.15 4.2 2.42 3.42-6.94 4.55-3.72 8.46 10.3 3.91 20.45-0.37 28.04-7.51 11.27-1.95-0.9 5.44 1.92 9.51 5.95 0.39 12.18-0.42 16.69-4.62 19.16-4.18 44.96-3.82 54.73-23.73-10.38 1.01-21.09 1.83-30.94-2.06-2.69 12.36-17.07 3.35-24.86 7.83-2 3.89-3.29 11.76-7.84 11.71-0.09-3.71-0.35-7.6 1.26-11.04-6.19 0.78-12.43 1.14-18.57 2.14-3.42 3.04-3.54 11.41-9.58 9.61-7.4 2.21-1.95-8.41-7.39-8.07-22.05 1.03-43.9-3.61-65.62-6.78-59.92-14.9-120.25-29.2-178.7-49.37-67.69-27.53-134.07-58.84-202.33-83.97m234.9 0.01c-3.6 0.8-4.31 5.75-0.8 7.26 14.63 8.32 32.3 7.88 48.52 10.54 9.6 1.21 2.59-3.78-1.28-3.94-15.99-2.72-30.86-10.31-46.44-13.86m-345.35 10.99c0.54 14.72 12.89 26.5 12.6 41.11-9.56-0.11-6.96-18.52-15.56-22.36-2.3 7.3-8.43 12.56-11.9 18.84 9.58 6.72 19.26 15.05 30.63 18.18 6.53-4.46 3.46-16.05 1.89-22.16-7.99-9.95-7.53-26.7-17.66-33.61m53.15 3.95c1.7 9.25 5.13 21.11 11.77 26.69-5.53-7.97 0.85-25.97-11.77-26.69m598.69 0.32c-7.48 4.34-22.34 0.28-24.64 8.48 12.4 0.01 25.08-1.5 37.08-4.63 6.85-6.43-9.08-4.51-12.44-3.85m49.52 0.99c-6.26 0.65-16.94 3.16-15.95 11.35 6.01 0.95 16.99-6.65 15.95-11.35m-591.08 0.61c-1.1 2.2-3.3 7.7 0.57 8.02 16.76 2.7 30.31 13.84 45.65 20.39 27.83 12.1 55.58 24.66 82.67 38.34 37.49 14.45 75.04 28.58 111.72 45.28 62.31 20.61 126.03 35.75 191.16 43.99 4.53 0.66 15.74 0.23 14.68-6.84-32.91-8.33-67.17-8.96-100.74-13.2-54.27-15.98-109.94-29.88-161.95-53.07-25.58-14.84-52.38-27.77-80.18-37.82-33.72-16.49-68.67-32.09-103.58-45.09m302.08 1.24c-4.74 4.24 7.42 6.64 10.32 7.08 36.68 3.03 71.52 16.31 108.72 15.19 1.99-0.07 7.14-1.8 3.17-3.3-40.73-6.71-81.91-10.01-122.21-18.97m-347.27 3.65c3.58 8.53 7.18 17.13 11.4 25.4-2.33-10.33 5.27-25.26-11.4-25.4m599.56 3.59c-11.49 2.85-24.48 3.19-34.98 8.09-4.81 24.02-0.24 49.76 0.07 74.19 8.87 10.22 26.13-1.43 35.6-6.57 5.99-22.57 7.67-45.25 8.75-70.04 3.09-7.76-5.51-6.68-9.44-5.67m42.74 1.91c-8.2 1.48-13.9 8.45-17.26 15.63 4.25-0.42 21.25-11.32 17.26-15.63m-298.86 2.64c-4.03 1.7-3.87 9.02 0.85 9.58 37.05 9.01 75.53 10.82 112.6 19.52 6.44 2.54 13.27-1.45 16.18-7.17-13.44-5.95-29.03-1.14-42.8-6.45-29.3-3.2-57.62-12.14-86.83-15.48m209.16 0.65c0.48 10.68-8.58 29.62 2.39 36.47-0.32-10.54 8.4-30.23-2.39-36.47m-535.41 1.33c6.49 22.44 16.36 44.93 18.27 68.48-10.86-0.22-6.27-22.76-14.01-26.17-5.21 11.8-2.37 25.52-3.26 38.13 4.33 3.76 9.03 9.96 15.28 9.1 2.67-10.7 6.56-21.06 9.28-31.72-2.49-16.17-13.94-29.92-13.92-46.68 1.93-7.47-5.56-11.22-11.64-11.14m514.16 0.25c-4.88 2.37-11.37 5.77-12.31 11.48 7.62 4.29 16.81-0.24 24.65-1.19 4.87-9.59-4.41-11.87-12.34-10.29m-23.67 4.08c-3.91 0.44-9.02 3.36-9.7 6.77 9.19 7.51 30.03-11.08 9.7-6.77m-519.49 6.89c-9.36 1.58 0.39 12.04 6.03 9.13 1.96-3.23-2.4-9.63-6.03-9.13m46.78-0.26c2.56 12.47 7.98 24.22 13.24 35.77 1.66-7.08-4.09-16.82-7.05-24.11-2.27-3.94 0.43-12.56-6.19-11.66m14.92 8.01c-2.1 6.6 5.04 13.07 6.36 19.51 0.48 4.24 9.55 9.2 7.35 1.12-3.81-7.84-2.25-19.78-13.71-20.63m585.57 0.45c-7.52 1.8-16.26 5.94-17.35 14.51 6.25 3.44 19.97-12.08 17.35-14.51m-150.1 0.78c-3.95 0.52-12.56 7.07-5.56 9.02 9.82 4.98 22.85-12.05 5.56-9.02m20.34 2c-3.8 1.04-6.22 4.51-8.91 7.12 5.2 11.16 32.28-12.69 8.91-7.12m20.03 0.86c-5.44 2.42-12.98 13.12-1.12 10.87 5.31-4.25 19.18 3.37 18.4-6 1.83-9.75-12.07-3.46-17.28-4.87m-457.57 4.13c-2.5 8.2 6.93 22.91 16.94 19.94 1.89-11.55 10.45 1.31 12.93 5.54 3.4 3.77 3.06-7.35 7.19-4.15 7.81 12.95 13.27 27.34 18.63 41.45 2.07 2.94 0.45 11.28 6.93 8.74-2.38-12.41-9.35-23.82-12.81-36.03-1.33-2.75 0.39-6.76 3.53-5.62 9.07 14.73 12.56 35.08 24.53 46.66 3.37-9.72-9.84-24.46-3.15-33.79 7.4 4.97 7.26 18.39 11.56 26.38-0.21 3.04 6.72 6.73 2.4-0.14-3.38-8.42-3.18-17.54-3.6-26.25-25.6-18.71-56.11-30.75-85.08-42.73m204.34 4.99c-2.9 0.63-2.1 6.44 1.29 5.97 16.48 2.12 31.75 9.36 48.12 11.69 4.36 2.75 11.68-4.58 6.01-7.08-18.6-3.07-35.97-13.59-55.42-10.58m366.94 3.11c-10.06 1.85-16.05 11.93-21.43 19.57 9.56-3.62 15.72-13.06 24.15-18.65 1.46-2.35-1.49-1.06-2.72-0.92m-292.06 1.72c-4.1 4.57-7.58 11.77-5.43 17.69 11.69 4.29 25.07 3.66 36.4 9.81 30.09 7.95 61.71 7.52 92.45 10.62 4.59 1.18 11.31 0.74 13.26-4.39-3.57-4.73-11.03-0.2-15.14 2.19-3.47-11.63-18.46-7.39-27.53-9.34-27.28 1.6-53.23-9.95-80.58-8.54-4.91-0.23-16.21 0.82-15.85-6.97 18.91-2.2 38.26 0.22 57.12 2.57 12.83 3.6 28.73 8.21 40.07 3.43-31.87-3.77-63.73-9.55-94.77-17.07m137.93 1.25c-4.34 1.48-10.27 4.32-10.2 9.6 7.32 8.75 31.45-12.49 10.2-9.6m68.98 0.45c-7.4 6.78-3.55 18.36-3.53 27.2-0.93 3.56 1.17 10.34 5.86 7.52-0.63-11.27 1.3-24.49-2.33-34.72m-48.58 2.59c-4.8-0.15-13.03 9.7-4.63 9.56 9.41 3.48 23.63-15.09 4.63-9.56m29.54 0.01c-15.37 0.44 2.86 10.55 7.42 5.3 2.11-4.41-4.07-6.79-7.42-5.3m-475.53 12.97c-4.76 0.8-10.25 8.33-5.51 12.3 5.95-1.47 22.2-16.05 5.51-12.3m585.76 2.95c-3.9 3.73-10.76 6.81-11.45 12.43 5.97-0.85 19.75-7.16 11.45-12.43m-15.01 2.06c-5.7 2.64-12.54 6.28-14.24 12.83 4.05 2.16 22.65-12.9 14.24-12.83m-559.84 6.04c-16.78 4.97-17.73 24.4-16.19 38.75-4.76 8.75-16.02-4.7-21.63 1.66 12.6 6.6 24.63 14.47 38.15 19.23 13.09 3.46 21.73-11.09 25.9-21.33 4.88-9.34-1.73-18.67-0.24-28.26-6.65-7.23-15.94-12.03-25.99-10.05m463.61 0.91c-5.04-0.07-16.65 0.89-15.93 7.63 7.99 0.89 15.22-3.86 23.18-3.42 2.06-3.94-4.67-5.86-7.25-4.21m-34.52 2.04c-3.8-0.19-10.36 7.3-3.67 7.65 8.94 3.02 17.67-12 3.67-7.65m147.56 4.97c-9.21 2.71-15.34 12.33-20.02 19.87 11.05 8.44 30.86-10.57 20.02-19.87m-488.09 1.95c1.19 15.98 13.32 30.14 16.24 44.11 1.61 1.15 5.44 2.77 5.44-0.6-1.57-13.47-16.13-24.37-11.22-38.61-2.44-3-6.51-5.7-10.46-4.9m384.3 0.16c-7.95 4.47-17.94 11.04-21.36 19.4 9.95 1.75 27.53 2.21 32.73-9.73-2.87-3.91-7.35-7.03-11.37-9.67m-369.58 5.7c-2.7 8 5.9 15.9 10.26 22 3.61-1.13 1.09-9.65 6.31-7.82 4.6 9.71 6.81 20.68 14 28.98 0.69-9.14-10.31-16.49-5.77-26.2 6.02 3.1 7.88 11.5 12.76 16.16 0.57-6.27 3.76-16.22-3.12-19.97-12.16-2.57-22.46-10.17-34.44-13.15m332.73 2.26c-6.47 1.3-13.05 7.19-14.49 13.47 11.53 4.91 21.89-3.79 28.86-11.94-2.69-4.32-10.27-0.93-14.37-1.53m112.19 0.04c-10.45 6.53-20.97 15.5-27.53 25.56 14.41 2.7 23.93-14.42 32.93-23.81 2.42-3.49-4.42-2.01-5.4-1.75m28.45 12.59c-8.16 5.56-5.54 19.73-3.34 28.1 11.03-2.31 7.08-22.97 3.34-28.1m-645.88 1.6c-15.14 2.87-30.07 6.84-45.26 9.48 4.14 6.58 15.21 8.66 21.14 14.54 12.35-2.09 24.68-5.77 37.1-8.22 19.4-0.6-4.15-17.69-12.98-15.8m557.07 28.7c-18.38 18.98-34.83 42.03-53.8 61.45-2.14 2.83-5.21 12.13 0.84 11.04 17.91-24.23 40.31-45.34 55.98-71.27 0.95-2.35-1.74-1.4-3.02-1.22m72.8 1.76c-13.25 23.62-29.97 44.98-44.46 67.83-1.64 2-5.14 9.57 0.31 7.22 10.99-3.37 29.88-7.75 26.31-22.93-7.08 4-9.63 13.73-17.59 16.66-5.72-3.73 3.67-10.96 6-14.99 11.34-11.73 15.62-27.97 25.3-40.58 5.35-1 10.12-11.15 4.13-13.21m-348 2.99c-13.01 17.76 12.74 19.57 23.99 23.63 9.47 6 16.53-15.77 6.47-17.76-10.17-1.81-20.3-4.5-30.46-5.87m224.41 4.22c-12.92 5.35 15.2 6.45 13.87 1.41-4.05-2.84-9.35-1.81-13.87-1.41m-272.71 11.75c-4.98 13.2-10.96 26.16-9.9 40.79 6.34 1.6 7.27-6.37 9.13-10.54 4.26-8.18 14.92-26.8 0.77-30.25m287.7 0.29c-8.24 9.12-14.87 23.11-22.78 33.36 13.24-4.99 17.82-20.53 28.65-29.04 5.81-4.44-2.24-5.85-5.87-4.32m-236.33 20.87c-3.13 5.68-2.95 16.57 0.75 22.74 13.27 4.05 25.29 13.22 39.64 12.82-2.42-8.83 2.77-17.65-0.17-26.25-12.72-5.05-26.67-8.36-40.22-9.31zm-893.29-1702.9c8.57 0.09 3.41 13.02 3.47 18.28-4.72 10.73 10.63 12.45 17.69 11.44 3.26 3.98 6.58 10.2 2.61 14.84-9.27 8.17 2.5 24.79-9.99 30.32 10.45 13.74 12.4-13.67 20.37-17.84 11.73-7.61 19.4 8.61 31.96 6.1 22.38 19.11 53.94 19.65 78.55 34.65 23.02 21.04 57.31 14.03 85.68 16.36 32.61 3.79 65.69-1.58 96.07-13.84 19.42-8.49 41.1-7.44 61.65-4.78 34.43-1.14 69.99-13.5 94.67-37.91 15.23-11.79 35.87-2.56 52.31-10.82 40.17-15.1 83.17-19.11 125.34-24.56 4.82 0.7 16.69-3.7 17.66 3.3-51.43 8.58-103.77 16.25-152.65 35.65-12.48-0.92-26.32-3.59-36.93 5.21-29.63 26.2-69.8 39.81-109.19 39.25-38.45-13.18-71.18 22.7-109.36 19.09-37.21-2.32-75.92 3.7-112.07-7.07-22.68-17.51-51.24-23.56-77.08-34.95-10.58-4.21-16.01-18.61-29.63-14.08-0.51 13.31 11.41 22.3 13.41 34.49-7.95 10.9-12.86-10.79-22.82-7.48-4.7-1.55-12.94 7.4-6.15 9.42 9.46 1.63 21.4 0.43 27.14 9.7-6.78 19.75-47.42 7.28-40.01-14.75-3.03-5.46-12.24-7.78-14.36 0.37-3.65 8.55 15.41 2.98 11.49 11.3-3.17 6.08-15.03 21.35-19.62 8.49-5-11.15-9.7 9.34-17.28 4.52-3.74-1.93-5.54-9.1-10.44-4.19-8.53 7.68-19.02-7.54-27.07 0.93-8.2 5.04-8.64-9.75-5.58-14.58 6.57-8.57 19.46-8.06 29.22-8.59-7.06-16.37-22.27-5.34-34.04-2.57-10.45-5.21 0.51-25.18 11.11-20.5 4.58 2.6 9.69-0.18 13.55-2.81-0.15-9.68-16.97-2.54-18.5-12.34-7.84-9.62 7.27-23.58 15.52-18.22-7 8.69 2.7 13.24 11.05 11.03 8.91-7.67 8.91-21.85 18.66-28.64 8.62-5.1 1.67-22.47 13.59-24.22m-11.72 46.84c-6.9 5.95-3.5 13.89 6.72 10.32 9.01-3.2-0.7-12.26-6.72-10.32zm-79.05-137.94c25.04 9.42 39.35 36.97 62.05 51.29 6.31 7.36 12.82 16.46 14.49 26.18-11.12 0.14-11.42-14.52-18.79-19.86-19.67-14.36-35.5-33.78-54.13-49.05-6.38 2.27-9.84-6.92-3.62-8.56zm-213.56-149.21h12.99c27.74 7.69 45.5 32.78 70.6 45.5 16.56 18.74 37.26 35.26 61.59 42.44 19.21 2.68 32.78 21.67 32 39.93-7.62-8.71-12.49-24.3-25.03-29.99-27.91-7.29-53.75-23.62-71.49-46.45-16.39-8.26-28.83-21.78-43.81-32.09-8.56-12.93-26.13-9.78-36.85-19.34z"/>
</svg>
