<?xml version="1.0" encoding="utf-8"?>
<!-- Generator: Adobe Illustrator 27.5.0, SVG Export Plug-In . SVG Version: 6.00 Build 0)  -->
<svg version="1.1" xmlns="http://www.w3.org/2000/svg" xmlns:xlink="http://www.w3.org/1999/xlink" x="0px" y="0px"
	 viewBox="0 0 500 500" style="enable-background:new 0 0 500 500;" xml:space="preserve">
<g id="BACKGROUND">
	<rect style="fill:#FFFFFF;" width="500" height="500"/>
</g>
<g id="OBJECT">
	<g>
		<path style="fill:#D7EAF1;" d="M162.97,98.81c0,18.59-7.83,35.35-20.37,47.16c-3.65,3.44-7.7,6.46-12.07,8.99
			c-0.65,0.37-1.31,0.73-1.98,1.08c-1.52,0.82-3.08,1.57-4.68,2.26c-7.88,3.41-16.57,5.3-25.7,5.3c-8.74,0-17.07-1.73-24.68-4.87
			c-1.8-0.74-3.55-1.56-5.26-2.45c-5.72-2.99-10.94-6.8-15.5-11.3c-11.95-11.75-19.35-28.09-19.35-46.17
			c0-35.79,29.01-64.8,64.79-64.8C133.96,34.01,162.97,63.02,162.97,98.81z"/>
		<g>
			<g>
				<g>
					<g>
						<path style="fill:#F69779;" d="M142.6,145.97c-3.65,3.44-7.7,6.46-12.07,8.99c-0.65,0.37-1.31,0.73-1.98,1.08
							c-1.52,0.82-3.08,1.57-4.68,2.26c-7.88,3.41-16.57,5.3-25.7,5.3c-8.74,0-17.07-1.73-24.68-4.87c-1.8-0.74-3.55-1.56-5.26-2.45
							c-5.72-2.99-10.94-6.8-15.5-11.3c3.28-4.62,7.87-8.22,13.24-10.29l5.97-2.3c5.62-2.16,10.22-6.19,13.11-11.28l0.13-0.23
							c0.11-0.2,0.21-0.4,0.32-0.6c0.04-0.07,0.07-0.14,0.11-0.22c0.73-1.43,1.33-2.93,1.79-4.5c0.16-0.56,0.31-1.14,0.43-1.72
							c0.02-0.07,0.03-0.15,0.05-0.22l1.27-6.16v-0.01l0.09-0.41l0.98-4.72h14.22l1.06,5.14l1.28,6.16
							c0.02,0.07,0.03,0.15,0.05,0.22c0.02,0.1,0.04,0.19,0.07,0.29c0.47,2.08,1.19,4.07,2.15,5.93c0.06,0.12,0.12,0.24,0.19,0.36
							c0.06,0.1,0.1,0.2,0.17,0.32l0.2,0.37c0.43,0.75,0.89,1.47,1.39,2.17c1.24,1.76,2.71,3.36,4.37,4.76
							c2.16,1.82,4.64,3.31,7.35,4.35l5.97,2.3C134.44,136.9,139.3,140.87,142.6,145.97z"/>
					</g>
				</g>
				<path style="fill:#F37A67;" d="M106.9,114.13c-1.77,0.36-2.94,0.36-2.94,0.36s-8.82,0-14.72-7.45l0.98-4.72h14.22l2.34,11.3
					c0.02,0.07,0.03,0.15,0.05,0.22C106.85,113.94,106.87,114.03,106.9,114.13z"/>
				<path style="fill:#051733;" d="M104.358,56.147L104.358,56.147C102.235,54.796,98.406,53.25,92,53.25
					c-7.688,0-12.438,4.625-15.266,9.25c-2.467,4.035-3.719,8.697-3.854,13.425l-0.349,12.186
					c-0.254,8.873-0.865,25.174,11.218,22.389V98.808l27.248-4.769v35.086c10.832-1.339,16.377-11.079,16.377-20.034V76.25
					C127.375,52.879,104.358,56.147,104.358,56.147z"/>
				<path style="fill:#F69779;" d="M116.61,80.59c-1.51-17.43-18.66-17.58-19.26-17.58c-0.01,0-0.02,0-0.02,0s-0.01,0-0.02,0
					c-0.6,0-17.75,0.15-19.26,17.58l-0.171,6.266c-0.101,3.694,0.497,7.403,2.002,10.778c5.34,11.976,17.449,11.976,17.449,11.976
					s12.109,0,17.449-11.976c1.505-3.375,2.103-7.084,2.002-10.778L116.61,80.59z"/>
				<path style="fill:#FFA33B;" d="M142.6,145.97c-3.65,3.44-7.7,6.46-12.07,8.99c-0.65,0.37-1.31,0.73-1.98,1.08
					c-1.52,0.82-3.08,1.57-4.68,2.26c-7.88,3.41-16.57,5.3-25.7,5.3c-8.74,0-17.07-1.73-24.68-4.87c-1.8-0.74-3.55-1.56-5.26-2.45
					c-5.72-2.99-10.94-6.8-15.5-11.3c3.28-4.62,7.87-8.22,13.24-10.29l5.97-2.3c5.62-2.16,10.22-6.19,13.11-11.28l0.13-0.23
					c0.15-0.23,0.23-0.4,0.32-0.6c0.04-0.07,0.07-0.14,0.11-0.22c0.08-1.2-0.69-2.57-0.67-3.94c0.01-0.47,0.1-0.94,0.36-1.41
					c0.2-0.36,1.14-0.65,2.53-0.87c2.47-0.39,6.37-0.58,10.18-0.55h0.01c3.36,0.01,6.64,0.2,8.81,0.55
					c1.39,0.22,2.33,0.51,2.53,0.87c1.01,1.82-0.42,3.73-0.31,5.35c0.06,0.12,0.12,0.24,0.19,0.36c0.06,0.1,0.1,0.2,0.17,0.32
					l0.2,0.37c0.43,0.75,0.89,1.47,1.39,2.17c1.24,1.76,2.71,3.36,4.37,4.76c2.16,1.82,4.64,3.31,7.35,4.35l5.97,2.3
					C134.44,136.9,139.3,140.87,142.6,145.97z"/>
				<path style="fill:#051733;" d="M104.886,60.984c-5.972,10.453-17.079,17.245-28.733,20.263
					c-0.745-3.925,1.571-7.977,4.051-11.108c2.962-3.74,6.477-7.182,10.814-9.171C95.354,58.978,100.686,58.72,104.886,60.984z"/>
				<path style="fill:#051733;" d="M100.902,61.252c0.498,2.004,1.888,3.653,3.289,5.17c4.399,4.763,9.485,9.112,15.571,11.348
					c0.413-4.79-2.192-9.587-5.751-12.818C110.612,61.867,105.348,60.113,100.902,61.252z"/>
				<path style="fill:#FF863B;" d="M142.6,145.97c-3.65,3.44-7.7,6.46-12.07,8.99c-0.65,0.37-1.31,0.73-1.98,1.08
					c-0.62-5.22-2.24-10.33-4.82-14.94c-0.79-1.41-1.67-2.78-2.82-3.93c-1.58-1.55-3.58-2.61-5.46-3.78
					c-3.23-2.03-6.19-4.48-8.75-7.27c-1.24-1.34-2.42-2.83-2.78-4.6c-0.17-0.78-0.16-1.59-0.39-2.36c-0.51-1.77-2.2-3.04-4-3.6
					c-1.8-0.55-3.73-0.52-5.62-0.47c-2.17,0.05-4.38,0.11-6.51,0.47c-0.83,0.13-1.66,0.31-2.46,0.56c0.01-0.47,0.1-0.94,0.36-1.41
					c0.2-0.36,1.14-0.65,2.53-0.87c2.47-0.39,6.37-0.58,10.18-0.55c3.36,0.01,6.65,0.2,8.82,0.55c1.39,0.22,2.33,0.51,2.53,0.87
					c1.01,1.82-0.42,3.73-0.31,5.35c0.06,0.12,0.12,0.24,0.19,0.36c0.06,0.1,0.1,0.2,0.17,0.32l0.2,0.37
					c0.43,0.75,0.89,1.47,1.39,2.17c1.24,1.76,2.71,3.36,4.37,4.76c2.16,1.82,4.64,3.31,7.35,4.35l5.97,2.3
					C134.44,136.9,139.3,140.87,142.6,145.97z"/>
				<path style="fill:#FF863B;" d="M90.151,117.131c-0.066-0.635-1.067-0.641-1,0c0.233,2.237-0.21,4.358-1.346,6.304
					c-0.326,0.558,0.539,1.061,0.864,0.505C89.886,121.855,90.401,119.535,90.151,117.131z"/>
				<path style="fill:#FF863B;" d="M94.383,116.809c-0.108-0.635-1.072-0.365-0.964,0.266c0.353,2.074,0.025,4.105-0.944,5.971
					c-0.297,0.571,0.566,1.077,0.864,0.505C94.44,121.43,94.784,119.164,94.383,116.809z"/>
				<path style="fill:#FF863B;" d="M97.063,117.296v6.518c0,0.645,1,0.645,1,0v-6.518C98.063,116.651,97.063,116.651,97.063,117.296
					z"/>
				<path style="fill:#FF863B;" d="M103.463,123.162c-1.462-1.58-2.256-3.533-2.314-5.685c-0.018-0.644-1.018-0.645-1,0
					c0.066,2.419,0.964,4.617,2.607,6.392C103.194,124.343,103.9,123.634,103.463,123.162z"/>
				<g>
					<path style="fill:#FF863B;" d="M73.49,158.73c-1.8-0.74-3.55-1.56-5.26-2.45L72.95,142L73.49,158.73z"/>
					<path style="fill:#FF863B;" d="M130.53,154.96c-0.65,0.37-1.31,0.73-1.98,1.08c-1.52,0.82-3.08,1.57-4.68,2.26
						c0.86-5.35,0.91-11.04-0.14-17.2C127.93,144.26,129.78,149.13,130.53,154.96z"/>
				</g>
			</g>
			<g>
				<path style="fill:#F37A67;" d="M96.391,83.352v11.441h1.939C101.653,94.792,97.008,84.666,96.391,83.352z"/>
				<g>
					<g>
						<path style="fill:#051733;" d="M110.488,78.894c-2.68-1.324-5.659-1.521-8.452-0.41c-1.183,0.471-0.668,2.406,0.532,1.929
							c2.289-0.91,4.686-0.891,6.911,0.208C110.631,81.19,111.644,79.465,110.488,78.894z"/>
						<path style="fill:#051733;" d="M108.076,82.457c-0.609-1.056-1.886-0.992-1.886-0.992c-1.042,0-1.886,0.844-1.886,1.886
							s0.844,1.886,1.886,1.886c0.23,0,0.447-0.047,0.651-0.122l0.001,0.005c0.012-0.004,0.021-0.011,0.033-0.016
							c0.061-0.024,0.118-0.054,0.175-0.084c1.649-0.715,1.825-2.546,1.825-2.546C108.546,82.752,108.076,82.457,108.076,82.457z"/>
					</g>
					<g>
						<path style="fill:#051733;" d="M84.172,78.894c2.68-1.324,5.659-1.521,8.452-0.41c1.183,0.471,0.668,2.406-0.532,1.929
							c-2.289-0.91-4.686-0.891-6.911,0.208C84.029,81.19,83.016,79.465,84.172,78.894z"/>
						<path style="fill:#051733;" d="M86.585,82.457c0.609-1.056,1.886-0.992,1.886-0.992c1.042,0,1.886,0.844,1.886,1.886
							s-0.844,1.886-1.886,1.886c-0.23,0-0.447-0.047-0.651-0.122l-0.001,0.005c-0.012-0.004-0.021-0.011-0.033-0.016
							c-0.061-0.024-0.118-0.054-0.175-0.084c-1.649-0.715-1.825-2.546-1.825-2.546C86.114,82.752,86.585,82.457,86.585,82.457z"/>
					</g>
				</g>
				<path style="fill:#FFFFFF;" d="M91.185,98.879c0.665,2.482,3.16,4.33,6.146,4.33c2.985,0,5.481-1.848,6.145-4.33H91.185z"/>
			</g>
		</g>
	</g>
	<g>
		<path style="fill:#D7EAF1;" d="M466.62,98.81c0,18.33-7.61,34.88-19.85,46.67c-4.42,4.26-9.46,7.9-14.95,10.77
			c-8.97,4.7-19.17,7.35-29.99,7.35c-10.82,0-21.02-2.65-29.99-7.35c-5.49-2.87-10.52-6.5-14.95-10.77
			c-12.24-11.78-19.86-28.34-19.86-46.67c0-35.79,29.01-64.8,64.8-64.8C437.61,34.01,466.62,63.02,466.62,98.81z"/>
		<g>
			<g>
				<path style="fill:#E44424;" d="M438.51,147.533c-0.581-0.884-1.436-1.567-2.01-2.455c-2.822-4.366,2.353-10.715-0.439-15.099
					c-0.574-0.901-1.428-1.588-2.096-2.422c-1.397-1.742-1.913-4.142-1.354-6.295c0.643-2.475,2.608-4.673,2.362-7.216
					c-0.161-1.673-1.26-3.087-1.971-4.614c-1.101-2.364-1.271-5.139-0.466-7.617c0.791-2.433,2.488-4.647,2.495-7.203
					c0.01-3.719-3.544-6.654-3.876-10.359c-0.116-1.291,0.174-2.585,0.175-3.881c0.003-2.612-1.238-5.199-3.284-6.85
					c-1.03-0.831-2.281-1.47-2.971-2.595c-1.097-1.79-0.424-4.237-1.481-6.051c-1.811-3.111-6.837-2.035-9.719-4.217
					c-2.17-1.643-2.875-4.978-5.44-5.911c-1.059-0.385-2.24-0.228-3.392,0.179c-2.069,0.731-4.362,0.731-6.43,0
					c-1.152-0.407-2.334-0.564-3.392-0.179c-2.565,0.934-3.27,4.268-5.44,5.911c-2.882,2.182-7.907,1.106-9.719,4.217
					c-1.056,1.814-0.384,4.26-1.481,6.051c-0.689,1.125-1.94,1.763-2.971,2.595c-2.046,1.651-3.286,4.238-3.284,6.85
					c0.001,1.297,0.291,2.59,0.175,3.881c-0.332,3.705-3.886,6.64-3.876,10.359c0.007,2.556,1.705,4.77,2.495,7.203
					c0.805,2.478,0.636,5.253-0.465,7.617c-0.711,1.526-1.809,2.94-1.971,4.614c-0.245,2.543,1.719,4.741,2.362,7.216
					c0.559,2.153,0.043,4.554-1.354,6.295c-0.669,0.834-1.523,1.521-2.096,2.422c-2.793,4.384,2.383,10.734-0.439,15.099
					c-0.574,0.888-1.429,1.572-2.01,2.455c-0.581,0.884-1.017,2.07-0.322,2.869h37.001h37.001
					C439.527,149.603,439.091,148.418,438.51,147.533z"/>
				<path style="fill:#F69779;" d="M446.77,145.48c-4.42,4.26-9.46,7.9-14.95,10.77c-8.97,4.7-19.17,7.35-29.99,7.35
					c-10.82,0-21.02-2.65-29.99-7.35c-5.49-2.87-10.52-6.5-14.95-10.77c2.6-3.85,6.11-7.02,10.22-9.23c1.08-0.59,2.2-1.11,3.36-1.56
					l3.86-1.49l2.11-0.81c2.98-1.15,5.68-2.82,7.98-4.9c4-3.61,6.83-8.44,7.96-13.87l0.71-3.43l0.57-2.73l1.06-5.14h14.22l1.06,5.14
					l1.28,6.16c0.25,1.21,0.59,2.39,1.01,3.53c1.44,3.99,3.84,7.54,6.96,10.35c2.3,2.07,4.99,3.74,7.97,4.89l0.15,0.06l1.96,0.75
					l3.86,1.49c1.16,0.45,2.28,0.97,3.36,1.56C440.66,138.46,444.17,141.63,446.77,145.48z"/>
				<g>
					<g>
						<path style="fill:#F37A67;" d="M412.29,117.15c-2.52,0.68-4.31,0.68-4.31,0.68s-8.97,0-14.89-7.64l1.63-7.87h14.22l2.34,11.3
							C411.53,114.83,411.87,116.01,412.29,117.15z"/>
					</g>
				</g>
				<g>
					<g>
						<path style="fill:#F69779;" d="M426.258,82.775c-0.121-0.798-0.417-1.608-1.026-2.138c-0.549-0.478-1.305-0.675-2.032-0.644
							c-0.727,0.031-1.431,0.274-2.086,0.591c0,0-0.009-2.613-0.37-5.882c-0.715-6.485-6.191-11.4-12.715-11.4h-12.397
							c-6.524,0-12,4.915-12.715,11.4c-0.361,3.269-0.37,5.882-0.37,5.882c-0.655-0.317-1.359-0.56-2.086-0.591
							c-0.727-0.031-1.483,0.166-2.032,0.644c-0.609,0.529-0.904,1.34-1.026,2.138c-0.244,1.601,0.14,3.29,1.051,4.629
							c0.911,1.339,2.257,2.346,3.836,2.707c2.785,19.498,19.541,19.498,19.541,19.498s16.755,0,19.541-19.498
							c1.579-0.361,2.925-1.368,3.836-2.707C426.118,86.065,426.501,84.376,426.258,82.775z"/>
					</g>
				</g>
			</g>
			<path style="fill:#E44424;" d="M420.251,70.702c-1.995-0.925-3.99-1.85-5.986-2.775c-2.243-1.04-5.054-2.032-7.014-0.525
				c-1.587,1.22-1.896,3.639-3.538,4.783c-2.995,2.086-7.519-1.663-10.611,0.279c-2.074,1.303-2.14,4.362-3.766,6.194
				c-1.287,1.45-3.377,1.936-4.766,3.289c-2.152,2.095-2.021,5.525-1.78,8.518c0.241,2.993,0.257,6.459-2.01,8.428
				c-2.147-0.153-3.471-1.961-4.145-4.005c-1.778-5.393-0.27-11.289,1.666-16.627c1.543-4.257,3.417-8.508,6.516-11.809
				c6.058-6.452,15.887-8.137,24.598-6.575c2.843,0.51,5.734,1.376,7.9,3.288C419.416,65.019,420.266,67.901,420.251,70.702z"/>
			<path style="fill:#E30081;" d="M431.82,156.25c-8.97,4.7-19.17,7.35-29.99,7.35c-10.82,0-21.02-2.65-29.99-7.35
				c0.48-1.65,0.87-3.32,1.19-4.98c0.06-0.29,0.11-0.58,0.16-0.87c1.24-6.98,1.26-13.61,1.14-17.2l2.11-0.81
				c2.98-1.15,5.68-2.82,7.98-4.9c-1.61,22.64,17.41,19.31,17.41,19.31s19.02,3.33,17.42-19.3c2.3,2.07,4.99,3.74,7.97,4.89
				l0.15,0.06l1.96,0.75c-0.12,3.59-0.11,10.22,1.13,17.2C430.81,152.34,431.26,154.32,431.82,156.25z"/>
			<path style="fill:#A80060;" d="M431.82,156.25c-8.97,4.7-19.17,7.35-29.99,7.35c-10.82,0-21.02-2.65-29.99-7.35
				c0.48-1.65,0.87-3.32,1.19-4.98c0.75-0.33,1.5-0.62,2.23-0.87c5.84-1.96,11.24-1.37,15.56,0c6.11,1.93,10.07,5.41,10.07,5.41
				c3.93-3.38,7.59-4.94,10.84-5.41c1.6-0.24,3.11-0.21,4.5,0c6.23,0.92,10.1,5.41,10.1,5.41c-0.26-1.9-0.44-3.7-0.54-5.41
				c-0.54-8.48,0.65-14.62,1.58-17.95l1.96,0.75c-0.12,3.59-0.11,10.22,1.13,17.2C430.81,152.34,431.26,154.32,431.82,156.25z"/>
			<g>
				<path style="fill:#F37A67;" d="M400.891,83.352v11.441h1.939C406.154,94.792,401.508,84.666,400.891,83.352z"/>
				<g>
					<g>
						<path style="fill:#E44424;" d="M414.988,78.894c-2.68-1.324-5.658-1.521-8.452-0.41c-1.184,0.471-0.668,2.406,0.532,1.929
							c2.289-0.91,4.686-0.891,6.911,0.208C415.131,81.19,416.145,79.465,414.988,78.894z"/>
						<path style="fill:#051733;" d="M412.576,82.457c-0.609-1.056-1.886-0.992-1.886-0.992c-1.042,0-1.886,0.844-1.886,1.886
							s0.844,1.886,1.886,1.886c0.23,0,0.447-0.047,0.651-0.122l0.001,0.005c0.012-0.004,0.021-0.011,0.033-0.016
							c0.061-0.024,0.118-0.054,0.176-0.084c1.649-0.715,1.825-2.546,1.825-2.546C413.046,82.752,412.576,82.457,412.576,82.457z"/>
					</g>
					<g>
						<path style="fill:#E44424;" d="M388.672,78.894c2.68-1.324,5.658-1.521,8.452-0.41c1.184,0.471,0.668,2.406-0.532,1.929
							c-2.289-0.91-4.686-0.891-6.911,0.208C388.529,81.19,387.516,79.465,388.672,78.894z"/>
						<path style="fill:#051733;" d="M391.085,82.457c0.609-1.056,1.886-0.992,1.886-0.992c1.042,0,1.886,0.844,1.886,1.886
							s-0.844,1.886-1.886,1.886c-0.23,0-0.447-0.047-0.651-0.122l-0.001,0.005c-0.012-0.004-0.021-0.011-0.033-0.016
							c-0.061-0.024-0.118-0.054-0.176-0.084c-1.649-0.715-1.825-2.546-1.825-2.546C390.614,82.752,391.085,82.457,391.085,82.457z"
							/>
					</g>
				</g>
				<path style="fill:#FFFFFF;" d="M395.684,98.879c0.665,2.482,3.16,4.33,6.146,4.33s5.481-1.848,6.146-4.33H395.684z"/>
			</g>
		</g>
	</g>
	<g>
		<path style="fill:#D7EAF1;" d="M314.8,98.81c0,15.39-5.37,29.53-14.34,40.64c-4.77,5.93-10.57,10.99-17.12,14.92
			c-1.48,0.9-3.01,1.74-4.57,2.51c-8.66,4.3-18.43,6.72-28.77,6.72s-20.11-2.42-28.77-6.72c-1.56-0.77-3.09-1.61-4.57-2.51
			c-6.55-3.93-12.35-8.99-17.12-14.92c-8.97-11.11-14.34-25.25-14.34-40.64c0-35.79,29.01-64.8,64.8-64.8S314.8,63.02,314.8,98.81z"
			/>
		<g>
			<path style="fill:#051733;" d="M272.523,68.326c-0.172-2.164-1.559-2.921-1.559-2.921c-0.108-1.515-1.515-2.164-1.515-2.164
				c-0.541-1.515-2.272-1.947-2.272-1.947c-0.649-1.515-2.705-1.569-2.705-1.569c-0.757-1.353-2.705-1.135-2.705-1.135
				c-0.865-1.19-3.354-1.082-3.354-1.082c-0.649-1.298-3.354-0.866-3.354-0.866c-1.082-1.19-3.029-0.216-3.029-0.216
				c-0.433-1.623-2.03-0.338-2.03-0.338s-1.598-1.285-2.031,0.338c0,0-1.947-0.974-3.029,0.216c0,0-2.705-0.433-3.354,0.866
				c0,0-2.488-0.108-3.354,1.082c0,0-1.947-0.218-2.705,1.135c0,0-2.056,0.055-2.705,1.569c0,0-1.731,0.433-2.272,1.947
				c0,0-1.406,0.649-1.515,2.164c0,0-1.388,0.757-1.559,2.921c-0.172,2.164,0.655,3.787,4.353,5.409l0,0
				c11.423-5.782,24.916-5.782,36.34,0l0,0C271.868,72.113,272.694,70.49,272.523,68.326z"/>
			<path style="fill:#051733;" d="M258.675,60.607h-17.349c-7.648,0-13.848,6.2-13.848,13.848v10.449h45.046V74.455
				C272.523,66.807,266.323,60.607,258.675,60.607z"/>
			<g>
				<path style="fill:#4749D6;" d="M300.46,139.45c-4.77,5.93-10.57,10.99-17.12,14.92c-1.48,0.9-3.01,1.74-4.57,2.51
					c-8.66,4.3-18.43,6.72-28.77,6.72s-20.11-2.42-28.77-6.72c-1.56-0.77-3.09-1.61-4.57-2.51c-6.55-3.93-12.35-8.99-17.12-14.92
					c1.74-5.77,6.33-10.32,12.24-11.95l15.53-4.29l1.63-0.45l2.89-0.8l5.92-1.64l2.36-13.21l0.05-0.3l0.04-0.26l0.76-4.23l9.04,3.54
					l9.04-3.54l0.76,4.23l0.57,3.25l1.01,5.67l0.87,4.85l5.92,1.64l2.89,0.8l1.63,0.45l15.53,4.29
					C294.13,129.13,298.72,133.68,300.46,139.45z"/>
				<path style="fill:#3537A1;" d="M271.06,122.76c-0.63,2.88-3.47,10.92-15.54,11.84l-2.62,9.7c-0.36,1.31-1.54,2.22-2.9,2.22
					c-1.35,0-2.54-0.91-2.9-2.22l-2.62-9.7c-12.08-0.92-14.91-8.96-15.54-11.84l2.89-0.8l5.92-1.64l3.21-18l9.04,3.54l9.04-3.54
					l3.21,18l5.92,1.64L271.06,122.76z"/>
				<path style="fill:#F69779;" d="M268.17,121.96c-0.61,3.05-3.27,9.73-14.97,9.73l-3.2,11.83l-3.2-11.83
					c-11.7,0-14.36-6.68-14.97-9.73l5.92-1.64l2.36-13.21l0.85-4.79l9.04,3.54l9.04-3.54l2.34,13.15l0.87,4.85L268.17,121.96z"/>
				<path style="fill:#F37A67;" d="M261.38,115.47c-2.98,0.96-5.23,0.96-5.23,0.96s-10.24,0-16.04-9.32l0.85-4.79l9.04,3.54
					l9.04-3.54L261.38,115.47z"/>
				<path style="fill:#F69779;" d="M274.428,82.775c-0.122-0.798-0.417-1.608-1.026-2.138c-0.549-0.478-1.305-0.675-2.032-0.644
					c-0.727,0.031-1.431,0.274-2.086,0.591c0,0-0.064-13.435-6.599-13.65c-4.285-0.214-6.192,1.071-12.684,1.071
					c-6.493,0-8.399-1.286-12.684-1.071c-6.535,0.214-6.599,13.65-6.599,13.65c-0.655-0.317-1.359-0.56-2.086-0.591
					c-0.727-0.031-1.483,0.166-2.032,0.644c-0.609,0.529-0.905,1.34-1.026,2.138c-0.244,1.601,0.139,3.29,1.051,4.629
					c0.911,1.339,2.257,2.346,3.836,2.707C233.245,109.61,250,109.61,250,109.61s16.755,0,19.541-19.498
					c1.579-0.361,2.925-1.368,3.836-2.707C274.288,86.065,274.671,84.376,274.428,82.775z"/>
			</g>
			<g>
				<path style="fill:#3537A1;" d="M221.23,156.88c-1.56-0.77-3.09-1.61-4.57-2.51l4.09-12.37L221.23,156.88z"/>
				<path style="fill:#3537A1;" d="M283.34,154.37c-1.48,0.9-3.01,1.74-4.57,2.51l0.48-14.88L283.34,154.37z"/>
			</g>
			<g>
				<path style="fill:#F37A67;" d="M249.061,82.23v11.441H251C254.323,93.671,249.678,83.545,249.061,82.23z"/>
				<g>
					<g>
						<path style="fill:#051733;" d="M263.158,77.773c-2.68-1.324-5.658-1.52-8.452-0.41c-1.183,0.471-0.668,2.406,0.532,1.929
							c2.289-0.91,4.686-0.891,6.911,0.208C263.301,80.069,264.314,78.344,263.158,77.773z"/>
						<circle style="fill:#051733;" cx="258.859" cy="82.23" r="1.886"/>
					</g>
					<g>
						<path style="fill:#051733;" d="M236.842,77.773c2.68-1.324,5.659-1.52,8.452-0.41c1.183,0.471,0.668,2.406-0.532,1.929
							c-2.289-0.91-4.686-0.891-6.911,0.208C236.699,80.069,235.686,78.344,236.842,77.773z"/>
						<circle style="fill:#051733;" cx="241.141" cy="82.23" r="1.886"/>
					</g>
				</g>
				<path style="fill:#FFFFFF;" d="M243.854,98.345c0.665,2.482,3.16,4.33,6.146,4.33c2.985,0,5.481-1.848,6.146-4.33H243.854z"/>
			</g>
		</g>
	</g>
	<g>
		<path style="fill:#D7EAF1;" d="M162.97,250c0,18.96-8.14,36.02-21.12,47.87c-2.71,2.47-5.63,4.71-8.73,6.7
			c-10.08,6.48-22.08,10.23-34.95,10.23c-13.47,0-25.98-4.11-36.34-11.15c-2.96-2.01-5.75-4.26-8.33-6.71
			C41.11,285.13,33.38,268.47,33.38,250c0-35.79,29.01-64.8,64.79-64.8C133.96,185.2,162.97,214.21,162.97,250z"/>
		<g>
			<g>
				<path style="fill:#F69779;" d="M141.85,297.87c-2.71,2.47-5.63,4.71-8.73,6.7c-10.08,6.48-22.08,10.23-34.95,10.23
					c-13.47,0-25.98-4.11-36.34-11.15c-2.96-2.01-5.75-4.26-8.33-6.71c3.21-4.12,7.51-7.34,12.47-9.25l5.97-2.3
					c8.16-3.14,14.16-10.21,15.94-18.77l0.47-2.29l0.8-3.87v-0.01l1.07-5.13h14.22l1.06,5.14l1.28,6.16
					c0.35,1.68,0.86,3.31,1.52,4.86c2.71,6.33,7.87,11.39,14.42,13.91l5.97,2.3C134.02,289.74,138.58,293.3,141.85,297.87z"/>
				<path style="fill:#F37A67;" d="M108.3,271.48c-2.78,0.83-4.82,0.83-4.82,0.83s-9.24,0-15.13-7.98l1.87-9.01h14.22l2.34,11.3
					C107.13,268.3,107.64,269.93,108.3,271.48z"/>
				<path style="fill:#051733;" d="M96.72,200.305c-3.926-2.373-9.026-2.684-13.211-0.803c-4.185,1.88-7.34,5.898-8.173,10.41
					c-0.4,2.168-0.293,4.394-0.184,6.596c0.214,4.311,0.427,8.621,0.641,12.932c0.167,3.371,0.315,6.866-0.941,9.999
					c-0.926,2.311-2.553,4.26-4.154,6.166c-1.562,1.86-3.124,3.72-4.686,5.58c-0.54,0.642-1.095,1.316-1.294,2.131
					c-0.489,2.004,1.504,3.922,3.553,4.16c2.049,0.238,4.036-0.681,5.895-1.577c-0.14,1.022-0.314,1.622-0.176,2.644
					s0.571,2.042,1.373,2.69c0.916,0.739,2.216,0.895,3.349,0.578c1.133-0.317,2.111-1.059,2.893-1.939
					c-0.627,1.59,1.339,3.859,3.019,3.544c1.68-0.315,2.842-1.883,3.46-3.476c1.325-3.417,0.904-7.233,0.406-10.864
					c-0.687-5.002-1.485-10.011-1.488-15.059c-0.003-4.933,0.753-9.833,1.564-14.699c0.562-3.374,1.159-6.768,2.388-9.959
					C92.184,206.168,93.951,202.313,96.72,200.305z"/>
				<path style="fill:#662D8E;" d="M102.097,203.201c0,2.633-2.134,4.767-4.767,4.767c-2.633,0-4.767-2.134-4.767-4.767
					c0-2.633,2.134-4.767,4.767-4.767C99.963,198.433,102.097,200.568,102.097,203.201z"/>
				<path style="fill:#051733;" d="M117.079,213.899c-2.312-4.712-6.735-7.319-10.809-8.76c-5.796-2.05-12.084-2.05-17.879,0
					c-4.074,1.441-8.497,4.049-10.809,8.76c-4.18,8.698-3.468,22.229-3.468,22.229l4.358,5.026l18.859-2.601l18.859,2.601
					l4.358-5.026C120.547,236.128,121.259,222.598,117.079,213.899z"/>
			</g>
			<path style="fill:#F69779;" d="M121.76,235.77c-0.12-0.79-0.42-1.6-1.03-2.13c-0.55-0.48-1.3-0.68-2.03-0.65
				c-0.73,0.03-1.43,0.28-2.09,0.6c-0.9-10.51-8.56-15.62-13.95-17.92c-0.01,0-0.01,0-0.01,0c-3.02-1.3-5.32-1.72-5.32-1.72
				s-2.3,0.42-5.32,1.72c0,0,0,0-0.01,0c-5.39,2.3-13.05,7.41-13.95,17.92c-0.66-0.32-1.36-0.57-2.09-0.6
				c-0.73-0.03-1.48,0.17-2.03,0.65c-0.61,0.53-0.91,1.34-1.03,2.13c-0.24,1.61,0.14,3.29,1.05,4.63c0.91,1.34,2.26,2.35,3.84,2.71
				c2.78,19.5,19.54,19.5,19.54,19.5s16.76,0,19.54-19.5c1.58-0.36,2.93-1.37,3.84-2.71C121.62,239.06,122,237.38,121.76,235.77z"/>
			<path style="fill:#472063;" d="M133.12,304.57c-10.08,6.48-22.08,10.23-34.95,10.23c-13.47,0-25.98-4.11-36.34-11.15l0.8-2.53
				l1.99-6.28c0.61-1.91,3.19-3.42,5.79-3.42c1.59,0,2.86,0.56,3.52,1.43c1.05-0.87,2.58-1.43,4.17-1.43c1.59,0,2.9,0.56,3.63,1.43
				c0.99-0.87,2.47-1.43,4.06-1.43c1.6,0,2.95,0.56,3.74,1.43c0.92-0.87,2.36-1.43,3.95-1.43c1.6,0,2.99,0.56,3.85,1.43
				c0.86-0.87,2.25-1.43,3.85-1.43c1.59,0,3.03,0.56,3.95,1.43c0.79-0.87,2.14-1.43,3.74-1.43c1.59,0,3.07,0.56,4.06,1.43
				c0.73-0.87,2.04-1.43,3.63-1.43c1.59,0,3.12,0.56,4.17,1.43c0.66-0.87,1.93-1.43,3.52-1.43c2.6,0,5.18,1.51,5.79,3.42l1.99,6.28
				L133.12,304.57z"/>
			<path style="fill:#662D8E;" d="M133.12,304.57c-10.08,6.48-22.08,10.23-34.95,10.23c-13.47,0-25.98-4.11-36.34-11.15l0.8-2.53
				c1.17-0.59,2.61-0.95,4.06-0.95c1.81,0,3.26,0.56,4.01,1.43c1.19-0.87,2.93-1.43,4.74-1.43c1.81,0,3.3,0.56,4.14,1.43
				c1.12-0.87,2.81-1.43,4.62-1.43c1.82,0,3.35,0.56,4.25,1.43c1.05-0.87,2.69-1.43,4.5-1.43c1.82,0,3.4,0.56,4.38,1.43
				c0.98-0.87,2.56-1.43,4.38-1.43c1.81,0,3.45,0.56,4.5,1.43c0.9-0.87,2.43-1.43,4.25-1.43c1.81,0,3.5,0.56,4.62,1.43
				c0.84-0.87,2.33-1.43,4.14-1.43s3.55,0.56,4.74,1.43c0.75-0.87,2.2-1.43,4.01-1.43c1.45,0,2.89,0.36,4.06,0.95L133.12,304.57z"/>
			<g>
				<path style="fill:#F37A67;" d="M96.391,234.146v11.441h1.939C101.653,245.587,97.008,235.46,96.391,234.146z"/>
				<g>
					<g>
						<path style="fill:#051733;" d="M110.488,229.688c-2.68-1.324-5.659-1.52-8.452-0.41c-1.183,0.471-0.668,2.406,0.532,1.929
							c2.289-0.91,4.686-0.891,6.911,0.208C110.631,231.984,111.645,230.26,110.488,229.688z"/>
						<path style="fill:#051733;" d="M108.076,233.252c-0.609-1.056-1.886-0.992-1.886-0.992c-1.042,0-1.886,0.844-1.886,1.886
							c0,1.042,0.844,1.886,1.886,1.886c0.23,0,0.447-0.047,0.651-0.122l0.001,0.005c0.012-0.004,0.021-0.011,0.033-0.016
							c0.061-0.024,0.118-0.054,0.175-0.084c1.649-0.715,1.825-2.546,1.825-2.546C108.546,233.546,108.076,233.252,108.076,233.252z
							"/>
					</g>
					<g>
						<path style="fill:#051733;" d="M84.172,229.688c2.68-1.324,5.659-1.52,8.452-0.41c1.183,0.471,0.668,2.406-0.532,1.929
							c-2.289-0.91-4.686-0.891-6.911,0.208C84.029,231.984,83.016,230.26,84.172,229.688z"/>
						<path style="fill:#051733;" d="M86.585,233.252c0.609-1.056,1.886-0.992,1.886-0.992c1.042,0,1.886,0.844,1.886,1.886
							c0,1.042-0.844,1.886-1.886,1.886c-0.23,0-0.447-0.047-0.651-0.122l-0.001,0.005c-0.012-0.004-0.021-0.011-0.033-0.016
							c-0.061-0.024-0.118-0.054-0.175-0.084c-1.649-0.715-1.825-2.546-1.825-2.546C86.114,233.546,86.585,233.252,86.585,233.252z"
							/>
					</g>
				</g>
				<path style="fill:#FFFFFF;" d="M91.185,249.673c0.665,2.482,3.16,4.33,6.146,4.33c2.985,0,5.481-1.848,6.145-4.33H91.185z"/>
			</g>
		</g>
	</g>
	<g>
		<path style="fill:#D7EAF1;" d="M466.62,250c0,18.71-7.93,35.57-20.62,47.4c-4.24,3.96-9.01,7.35-14.2,10.06
			c-1.51,0.79-3.05,1.52-4.62,2.19c-2.16,0.92-4.37,1.73-6.64,2.4c-1.52,0.46-3.06,0.87-4.62,1.21c-0.52,0.12-1.05,0.23-1.58,0.33
			c-4.05,0.8-8.23,1.21-12.51,1.21s-8.46-0.41-12.51-1.21c-1.65-0.32-3.27-0.7-4.87-1.15c-0.44-0.12-0.89-0.25-1.33-0.39
			c-2.27-0.68-4.49-1.48-6.65-2.4c-1.57-0.67-3.12-1.4-4.62-2.19c-5.19-2.71-9.96-6.1-14.2-10.05
			c-12.69-11.84-20.62-28.7-20.62-47.41c0-35.79,29.01-64.8,64.8-64.8C437.61,185.2,466.62,214.21,466.62,250z"/>
		<g>
			<path style="fill:#051733;" d="M425.052,234.474l-0.004-0.002c0.003-0.048,0.703-12.464-3.469-20.453
				c-2.312-4.336-6.735-6.735-10.809-8.061c-5.796-1.887-12.084-1.887-17.879,0c-4.074,1.326-8.497,3.726-10.809,8.061
				c-4.172,7.989-3.471,20.405-3.469,20.453l-0.004,0.002c-0.616,11.007-8.483,20.846-2.758,26.88
				c11.155,9.541,25.98-5.871,25.98-5.871s14.825,15.412,25.98,5.871C433.535,255.32,425.667,245.48,425.052,234.474z"/>
			<path style="fill:#E44424;" d="M446,297.4c-4.24,3.96-9.01,7.35-14.2,10.06c-1.51,0.79-3.05,1.52-4.62,2.19
				c-2.16,0.92-4.37,1.73-6.64,2.4c-1.52,0.46-3.06,0.87-4.62,1.21c-0.52,0.12-1.05,0.23-1.58,0.33c-4.05,0.8-8.23,1.21-12.51,1.21
				s-8.46-0.41-12.51-1.21c-1.65-0.32-3.27-0.7-4.87-1.15c-0.44-0.12-0.89-0.25-1.33-0.39c-2.27-0.68-4.49-1.48-6.65-2.4
				c-1.57-0.67-3.12-1.4-4.62-2.19c-5.19-2.71-9.96-6.1-14.2-10.05c3.24-4.35,7.67-7.74,12.82-9.72l5.97-2.3
				c0.36-0.14,0.72-0.29,1.07-0.44c0.27-0.12,0.54-0.24,0.8-0.37c0.28-0.13,0.56-0.27,0.83-0.42c0.29-0.14,0.58-0.3,0.86-0.47
				c0.78-0.44,1.53-0.92,2.25-1.44v-0.01c0.33-0.23,0.65-0.47,0.96-0.72c2.7-2.15,4.93-4.82,6.58-7.84
				c1.19-2.19,2.07-4.56,2.59-7.06l0.37-1.76l0.63-3.05v-0.01l0.28-1.34l1.06-5.14h14.22l1.06,5.14l0.28,1.35l1,4.81
				c0.09,0.44,0.19,0.87,0.31,1.3c0.11,0.45,0.24,0.9,0.38,1.34c0.13,0.41,0.28,0.81,0.43,1.21c0.11,0.29,0.22,0.57,0.34,0.85
				c0.1,0.23,0.19,0.46,0.3,0.68c0.13,0.29,0.26,0.57,0.4,0.85c0.14,0.28,0.28,0.56,0.43,0.83c0.9,1.65,1.98,3.21,3.22,4.62
				c1.28,1.47,2.73,2.8,4.32,3.94v0.01c0.93,0.67,1.91,1.28,2.93,1.82c0.42,0.23,0.84,0.44,1.28,0.64c0.52,0.24,1.06,0.47,1.6,0.68
				l5.97,2.3C438.34,289.67,442.77,293.06,446,297.4z"/>
			<path style="fill:#A1CC36;" d="M446,297.4c-4.24,3.96-9.01,7.35-14.2,10.06c-1.51,0.79-3.05,1.52-4.62,2.19
				c-2.16,0.92-4.37,1.73-6.64,2.4c-1.52,0.46-3.06,0.87-4.62,1.21c0.37-11.65,1.01-23.3,1.17-34.96v-0.03
				c1.28,1.47,2.74,2.81,4.34,3.96h0.01c0.92,0.69,1.89,1.3,2.9,1.84c0.42,0.23,0.84,0.44,1.28,0.64c0.52,0.24,1.06,0.47,1.6,0.68
				l5.97,2.3C438.34,289.67,442.77,293.06,446,297.4z"/>
			<path style="fill:#A1CC36;" d="M384.45,312.44c-0.44-0.12-0.89-0.25-1.33-0.39c-2.27-0.68-4.49-1.48-6.65-2.4
				c-1.57-0.67-3.12-1.4-4.62-2.19c-5.19-2.71-9.96-6.1-14.2-10.05c3.24-4.35,7.67-7.74,12.82-9.72l5.97-2.3
				c0.36-0.14,0.72-0.29,1.07-0.44c0.27-0.12,0.54-0.24,0.8-0.37c0.28-0.13,0.56-0.27,0.83-0.42c0.29-0.15,0.58-0.31,0.86-0.47
				c0.77-0.45,1.51-0.93,2.22-1.46h0.01c0.33-0.24,0.66-0.49,0.98-0.74v0.03c0.05,7.16,0.34,14.3,0.97,21.43
				C384.46,306.11,384.47,309.27,384.45,312.44z"/>
			<path style="fill:#F69779;" d="M413.87,273.68c-2.99,3.43-7.28,5.58-12.04,5.58c-4.76,0-9.05-2.15-12.04-5.58
				c1.19-2.19,2.07-4.56,2.59-7.06l0.37-1.76l1.97-9.54h14.22l2.34,11.3c0.19,0.9,0.42,1.78,0.69,2.64
				C412.47,270.8,413.11,272.28,413.87,273.68z"/>
			<path style="fill:#F37A67;" d="M411.97,269.26c-3.41,1.26-6.1,1.26-6.1,1.26s-7.34,0-13.12-5.66l1.97-9.54h14.22l2.34,11.3
				C411.47,267.52,411.7,268.4,411.97,269.26z"/>
			<g>
				<g>
					<path style="fill:#051733;" d="M430.35,262.455c1.788-1.216,4.322-0.951,6.091,0.294c1.769,1.244,2.837,3.299,3.307,5.41
						c0.47,2.111,0.402,4.3,0.299,6.461c-2.207,1.362-5.453,1.633-7.8,0.528c-2.346-1.105-4.068-3.444-4.424-6.012
						C427.466,266.566,428.206,263.914,430.35,262.455z"/>
					<path style="fill:#E44424;" d="M431.337,262.242c0,1.383-1.121,2.503-2.503,2.503c-1.382,0-2.503-1.121-2.503-2.503
						s1.121-2.503,2.503-2.503C430.216,259.739,431.337,260.859,431.337,262.242z"/>
				</g>
				<g>
					<path style="fill:#051733;" d="M373.31,262.455c-1.788-1.216-4.322-0.951-6.091,0.294c-1.769,1.244-2.837,3.299-3.307,5.41
						c-0.47,2.111-0.402,4.3-0.299,6.461c2.207,1.362,5.454,1.633,7.8,0.528c2.347-1.105,4.068-3.444,4.424-6.012
						C376.194,266.566,375.454,263.914,373.31,262.455z"/>
					<circle style="fill:#E44424;" cx="374.826" cy="262.242" r="2.503"/>
				</g>
			</g>
			<path style="fill:#F69779;" d="M426.26,235.77c-0.12-0.79-0.42-1.6-1.03-2.13c-0.55-0.48-1.3-0.68-2.03-0.65
				c-0.73,0.03-1.43,0.28-2.09,0.6c0.05-2.63-0.13-4.94-0.5-6.96c-1.1-6.11-3.89-9.67-6.99-11.72
				c-5.39-3.58-11.73-3.618-11.79-3.608c-0.06-0.01-6.4,0.028-11.79,3.608c-3.1,2.05-5.89,5.61-6.99,11.72
				c-0.37,2.02-0.55,4.33-0.5,6.96c-0.66-0.32-1.36-0.57-2.09-0.6c-0.73-0.03-1.48,0.17-2.03,0.65c-0.61,0.53-0.91,1.34-1.03,2.13
				c-0.24,1.61,0.14,3.29,1.05,4.63c0.91,1.34,2.26,2.35,3.84,2.71c2.78,19.5,19.54,19.5,19.54,19.5s16.76,0,19.54-19.5
				c1.58-0.36,2.93-1.37,3.84-2.71C426.12,239.06,426.5,237.38,426.26,235.77z"/>
			<g>
				<path style="fill:#718F26;" d="M424.28,290.67l-3.74,21.38c-1.52,0.46-3.06,0.87-4.62,1.21c-0.52,0.12-1.05,0.23-1.58,0.33
					l-2.47-37.96l-0.41-6.19l-0.18-2.82c0,0,12.21,4.7,12.94,9.58c0.68,4.59-2.42,5.9-2.78,6.03h-0.01
					c-0.01,0.01-0.02,0.01-0.02,0.01v0.01l1.98,3.4C424.27,287.17,424.58,288.95,424.28,290.67z"/>
				<path style="fill:#718F26;" d="M392.38,266.62l-0.59,9.01l-2.47,37.96c-1.65-0.32-3.27-0.7-4.87-1.15
					c-0.44-0.12-0.89-0.25-1.33-0.39l-3.74-21.38c-0.3-1.72,0.01-3.5,0.89-5.02l1.98-3.4v-0.01c0,0-0.01,0-0.02-0.01h-0.01
					c-0.36-0.13-3.46-1.44-2.78-6.03C380.17,271.32,392.38,266.62,392.38,266.62z"/>
			</g>
			<g>
				<path style="fill:#718F26;" d="M376.47,309.65c-1.57-0.67-3.12-1.4-4.62-2.19l2.12-11.09L376.47,309.65z"/>
				<path style="fill:#718F26;" d="M431.8,307.46c-1.51,0.79-3.05,1.52-4.62,2.19l2.5-13.28L431.8,307.46z"/>
			</g>
			<g>
				<path style="fill:#F37A67;" d="M400.891,234.146v11.441h1.939C406.154,245.587,401.508,235.46,400.891,234.146z"/>
				<g>
					<g>
						<path style="fill:#051733;" d="M414.988,229.688c-2.68-1.324-5.659-1.52-8.452-0.41c-1.183,0.471-0.668,2.406,0.532,1.929
							c2.289-0.91,4.686-0.891,6.911,0.208C415.131,231.984,416.145,230.26,414.988,229.688z"/>
						<path style="fill:#051733;" d="M412.576,233.252c-0.609-1.056-1.886-0.992-1.886-0.992c-1.042,0-1.886,0.844-1.886,1.886
							c0,1.042,0.844,1.886,1.886,1.886c0.23,0,0.447-0.047,0.651-0.122l0.001,0.005c0.012-0.004,0.021-0.011,0.033-0.016
							c0.061-0.024,0.118-0.054,0.175-0.084c1.649-0.715,1.825-2.546,1.825-2.546C413.046,233.546,412.576,233.252,412.576,233.252z
							"/>
					</g>
					<g>
						<path style="fill:#051733;" d="M388.672,229.688c2.68-1.324,5.659-1.52,8.452-0.41c1.183,0.471,0.668,2.406-0.532,1.929
							c-2.289-0.91-4.686-0.891-6.911,0.208C388.529,231.984,387.516,230.26,388.672,229.688z"/>
						<path style="fill:#051733;" d="M391.085,233.252c0.609-1.056,1.886-0.992,1.886-0.992c1.042,0,1.886,0.844,1.886,1.886
							c0,1.042-0.844,1.886-1.886,1.886c-0.23,0-0.447-0.047-0.651-0.122l-0.001,0.005c-0.012-0.004-0.021-0.011-0.033-0.016
							c-0.061-0.024-0.118-0.054-0.176-0.084c-1.649-0.715-1.825-2.546-1.825-2.546
							C390.614,233.546,391.085,233.252,391.085,233.252z"/>
					</g>
				</g>
				<path style="fill:#FFFFFF;" d="M395.684,249.673c0.665,2.482,3.16,4.33,6.146,4.33s5.481-1.848,6.146-4.33H395.684z"/>
			</g>
			<path style="fill:#051733;" d="M399.649,208.621c1.352,2.161,2.704,4.323,4.057,6.484c0.862,1.378,1.73,2.764,2.818,3.971
				c0.918,1.019,1.98,1.897,3.068,2.732c4.006,3.076,8.58,5.677,13.599,6.24c-1.235-4.294-1.945-8.848-4.617-12.429
				C414.297,209.888,406.654,207.179,399.649,208.621z"/>
			<path style="fill:#051733;" d="M403.34,209.71c-0.944,3.784-3.652,6.881-6.605,9.429c-4.339,3.744-9.42,6.654-14.904,8.317
				c-0.123-3.629,1.193-7.148,3.105-10.234c1.033-1.668,2.163-3.333,3.749-4.488c1.411-1.028,3.099-1.59,4.758-2.136
				C396.562,209.569,400.172,208.844,403.34,209.71z"/>
		</g>
	</g>
	<g>
		<path style="fill:#D7EAF1;" d="M314.8,250c0,15.65-5.54,30-14.78,41.19c-4.36,5.3-9.55,9.89-15.37,13.58
			c-1.75,1.11-3.56,2.14-5.42,3.07c-8.78,4.46-18.71,6.96-29.23,6.96c-10.52,0-20.45-2.5-29.23-6.96c-1.86-0.93-3.67-1.96-5.42-3.07
			c-5.82-3.69-11.01-8.28-15.37-13.58C190.74,280,185.2,265.65,185.2,250c0-35.79,29.01-64.8,64.8-64.8S314.8,214.21,314.8,250z"/>
		<g>
			<g>
				<path style="fill:#0C415B;" d="M300.02,291.19c-4.36,5.3-9.55,9.89-15.37,13.58c-1.75,1.11-3.56,2.14-5.42,3.07
					c-8.78,4.46-18.71,6.96-29.23,6.96c-10.52,0-20.45-2.5-29.23-6.96c-1.86-0.93-3.67-1.96-5.42-3.07
					c-5.82-3.69-11.01-8.28-15.37-13.58c1.99-5.17,6.33-9.18,11.8-10.69l15.53-4.29l5.45-1.51l4.99-1.38l1.89-10.58l0.57-3.19
					l0.75-4.23l9.04,3.54l9.04-3.54l0.75,4.23l1.52,8.51l0.94,5.26l4.99,1.38l5.45,1.51l15.53,4.29
					C293.69,282.01,298.03,286.02,300.02,291.19z"/>
				<path style="fill:#1D627D;" d="M267.24,274.7l-0.15,0.26c-1.12,6.68-7.26,10.77-16.35,10.77c-0.31,0-0.56,0-0.74-0.01
					c-0.18,0.01-0.43,0.01-0.74,0.01c-9.1,0-15.23-4.09-16.35-10.77l-0.15-0.26l4.99-1.38l3.21-18l9.04,3.54l9.04-3.54l3.21,18
					L267.24,274.7z"/>
				<path style="fill:#86201B;" d="M262.25,273.32c-0.55,8.13-12.25,7.39-12.25,7.39s-11.7,0.74-12.25-7.39l1.89-10.58l1.32-7.42
					l9.04,3.54l9.04-3.54l2.27,12.74L262.25,273.32z"/>
				<path style="fill:#051733;" d="M273.343,223.679c0.333-0.243,0.532-0.658,0.513-1.07c-0.019-0.412-0.154-1.141-0.508-1.352
					c0.318-0.625,0.148-1.787-0.365-2.265c0.297-0.622,0.14-1.677-0.416-2.085c0.348-0.617-0.302-1.736-0.988-1.908
					c0.062-0.691-0.502-1.829-1.135-2.111c0.426-0.877-0.347-2.33-1.294-2.557c0.069-0.735-0.539-1.696-1.245-1.915
					c0.003-0.734-0.791-1.631-1.517-1.74c-0.311-0.896-1.33-1.766-2.277-1.831c-0.128-0.582-0.519-1.102-1.043-1.386
					c-0.524-0.284-1.48-0.395-2.038-0.184c-0.357-0.766-1.595-1.002-2.378-0.684c-0.391-0.753-1.655-1.041-2.315-0.51
					c-0.476-0.658-1.852-0.906-2.5-0.418c-0.555-0.425-1.5-0.376-2.154-0.129c-0.315-0.604-1-0.869-1.681-0.869
					c-0.681,0-1.366,0.266-1.681,0.869c-0.654-0.247-1.599-0.297-2.154,0.129c-0.648-0.489-2.024-0.24-2.5,0.418
					c-0.661-0.531-1.925-0.243-2.315,0.51c-0.783-0.318-2.021-0.083-2.378,0.684c-0.558-0.21-1.514-0.1-2.038,0.184
					c-0.524,0.284-0.915,0.804-1.043,1.386c-0.946,0.065-1.966,0.935-2.277,1.831c-0.726,0.109-1.52,1.005-1.518,1.74
					c-0.705,0.219-1.313,1.18-1.244,1.915c-0.948,0.227-1.721,1.681-1.294,2.557c-0.634,0.282-1.197,1.42-1.136,2.111
					c-0.687,0.172-1.336,1.291-0.988,1.908c-0.556,0.408-0.713,1.462-0.416,2.085c-0.513,0.478-0.683,1.64-0.365,2.265
					c-0.354,0.211-0.489,0.94-0.508,1.352c-0.019,0.412,0.18,0.827,0.513,1.07c-0.591,0.685-0.496,1.967,0.074,2.669
					c-0.341,0.841-0.191,2.258,0.354,2.983c-0.338,0.574-0.15,1.708,0.324,2.176c-0.461,0.958-0.015,2.494,0.927,2.987
					c0.083,0,0.414,0.339,0.497,0.339h17.084L250,219.417l4.082,15.416h17.084c0.083,0,0.414-0.339,0.497-0.339
					c0.942-0.493,1.389-2.029,0.927-2.987c0.474-0.468,0.662-1.602,0.324-2.176c0.545-0.726,0.696-2.143,0.354-2.983
					C273.839,225.646,273.934,224.364,273.343,223.679z"/>
				<path style="fill:#86201B;" d="M273.38,240.4c-0.91,1.34-2.26,2.35-3.84,2.71c-0.02,0.11-0.03,0.22-0.05,0.32
					c-2.92,19.18-19.49,19.18-19.49,19.18s-16.57,0-19.49-19.18c-0.02-0.1-0.03-0.21-0.05-0.32c-1.58-0.36-2.93-1.37-3.84-2.71
					c-0.91-1.34-1.29-3.02-1.05-4.63c0.12-0.79,0.42-1.6,1.03-2.13c0.55-0.48,1.3-0.68,2.03-0.65c0.7,0.03,1.37,0.26,2,0.56
					c0.03,0.01,0.06,0.03,0.09,0.04c0,0,0-0.06,0-0.17c0.03-1.88,0.43-18.28,6.6-18.48c4.28-0.22,6.19,1.07,12.68,1.07
					c6.49,0,8.4-1.29,12.68-1.07c6.17,0.2,6.57,16.61,6.6,18.48c0,0.11,0,0.17,0,0.17c0.03-0.01,0.06-0.03,0.09-0.04
					c0.63-0.3,1.3-0.53,2-0.56c0.73-0.03,1.48,0.17,2.03,0.65c0.61,0.53,0.91,1.34,1.03,2.13
					C274.67,237.38,274.29,239.06,273.38,240.4z"/>
				<path style="fill:#611714;" d="M261.31,268.06c-3.94,1.74-7.27,1.74-7.27,1.74s-8.51,0-14.4-7.06l1.32-7.42l9.04,3.54l9.04-3.54
					L261.31,268.06z"/>
			</g>
			<path style="fill:#051733;" d="M270.824,226.113c-0.061-2.652-0.769-5.235-1.542-7.788c-0.773-2.553-2.345-5.001-4.795-6.355
				c-2.081-1.15-4.594-1.413-7.013-1.365c-1.183,0.023-2.384,0.119-3.485,0.52c-1.732,0.631-3.604,0.273-3.989,1.958
				c-0.385-1.685-2.256-1.327-3.989-1.958c-1.102-0.401-2.303-0.497-3.485-0.52c-2.419-0.048-4.932,0.215-7.013,1.365
				c-2.45,1.354-4.021,3.802-4.795,6.355c-0.773,2.553-1.481,5.136-1.542,7.788c-0.052,2.264,0.078,4.547,1.54,7.472
				c0.635,0.185,0.479-1.075,0.391-1.689c-0.088-0.614-0.458-1.204-0.352-1.816c0.163-0.945,1.375-1.494,1.553-2.437
				c0.191-1.016-0.911-1.981-0.647-2.983c0.272-1.034,1.72-1.299,2.509-2.069c0.702-0.685,0.85-1.757,1.596-2.401
				c1.415-1.223,3.89-0.155,5.556-1.065c0.638-0.349,1.072-0.949,1.667-1.359c0.525-0.361,1.174-0.565,1.827-0.574
				c0.903-0.012,1.764,0.335,2.659,0.449c0.894,0.115,1.967-0.102,2.352-0.862c0.081-0.16,0.134-0.324,0.174-0.49
				c0.04,0.166,0.093,0.33,0.174,0.49c0.385,0.76,1.457,0.977,2.352,0.862c0.894-0.115,1.756-0.461,2.659-0.449
				c0.653,0.009,1.302,0.212,1.827,0.574c0.595,0.41,1.029,1.01,1.667,1.359c1.665,0.91,4.14-0.158,5.556,1.065
				c0.745,0.644,0.894,1.716,1.596,2.401c0.789,0.77,2.237,1.035,2.509,2.069c0.263,1.002-0.839,1.967-0.647,2.983
				c0.178,0.943,1.39,1.492,1.553,2.437c0.105,0.612-0.264,1.202-0.352,1.816c-0.088,0.614-0.244,1.874,0.391,1.689
				C270.745,230.66,270.876,228.378,270.824,226.113z"/>
			<path style="fill:#051733;" d="M269.49,243.11v0.32c-2.92,19.18-19.49,19.18-19.49,19.18s-16.57,0-19.49-19.18v-0.32l0.12-9.56
				v-0.2c0.03,0.02,0.06,0.04,0.09,0.07c1.07,0.77,1.79,2.22,1.59,3.51c0.81,0.51,1.21,1.9,0.83,2.77c0.59,0.52,0.96,1.27,1.01,2.04
				c0.05,0.78-0.07,1.86-0.59,2.45c0.61,0.31,1.09,0.87,1.31,1.53c0.22,0.65,0.21,1.66-0.08,2.29c1.03,0.72,1.34,2.25,1,3.46
				c1.08,0.36,2.03,1.42,2.22,2.55c0.86-0.13,1.89,0.23,2.41,0.91c0.76-0.91,2.24-1.02,3.32-0.53c0.91-0.63,2.41-0.43,3.25,0.3
				c0.81-0.72,1.92-0.68,3.01-0.68s2.2-0.04,3.01,0.68c0.84-0.73,2.34-0.93,3.25-0.3c1.08-0.49,2.56-0.38,3.32,0.53
				c0.52-0.68,1.55-1.04,2.41-0.91c0.19-1.13,1.14-2.19,2.22-2.55c-0.34-1.21-0.03-2.74,1-3.46c-0.29-0.63-0.3-1.64-0.08-2.29
				c0.22-0.66,0.7-1.22,1.31-1.53c-0.52-0.59-0.64-1.67-0.59-2.45c0.05-0.77,0.42-1.52,1.01-2.04c-0.38-0.87,0.02-2.26,0.83-2.77
				c-0.2-1.29,0.52-2.74,1.59-3.51c0.03-0.03,0.06-0.05,0.09-0.07v0.2L269.49,243.11z"/>
			<g>
				<path style="fill:#051733;" d="M220.77,307.84c-1.86-0.93-3.67-1.96-5.42-3.07l2.45-13.35L220.77,307.84z"/>
				<path style="fill:#051733;" d="M284.65,304.77c-1.75,1.11-3.56,2.14-5.42,3.07l2.97-16.42L284.65,304.77z"/>
			</g>
			<g>
				<path style="fill:#611714;" d="M249.061,230.937v11.441H251C254.323,242.378,249.678,232.252,249.061,230.937z"/>
				<g>
					<g>
						<path style="fill:#051733;" d="M263.158,226.48c-2.68-1.324-5.658-1.52-8.452-0.41c-1.183,0.471-0.668,2.406,0.532,1.929
							c2.289-0.91,4.686-0.891,6.911,0.208C263.301,228.776,264.314,227.051,263.158,226.48z"/>
						<circle style="fill:#051733;" cx="258.859" cy="230.937" r="1.886"/>
					</g>
					<g>
						<g>
							<path style="fill:#051733;" d="M236.842,226.48c2.68-1.324,5.659-1.52,8.452-0.41c1.183,0.471,0.668,2.406-0.532,1.929
								c-2.289-0.91-4.686-0.891-6.911,0.208C236.699,228.776,235.686,227.051,236.842,226.48z"/>
							<circle style="fill:#051733;" cx="241.141" cy="230.937" r="1.886"/>
						</g>
					</g>
				</g>
				<path style="fill:#FFFFFF;" d="M243.854,247.847c0.665,2.482,3.16,4.33,6.146,4.33c2.985,0,5.481-1.848,6.146-4.33H243.854z"/>
			</g>
		</g>
	</g>
	<g>
		<path style="fill:#D7EAF1;" d="M162.97,401.19c0,18.51-7.76,35.21-20.21,47.03c-2.99,2.82-6.24,5.37-9.73,7.6
			c-1.89,1.21-3.85,2.33-5.87,3.33c-8.72,4.38-18.57,6.84-28.99,6.84s-20.26-2.46-28.98-6.83c-2.02-1.01-3.98-2.12-5.87-3.33
			c-3.89-2.49-7.49-5.38-10.75-8.62c-11.85-11.73-19.19-28.02-19.19-46.02c0-35.78,29.01-64.79,64.79-64.79
			C133.96,336.4,162.97,365.41,162.97,401.19z"/>
		<g>
			<g>
				<path style="fill:#E44424;" d="M131.031,419.833c-5.394-4.333-4.106-8.833-1.273-16.5c2.833-7.667,0.667-15.167-3.833-19.167
					s-6.309-9.026-6.309-9.026l-22.286,1.008l-22.286-1.008c0,0-1.809,5.026-6.309,9.026s-6.667,11.5-3.833,19.167
					c2.833,7.667,4.121,12.167-1.273,16.5c-5.394,4.333-10.727,15.167-4.227,25h37.52h0.816h37.52
					C141.758,435,136.425,424.167,131.031,419.833z"/>
				<path style="fill:#1DACAC;" d="M142.76,448.22c-2.99,2.82-6.24,5.37-9.73,7.6c-1.89,1.21-3.85,2.33-5.87,3.33
					c-8.72,4.38-18.57,6.84-28.99,6.84s-20.26-2.46-28.98-6.83c-2.02-1.01-3.98-2.12-5.87-3.33c-3.89-2.49-7.49-5.38-10.75-8.62
					c1.45-2.1,3.18-3.98,5.12-5.61c2.45-2.07,5.24-3.74,8.28-4.91l5.97-2.3c1.56-0.6,3.05-1.35,4.44-2.22
					c1.51-0.95,2.91-2.05,4.18-3.28c0.23-0.22,0.45-0.45,0.67-0.68c0.17-0.17,0.34-0.35,0.5-0.53c0.19-0.21,0.38-0.42,0.56-0.64
					c0.05-0.05,0.09-0.1,0.12-0.15c0.04-0.03,0.06-0.06,0.09-0.1c0.01,0,0.01-0.01,0.02-0.02c0.09-0.1,0.18-0.21,0.26-0.33
					c0.02-0.01,0.03-0.03,0.04-0.05h29.02c0.18,0.22,0.35,0.44,0.53,0.65c0.18,0.21,0.36,0.42,0.55,0.62
					c-0.01,0.01,0,0.02,0.01,0.02l0.11,0.11c0.02,0.03,0.05,0.06,0.07,0.09c0,0,0,0.01,0.01,0.01c0.12,0.14,0.25,0.27,0.38,0.4
					c0.2,0.2,0.4,0.4,0.6,0.6c1.27,1.23,2.67,2.33,4.18,3.28c1.39,0.87,2.88,1.62,4.44,2.22l5.97,2.3c3.04,1.17,5.83,2.84,8.28,4.91
					C139.22,443.48,141.18,445.72,142.76,448.22z"/>
				<path style="fill:#007289;" d="M111.844,426.39H82.815c-0.7,0.879-1.446,1.72-2.256,2.5c-1.27,1.23-2.67,2.33-4.18,3.28
					c5.3,3.62,12.68,5.83,20.95,5.83s15.65-2.21,20.95-5.83c-1.51-0.95-2.91-2.05-4.18-3.28
					C113.291,428.11,112.544,427.269,111.844,426.39z"/>
				<path style="fill:#F69779;" d="M114.1,428.89c-4.38,2.55-10.27,4.11-16.77,4.11s-12.39-1.56-16.77-4.11
					c3.66-3.53,6.25-8.13,7.32-13.27l0.57-2.74l1.77-8.56h14.22l2.34,11.3c0.45,2.12,1.14,4.15,2.08,6.05
					C110.17,424.38,111.95,426.82,114.1,428.89z"/>
				<path style="fill:#F37A67;" d="M108.86,421.67c-2.5,0.68-4.28,0.68-4.28,0.68s-10.36,0-16.13-9.47l1.77-8.56h14.22l2.34,11.3
					C107.23,417.74,107.92,419.77,108.86,421.67z"/>
				<g>
					<path style="fill:#E44424;" d="M117.079,365.073c-2.312-4.336-6.735-6.735-10.809-8.061c-5.796-1.887-12.084-1.887-17.879,0
						c-4.074,1.326-8.497,3.726-10.809,8.061c-4.18,8.004-3.468,20.456-3.468,20.456l4.358,4.625l18.859-2.393l18.859,2.393
						l4.358-4.625C120.547,385.529,121.259,373.078,117.079,365.073z"/>
					<path style="fill:#F69779;" d="M116.87,392.11c-2.78,19.5-19.54,19.5-19.54,19.5s-16.76,0-19.54-19.5
						c-1.58-0.36-2.93-1.37-3.84-2.71c-0.91-1.34-1.29-3.02-1.05-4.63c0.12-0.79,0.42-1.6,1.03-2.13c0.55-0.48,1.3-0.68,2.03-0.65
						c0.73,0.03,1.43,0.28,2.09,0.6c0,0,1.12-20.63,15.06-19.6c8.49,1.15,9.18,5.85,10.44,9.18c1.26,3.32,4.59,10.09,9.06,13.76
						C117.08,389.6,116.87,392.11,116.87,392.11z"/>
				</g>
			</g>
			<g>
				<path style="fill:#007289;" d="M69.19,459.16c-2.02-1.01-3.98-2.12-5.87-3.33l2.04-11l0.62-3.33l0.61,3.33L69.19,459.16z"/>
				<path style="fill:#007289;" d="M133.03,455.82c-1.89,1.21-3.85,2.33-5.87,3.33l2.6-14.32l0.61-3.33l0.62,3.33L133.03,455.82z"/>
			</g>
			<g>
				<path style="fill:#F37A67;" d="M96.391,386.098v11.441h1.939C101.653,397.539,97.008,387.413,96.391,386.098z"/>
				<g>
					<g>
						<path style="fill:#E44424;" d="M110.488,381.641c-2.68-1.324-5.659-1.52-8.452-0.41c-1.183,0.471-0.668,2.406,0.532,1.929
							c2.289-0.91,4.686-0.891,6.911,0.208C110.631,383.937,111.644,382.212,110.488,381.641z"/>
						<path style="fill:#051733;" d="M108.076,385.204c-0.609-1.056-1.886-0.992-1.886-0.992c-1.042,0-1.886,0.844-1.886,1.886
							c0,1.042,0.844,1.886,1.886,1.886c0.23,0,0.447-0.047,0.651-0.122l0.001,0.005c0.012-0.004,0.021-0.011,0.033-0.016
							c0.061-0.024,0.118-0.054,0.175-0.084c1.649-0.715,1.825-2.546,1.825-2.546C108.546,385.498,108.076,385.204,108.076,385.204z
							"/>
					</g>
					<g>
						<path style="fill:#E44424;" d="M84.172,381.641c2.68-1.324,5.659-1.52,8.452-0.41c1.183,0.471,0.668,2.406-0.532,1.929
							c-2.289-0.91-4.686-0.891-6.911,0.208C84.029,383.937,83.016,382.212,84.172,381.641z"/>
						<path style="fill:#051733;" d="M86.585,385.204c0.609-1.056,1.886-0.992,1.886-0.992c1.042,0,1.886,0.844,1.886,1.886
							c0,1.042-0.844,1.886-1.886,1.886c-0.23,0-0.447-0.047-0.651-0.122l-0.001,0.005c-0.012-0.004-0.021-0.011-0.033-0.016
							c-0.061-0.024-0.118-0.054-0.175-0.084c-1.649-0.715-1.825-2.546-1.825-2.546C86.114,385.498,86.585,385.204,86.585,385.204z"
							/>
					</g>
				</g>
				<path style="fill:#FFFFFF;" d="M91.185,401.724c0.665,2.482,3.16,4.33,6.146,4.33c2.985,0,5.481-1.848,6.145-4.33H91.185z"/>
			</g>
		</g>
	</g>
	<g>
		<path style="fill:#D7EAF1;" d="M466.62,401.19c0,18.26-7.55,34.75-19.7,46.52c-3.22,3.13-6.76,5.93-10.58,8.32
			c-1.66,1.06-3.37,2.04-5.13,2.93c-8.82,4.5-18.81,7.03-29.38,7.03c-10.58,0-20.57-2.53-29.39-7.03c-1.76-0.9-3.47-1.87-5.13-2.93
			c-3.82-2.4-7.36-5.19-10.58-8.31c-12.15-11.78-19.7-28.27-19.7-46.53c0-35.78,29.01-64.79,64.8-64.79
			C437.61,336.4,466.62,365.41,466.62,401.19z"/>
		<g>
			<g>
				<path style="fill:#F69779;" d="M446.92,447.71c-3.22,3.13-6.76,5.93-10.58,8.32c-1.66,1.06-3.37,2.04-5.13,2.93
					c-8.82,4.5-18.81,7.03-29.38,7.03c-10.58,0-20.57-2.53-29.39-7.03c-1.76-0.9-3.47-1.87-5.13-2.93
					c-3.82-2.4-7.36-5.19-10.58-8.31c3.29-4.98,8.08-8.85,13.74-11.03l5.97-2.3c1.06-0.41,2.08-0.88,3.05-1.42
					c1.47-0.79,2.84-1.72,4.11-2.77c1.17-0.97,2.25-2.04,3.23-3.19c2.72-3.22,4.66-7.12,5.55-11.39l0.49-2.36l0.79-3.8l0.59-2.84
					v-0.01l0.47-2.29h14.22l0.48,2.29l0.58,2.85l1.28,6.16c0.34,1.66,0.84,3.25,1.49,4.77c1.02,2.42,2.39,4.65,4.06,6.62
					c0.98,1.15,2.06,2.22,3.23,3.19c1.27,1.05,2.64,1.98,4.11,2.77c0.97,0.54,1.99,1.01,3.05,1.42l5.97,2.3
					C438.84,438.87,443.63,442.74,446.92,447.71z"/>
				<path style="fill:#F37A67;" d="M412.77,420.39c-2.76,0.82-4.79,0.82-4.79,0.82s-9.21,0-15.11-7.95l1.85-8.94h14.22l2.34,11.3
					C411.62,417.28,412.12,418.87,412.77,420.39z"/>
				<g>
					<path style="fill:#BF2D28;" d="M424.17,432.97c-0.46,0.29-1,0.49-1.59,0.57c-1.19,0.17-2.3-0.19-3.1-0.87
						c-0.63,0.85-1.63,1.46-2.81,1.57c-1.19,0.12-2.29-0.28-3.06-0.99c-0.66,0.82-1.68,1.39-2.87,1.46
						c-1.19,0.07-2.27-0.37-3.02-1.11c-0.69,0.79-1.73,1.32-2.92,1.34c-1.19,0.03-2.25-0.46-2.97-1.22
						c-0.72,0.76-1.78,1.25-2.97,1.22c-1.19-0.02-2.23-0.55-2.92-1.34c-0.75,0.74-1.83,1.18-3.02,1.11
						c-1.19-0.07-2.21-0.64-2.87-1.46c-0.77,0.71-1.87,1.11-3.06,0.99c-1.18-0.11-2.18-0.72-2.81-1.57c-0.8,0.68-1.91,1.04-3.1,0.87
						c-0.59-0.08-1.13-0.28-1.59-0.57c1.47-0.79,2.84-1.72,4.11-2.77c1.17-0.97,2.25-2.04,3.23-3.19c0.29-0.04,0.58-0.05,0.88-0.02
						c1.13,0.11,2.08,0.69,2.72,1.5c0.76-0.7,1.79-1.12,2.92-1.05c1.13,0.06,2.11,0.6,2.78,1.39c0.72-0.74,1.74-1.19,2.87-1.17
						s2.13,0.52,2.83,1.28c0.7-0.76,1.7-1.26,2.83-1.28s2.15,0.43,2.87,1.17c0.67-0.79,1.65-1.33,2.78-1.39
						c1.13-0.07,2.16,0.35,2.92,1.05c0.64-0.81,1.59-1.39,2.72-1.5c0.3-0.03,0.59-0.02,0.88,0.02c0.98,1.15,2.06,2.22,3.23,3.19
						C421.33,431.25,422.7,432.18,424.17,432.97z"/>
					<path style="fill:#F03832;" d="M446.92,447.71c-3.22,3.13-6.76,5.93-10.58,8.32c-1.66,1.06-3.37,2.04-5.13,2.93
						c-8.82,4.5-18.81,7.03-29.38,7.03c-10.58,0-20.57-2.53-29.39-7.03c-1.76-0.9-3.47-1.87-5.13-2.93
						c-3.82-2.4-7.36-5.19-10.58-8.31c3.29-4.98,8.08-8.85,13.74-11.03l5.97-2.3c1.06-0.41,2.08-0.88,3.05-1.42
						c1.47-0.79,2.84-1.72,4.11-2.77c12.11,1.51,24.35,1.51,36.46,0c1.27,1.05,2.64,1.98,4.11,2.77c0.97,0.54,1.99,1.01,3.05,1.42
						l5.97,2.3C438.84,438.87,443.63,442.74,446.92,447.71z"/>
				</g>
				<g>
					<path style="fill:#051733;" d="M422.098,361.034c-2.373-4.782-6.912-7.428-11.093-8.891c-5.948-2.081-12.402-2.081-18.349,0
						c-4.182,1.463-8.72,4.109-11.093,8.891c-4.29,8.828-3.56,22.561-3.56,22.561l4.473,5.101l19.355-2.639l19.355,2.639
						l4.473-5.101C425.658,383.595,426.388,369.862,422.098,361.034z"/>
					<path style="fill:#051733;" d="M422.186,398.023c0,0,10.568,5.08,11.662,32.934
						C433.847,430.957,417.084,418.138,422.186,398.023z"/>
					<path style="fill:#F03832;" d="M424.175,398.023c0,1.75-1.419,3.169-3.169,3.169s-3.169-1.419-3.169-3.169
						s1.419-3.169,3.169-3.169S424.175,396.273,424.175,398.023z"/>
					<path style="fill:#051733;" d="M401.83,378.637l-23.77,10.059c1.705,16.801,23.77,20.006,23.77,20.006
						s22.065-3.206,23.77-20.006L401.83,378.637z"/>
				</g>
			</g>
			<path style="fill:#F69779;" d="M426.26,384.77c-0.12-0.79-0.42-1.6-1.03-2.13c-0.55-0.48-1.3-0.68-2.03-0.65
				c-0.73,0.03-1.43,0.28-2.09,0.6c0,0,0.17-2.16-0.29-5.19c-0.01-0.03-0.02-0.06-0.02-0.1c-0.63-3.96-2.35-9.37-6.95-13.38
				c-2.437-2.141-5.684-3.888-10.011-4.819c-1.319-0.284-2.699-0.284-4.018,0c-4.33,0.931-7.585,2.678-10.021,4.819
				c-4.59,4.01-6.31,9.4-6.94,13.35c0,0.02-0.01,0.03-0.01,0.05c-0.48,3.07-0.31,5.27-0.31,5.27c-0.66-0.32-1.35-0.57-2.08-0.6
				c-0.73-0.03-1.48,0.17-2.03,0.65c-0.61,0.53-0.91,1.34-1.03,2.13c-0.24,1.61,0.14,3.29,1.05,4.63c0.91,1.34,2.26,2.35,3.84,2.71
				c2.78,19.5,19.54,19.5,19.54,19.5s16.76,0,19.54-19.5c1.58-0.36,2.93-1.37,3.84-2.71S426.5,386.38,426.26,384.77z"/>
			<g>
				<path style="fill:#BF2D28;" d="M372.44,458.96c-1.76-0.9-3.47-1.87-5.13-2.93l2.32-12.53L372.44,458.96z"/>
				<path style="fill:#BF2D28;" d="M436.34,456.03c-1.66,1.06-3.37,2.04-5.13,2.93l2.81-15.46L436.34,456.03z"/>
			</g>
			<g>
				<path style="fill:#F37A67;" d="M400.891,382.97v11.441h1.939C406.154,394.411,401.508,384.285,400.891,382.97z"/>
				<g>
					<g>
						<path style="fill:#051733;" d="M414.988,378.513c-2.68-1.324-5.659-1.52-8.452-0.41c-1.183,0.471-0.668,2.405,0.532,1.929
							c2.289-0.91,4.686-0.891,6.911,0.208C415.131,380.809,416.145,379.084,414.988,378.513z"/>
						<path style="fill:#051733;" d="M412.576,382.076c-0.609-1.056-1.886-0.992-1.886-0.992c-1.042,0-1.886,0.844-1.886,1.886
							s0.845,1.886,1.886,1.886c0.23,0,0.447-0.047,0.651-0.122l0.001,0.005c0.012-0.004,0.021-0.011,0.033-0.016
							c0.061-0.024,0.118-0.054,0.175-0.084c1.649-0.715,1.825-2.546,1.825-2.546C413.046,382.371,412.576,382.076,412.576,382.076z
							"/>
					</g>
					<g>
						<path style="fill:#051733;" d="M388.672,378.513c2.68-1.324,5.659-1.52,8.452-0.41c1.183,0.471,0.668,2.405-0.532,1.929
							c-2.289-0.91-4.686-0.891-6.911,0.208C388.529,380.809,387.516,379.084,388.672,378.513z"/>
						<path style="fill:#051733;" d="M391.085,382.076c0.609-1.056,1.886-0.992,1.886-0.992c1.042,0,1.886,0.844,1.886,1.886
							s-0.844,1.886-1.886,1.886c-0.23,0-0.447-0.047-0.651-0.122l-0.001,0.005c-0.012-0.004-0.021-0.011-0.033-0.016
							c-0.061-0.024-0.118-0.054-0.176-0.084c-1.649-0.715-1.825-2.546-1.825-2.546
							C390.614,382.371,391.085,382.076,391.085,382.076z"/>
					</g>
				</g>
				<path style="fill:#FFFFFF;" d="M395.684,398.596c0.665,2.482,3.16,4.33,6.146,4.33s5.481-1.848,6.146-4.33H395.684z"/>
			</g>
		</g>
	</g>
	<g>
		<path style="fill:#D7EAF1;" d="M314.8,401.19c0,15.34-5.33,29.44-14.26,40.54c-4.41,5.52-9.72,10.29-15.69,14.1
			c-1.89,1.21-3.85,2.32-5.87,3.33c-8.72,4.37-18.56,6.83-28.98,6.83c-10.42,0-20.26-2.46-28.98-6.83
			c-2.02-1.01-3.98-2.12-5.87-3.33c-5.97-3.81-11.28-8.58-15.69-14.1c-8.93-11.1-14.26-25.2-14.26-40.54
			c0-35.78,29.01-64.79,64.8-64.79S314.8,365.41,314.8,401.19z"/>
		<g>
			<g>
				<path style="fill:#BD948F;" d="M300.54,441.73c-4.41,5.52-9.72,10.29-15.69,14.1c-1.89,1.21-3.85,2.32-5.87,3.33
					c-8.72,4.37-18.56,6.83-28.98,6.83c-10.42,0-20.26-2.46-28.98-6.83c-2.02-1.01-3.98-2.12-5.87-3.33
					c-5.97-3.81-11.28-8.58-15.69-14.1c1.67-5.9,6.31-10.57,12.32-12.23l9.78-2.7h0.01l5.74-1.59l10.44-2.89l1.59-8.92l0.73-4.08
					l0.13-0.77l0.76-4.23l9.04,3.54l9.04-3.54l0.76,4.23l0.86,4.85l0.77,4.32l0.82,4.6l10.44,2.89l5.74,1.59h0.01l9.78,2.7
					C294.23,431.16,298.87,435.83,300.54,441.73z"/>
				<g>
					<g>
						<g>
							<path style="fill:#3D3936;" d="M262.83,461.511c-0.001,0-0.002,0-0.003,0c-0.276-0.002-0.499-0.227-0.497-0.503
								c0.033-6.18-3.356-12.248-8.637-15.46c-0.236-0.144-0.311-0.451-0.167-0.687c0.143-0.237,0.453-0.311,0.686-0.167
								c5.573,3.39,9.152,9.796,9.117,16.319C263.328,461.289,263.105,461.511,262.83,461.511z"/>
						</g>
						<path style="fill:#3D3936;" d="M265.96,461.011c0,1.729-1.401,3.13-3.13,3.13c-1.729,0-3.13-1.401-3.13-3.13
							c0-1.728,1.401-3.13,3.13-3.13C264.559,457.881,265.96,459.282,265.96,461.011z"/>
					</g>
					<g>
						<g>
							<path style="fill:#3D3936;" d="M237.169,461.511c-0.275,0-0.498-0.222-0.5-0.497c-0.035-6.523,3.544-12.93,9.118-16.319
								c0.236-0.145,0.544-0.069,0.687,0.167c0.144,0.235,0.068,0.543-0.167,0.687c-5.28,3.212-8.67,9.28-8.637,15.46
								c0.002,0.276-0.221,0.501-0.497,0.503C237.171,461.511,237.17,461.511,237.169,461.511z"/>
						</g>
						<path style="fill:#3D3936;" d="M234.04,461.011c0,1.729,1.401,3.13,3.13,3.13c1.729,0,3.13-1.401,3.13-3.13
							c0-1.728-1.401-3.13-3.13-3.13C235.441,457.881,234.04,459.282,234.04,461.011z"/>
					</g>
				</g>
				<path style="fill:#3D3936;" d="M278.589,423.638c-1.967-17.455-28.589-7.816-28.589-7.816s-26.622-9.639-28.589,7.816
					c-1.598,14.178,28.589,26.06,28.589,26.06S280.186,437.815,278.589,423.638z"/>
				<path style="fill:#F69779;" d="M262.25,422.32c0,6.67-24.5,6.67-24.5,0l2.32-13l0.89-5l9.04,3.54l9.04-3.54l2.39,13.4
					L262.25,422.32z"/>
				<path style="fill:#F37A67;" d="M261.43,417.72c-3.01,0.98-5.28,0.98-5.28,0.98s-10.29,0-16.08-9.38l0.89-5l9.04,3.54l9.04-3.54
					L261.43,417.72z"/>
				<path style="fill:#051733;" d="M269.749,365.073c-2.312-4.336-6.735-6.735-10.809-8.061c-5.796-1.887-12.084-1.887-17.879,0
					c-4.074,1.326-8.497,3.726-10.809,8.061c-4.18,8.004-3.468,20.456-3.468,20.456l4.358,4.625L250,387.76l18.859,2.393
					l4.358-4.625C273.217,385.529,273.929,373.078,269.749,365.073z"/>
				<path style="fill:#051733;" d="M263.022,366.857c0,0,7.56-1.556,6.67-4.113c-0.889-2.557-2.799-1.324-2.799-1.324
					s4.689-2.678,1.798-4.79c-1.668-1.032-3.891,0-3.891,0s3.335-3.78,0.556-5.225c-2.779-1.445-4.78,0.445-4.78,0.445
					s0.445-4.002-2.446-3.891c-2.89,0.111-4.558,4.336-4.558,4.336s-0.674-3.335-2.394-3.224c-1.72,0.111-3.499,3.446-3.499,3.446
					s0.111-4.785-2.668-4.56c-2.779,0.225-3.891,5.561-3.891,5.561s-1.407-3.78-3.371-3.224c-1.965,0.556-0.52,5.305-0.52,5.305
					s-3.002-2.637-4.336-0.969c-1.334,1.668,1.334,3.669,1.334,3.669s-2.89-0.889-3.335,1.223c-0.445,2.112,3.93,5.67,6.856,6.559
					L263.022,366.857z"/>
				<path style="fill:#F69779;" d="M274.428,384.775c-0.122-0.798-0.417-1.608-1.026-2.138c-0.549-0.478-1.305-0.675-2.032-0.644
					c-0.727,0.031-1.431,0.274-2.086,0.591c0,0-0.064-18.435-6.599-18.65c-4.285-0.214-6.192,1.071-12.684,1.071
					c-6.493,0-8.399-1.286-12.684-1.071c-6.535,0.214-6.599,18.65-6.599,18.65c-0.655-0.317-1.359-0.56-2.086-0.591
					c-0.727-0.031-1.483,0.166-2.032,0.644c-0.609,0.529-0.905,1.34-1.026,2.138c-0.244,1.602,0.139,3.29,1.051,4.629
					c0.911,1.339,2.257,2.346,3.836,2.707C233.245,411.61,250,411.61,250,411.61s16.755,0,19.541-19.498
					c1.579-0.361,2.925-1.368,3.836-2.707C274.288,388.065,274.671,386.376,274.428,384.775z"/>
			</g>
			<g>
				<path style="fill:#9C7672;" d="M221.02,459.16c-2.02-1.01-3.98-2.12-5.87-3.33l2.65-14.33L221.02,459.16z"/>
				<path style="fill:#9C7672;" d="M284.85,455.83c-1.89,1.21-3.85,2.32-5.87,3.33l3.22-17.66L284.85,455.83z"/>
			</g>
			<g>
				<path style="fill:#F37A67;" d="M249.061,382.333v11.441H251C254.323,393.773,249.678,383.647,249.061,382.333z"/>
				<g>
					<g>
						<path style="fill:#051733;" d="M263.158,377.875c-2.68-1.324-5.658-1.521-8.452-0.41c-1.183,0.471-0.668,2.406,0.532,1.929
							c2.289-0.91,4.686-0.891,6.911,0.208C263.301,380.171,264.314,378.447,263.158,377.875z"/>
						<circle style="fill:#051733;" cx="258.859" cy="382.333" r="1.886"/>
					</g>
					<g>
						<path style="fill:#051733;" d="M236.842,377.875c2.68-1.324,5.659-1.521,8.452-0.41c1.183,0.471,0.668,2.406-0.532,1.929
							c-2.289-0.91-4.686-0.891-6.911,0.208C236.699,380.171,235.686,378.447,236.842,377.875z"/>
						<circle style="fill:#051733;" cx="241.141" cy="382.333" r="1.886"/>
					</g>
				</g>
				<path style="fill:#FFFFFF;" d="M243.854,398.447c0.665,2.482,3.16,4.33,6.146,4.33c2.985,0,5.481-1.848,6.146-4.33H243.854z"/>
			</g>
		</g>
	</g>
</g>
</svg>
